<?xml version="1.0" standalone="no"?>
<!DOCTYPE svg PUBLIC "-//W3C//DTD SVG 1.1//EN" "http://www.w3.org/Graphics/SVG/1.1/DTD/svg11.dtd" >
<svg xmlns="http://www.w3.org/2000/svg" xmlns:xlink="http://www.w3.org/1999/xlink" version="1.1">
<metadata>
Created by FontForge 20170731 at Wed Mar 30 09:23:41 2022
 By Aleksey,,,
Copyright (c) 2014 - 2020 Monotype Imaging Inc. All rights reserved.
</metadata>
<defs>
<font id="HelveticaNeueLTPro-Bd" horiz-adv-x="1517" >
  <font-face 
    font-family="Helvetica Neue LT Pro"
    font-weight="700"
    font-stretch="normal"
    units-per-em="2048"
    panose-1="2 11 8 4 2 2 2 2 2 4"
    ascent="1462"
    descent="-586"
    x-height="1059"
    cap-height="1462"
    bbox="-340 -444 2208 1993"
    underline-thickness="102"
    underline-position="-307"
    unicode-range="U+000D-FB02"
  />
<missing-glyph horiz-adv-x="1048" 
d="M0 1470h1049v-1470h-1049v1470zM102 102h844v1264h-844v-1264zM530 1247q110 0 182 -74.5t72 -193.5q0 -79 -30 -131t-101 -117t-84 -94q-14 -35 -14 -158h-94l-4 39q0 70 8 111q7 41 43.5 91t77.5 89q43 39 68.5 77t25.5 85q0 70 -47 122t-109 52q-69 0 -112.5 -49
t-55.5 -146l-102 17q13 137 84 208.5t192 71.5zM455 240v137h114v-137h-114z" />
    <glyph glyph-name="IJ" unicode="IJ" horiz-adv-x="1730" 
d="M141 1462h322v-1462h-322v1462zM1268 1462h321v-1003q0 -241 -121.5 -367.5t-361.5 -126.5q-222 0 -353.5 122t-131.5 327v131h290v-72q0 -126 46 -181.5t141 -55.5q39 0 68 8.5t47 26t29.5 36.5t17 48t7 52t1.5 56v999z" />
    <glyph glyph-name="ij" unicode="ij" horiz-adv-x="1073" 
d="M119 1462h291v-239h-291v239zM119 1059h291v-1059h-291v1059zM641 1462h291v-239h-291v239zM641 1059h291v-1118q0 -169 -84 -241.5t-287 -72.5q-52 0 -96 8v240q21 -8 65 -8q62 0 86.5 24.5t24.5 71.5v1096z" />
    <glyph glyph-name="napostrophe" unicode="&#x22;n" horiz-adv-x="1509" 
d="M1014 1087q201 0 293 -102.5t92 -325.5v-659h-291v600q0 133 -43.5 195.5t-142.5 62.5q-66 0 -111 -21t-69.5 -63t-35 -95t-10.5 -128v-551h-290v1059h276v-148h6q52 84 137.5 130t188.5 46zM41 1462h291v-325q0 -129 -81.5 -222t-209.5 -110v135q135 45 135 203v4h-135
v315z" />
    <glyph glyph-name="fi" unicode="fi" horiz-adv-x="1210" 
d="M465 0h-291v864h-174v195h174v78q0 161 95.5 243t258.5 82q39 0 154 -8v-217q-55 6 -104 6q-63 0 -88 -27.5t-25 -95.5v-61h201v-195h-201v-864zM801 1462h291v-239h-291v239zM801 1059h291v-1059h-291v1059z" />
    <glyph glyph-name="fl" unicode="fl" horiz-adv-x="1210" 
d="M465 0h-291v864h-174v195h174v78q0 161 95.5 243t258.5 82q39 0 154 -8v-217q-55 6 -104 6q-63 0 -88 -27.5t-25 -95.5v-61h201v-195h-201v-864zM801 1462h291v-1462h-291v1462z" />
    <glyph glyph-name=".notdef" horiz-adv-x="1048" 
d="M0 1470h1049v-1470h-1049v1470zM102 102h844v1264h-844v-1264zM530 1247q110 0 182 -74.5t72 -193.5q0 -79 -30 -131t-101 -117t-84 -94q-14 -35 -14 -158h-94l-4 39q0 70 8 111q7 41 43.5 91t77.5 89q43 39 68.5 77t25.5 85q0 70 -47 122t-109 52q-69 0 -112.5 -49
t-55.5 -146l-102 17q13 137 84 208.5t192 71.5zM455 240v137h114v-137h-114z" />
    <glyph glyph-name=".null" horiz-adv-x="0" 
 />
    <glyph glyph-name=".null" horiz-adv-x="0" 
 />
    <glyph glyph-name="nonmarkingreturn" horiz-adv-x="682" 
 />
    <glyph glyph-name="CR" unicode="&#xd;" horiz-adv-x="569" 
 />
    <glyph glyph-name="space" unicode=" " horiz-adv-x="569" 
 />
    <glyph glyph-name="exclam" unicode="!" horiz-adv-x="569" 
d="M133 1462h303v-393l-80 -631h-145l-78 631v393zM125 315h321v-315h-321v315z" />
    <glyph glyph-name="quotedbl" unicode="&#x22;" horiz-adv-x="948" 
d="M174 1462h219v-657h-219v657zM555 1462h219v-657h-219v657z" />
    <glyph glyph-name="numbersign" unicode="#" horiz-adv-x="1138" 
d="M381 1434h199l-58 -406h199l55 406h199l-55 -406h151v-184h-178l-35 -254h152v-184h-179l-55 -406h-198l55 406h-197l-55 -400l-2 -6h-199l58 406h-170v184h194l37 254h-170v184h195zM694 844h-196l-37 -254h198z" />
    <glyph glyph-name="dollar" unicode="$" horiz-adv-x="1138" 
d="M508 1497v158h121v-158q211 -23 331 -134.5t130 -301.5h-291q-1 82 -51 139t-119 57v-362q280 -62 396 -175t116 -314q0 -52 -16.5 -107.5t-56 -113t-96.5 -103.5t-146 -78t-197 -39v-174h-121v174q-464 35 -510 510h291v-6q0 -104 59 -173.5t160 -90.5v428
q-5 2 -56.5 16t-82.5 23q-170 53 -253 144.5t-83 242.5q0 189 131 306t344 132zM324 1087q0 -67 42.5 -103t141.5 -60v333q-78 0 -131 -47t-53 -123zM629 598v-393q98 11 159.5 64.5t61.5 136.5q0 76 -48 118t-173 74z" />
    <glyph glyph-name="percent" unicode="%" horiz-adv-x="2048" 
d="M1368 1479h174l-844 -1524h-178zM502 1462q90 0 156 -31t104.5 -87.5t57 -129.5t18.5 -163q0 -187 -90.5 -287t-255.5 -100q-168 0 -253 99.5t-85 293.5q0 181 89.5 293t258.5 112zM362 1051q0 -30 1 -50t4.5 -51t12.5 -51.5t22.5 -41t37 -30.5t54.5 -10q53 0 84 34
t41 82.5t10 117.5q0 258 -127 258q-44 0 -74 -23t-43.5 -64.5t-18 -80.5t-4.5 -90zM1559 770q166 0 250.5 -102.5t84.5 -298.5q0 -185 -90.5 -291.5t-255.5 -106.5q-170 0 -254 106.5t-84 297.5q0 176 89 285.5t260 109.5zM1419 373q0 -32 1 -52.5t4.5 -53.5t12 -54.5
t22 -43.5t37 -33t54.5 -11q136 0 136 248q0 243 -130 243q-32 0 -56.5 -11.5t-38.5 -34t-23 -45t-13 -54t-5 -51.5t-1 -47z" />
    <glyph glyph-name="ampersand" unicode="&#x26;" horiz-adv-x="1402" 
d="M637 1479q170 0 284.5 -92.5t114.5 -258.5q0 -225 -260 -364l189 -232q40 70 53 175h252q-22 -208 -142 -361l297 -346h-356l-119 145q-177 -174 -411 -174q-207 0 -340 120.5t-133 318.5q0 130 83 239t244 185q-78 91 -108.5 163t-30.5 148q0 145 112 239.5t271 94.5z
M518 1155q0 -48 23.5 -95.5t91.5 -123.5q80 48 114.5 95.5t34.5 113.5q0 57 -39 98t-96 41q-53 0 -91 -36t-38 -93zM342 403q0 -79 63 -135.5t146 -56.5q131 0 246 129l-250 305q-99 -41 -152 -103.5t-53 -138.5z" />
    <glyph glyph-name="quotesingle" unicode="'" horiz-adv-x="569" 
d="M176 1462h219v-657h-219v657z" />
    <glyph glyph-name="parenleft" unicode="(" horiz-adv-x="606" 
d="M377 1497h244q-109 -203 -166.5 -441t-57.5 -487q0 -510 221 -942h-241q-132 216 -201.5 453.5t-69.5 468.5q0 240 69.5 496.5t201.5 451.5z" />
    <glyph glyph-name="parenright" unicode=")" horiz-adv-x="606" 
d="M-12 1497h241q132 -216 201.5 -454.5t69.5 -469.5q0 -235 -68.5 -493t-202.5 -453h-243q223 424 223 926q0 510 -221 944z" />
    <glyph glyph-name="asterisk" unicode="*" horiz-adv-x="833" 
d="M332 1462h164v-256l237 90l55 -157l-241 -80l151 -201l-135 -100l-151 211l-144 -211l-137 100l152 201l-238 80l55 157l232 -90v256z" />
    <glyph glyph-name="plus" unicode="+" horiz-adv-x="1228" 
d="M506 1034h219v-407h408v-219h-408v-408h-219v408h-408v219h408v407z" />
    <glyph glyph-name="comma" unicode="," horiz-adv-x="569" 
d="M125 315h321v-319q0 -123 -85 -217.5t-234 -118.5v147q64 13 104.5 65.5t40.5 113.5v14h-147v315z" />
    <glyph glyph-name="hyphen" unicode="-" horiz-adv-x="833" 
d="M109 684h616v-250h-616v250z" />
    <glyph glyph-name="period" unicode="." horiz-adv-x="569" 
d="M123 315h321v-315h-321v315z" />
    <glyph glyph-name="slash" unicode="/" horiz-adv-x="759" 
d="M549 1497h233l-571 -1532h-234z" />
    <glyph glyph-name="zero" unicode="0" horiz-adv-x="1138" 
d="M567 1462q257 0 393 -188.5t136 -550.5q0 -370 -135 -561t-394 -191q-257 0 -390.5 190.5t-133.5 561.5q0 363 133 551t391 188zM334 731q0 -53 0.5 -86t5 -93.5t13 -101t26 -90t41.5 -79t61.5 -50t85.5 -20.5t86 19.5t62.5 49t42 76.5t26.5 88.5t14 100t6 96t1 90.5
q0 59 -2.5 107t-10.5 109t-24.5 106.5t-42 86t-66.5 62t-94 21.5q-37 0 -68.5 -12.5t-54 -32t-40 -51.5t-29 -61t-19.5 -71t-11.5 -71.5t-5.5 -72.5t-2.5 -64t-0.5 -56z" />
    <glyph glyph-name="one" unicode="1" horiz-adv-x="1138" 
d="M571 1434h232v-1434h-291v930h-360v219h20q174 0 275.5 72.5t123.5 212.5z" />
    <glyph glyph-name="two" unicode="2" horiz-adv-x="1138" 
d="M596 1462q133 0 244 -53t179 -156.5t68 -238.5q0 -140 -65 -246q-40 -64 -102.5 -119.5t-174.5 -126.5q-143 -91 -213 -150t-114 -122h678v-250h-1053q0 139 47 244.5t143 197.5q55 52 126.5 104t236.5 163q63 43 103.5 80t69 89.5t28.5 112.5q0 98 -58.5 159.5
t-156.5 61.5q-106 0 -166 -88t-62 -241h-278v26q0 250 141 401.5t379 151.5z" />
    <glyph glyph-name="three" unicode="3" horiz-adv-x="1138" 
d="M567 1462q69 0 138 -16.5t131 -50t109.5 -80t75.5 -111.5t28 -139q0 -108 -53 -187t-148 -106v-4q118 -26 186 -115t68 -211q0 -144 -75 -253t-195 -163.5t-263 -54.5q-244 0 -388 137t-144 369v17h276q6 -135 72.5 -209t179.5 -74q102 0 168 63t66 162q0 119 -71.5 166
t-215.5 47h-45v205h53q122 0 187 46.5t65 131.5q0 88 -59 139.5t-144 51.5q-43 0 -81 -13.5t-70 -42t-51 -80t-19 -120.5h-276q8 226 142.5 360.5t352.5 134.5z" />
    <glyph glyph-name="four" unicode="4" horiz-adv-x="1138" 
d="M655 1434h260v-863h191v-239h-191v-332h-276v332h-606v266zM639 1069h-6l-371 -498h377v498z" />
    <glyph glyph-name="five" unicode="5" horiz-adv-x="1138" 
d="M223 1434h801v-240h-592l-57 -326l4 -4q111 111 280 111q138 0 240 -67t152.5 -176.5t50.5 -244.5q0 -105 -41 -200.5t-111 -164.5t-168 -110t-207 -41q-234 0 -383 121.5t-155 333.5h291q10 -98 74.5 -156.5t160.5 -58.5q108 0 178 80.5t70 195.5q0 113 -66 191t-184 78
q-75 0 -125 -27.5t-92 -87.5h-262z" />
    <glyph glyph-name="six" unicode="6" horiz-adv-x="1138" 
d="M606 1462q190 0 315 -105.5t150 -291.5h-276q-17 81 -70 129.5t-123 48.5q-85 0 -146.5 -62.5t-91.5 -158t-36 -215.5l4 -4q59 84 136.5 122t184.5 38q84 0 162.5 -31t141.5 -88t101 -147.5t38 -200.5q0 -224 -141 -374.5t-361 -150.5q-143 0 -250.5 55t-172.5 155.5
t-96.5 233.5t-31.5 298q0 106 18 207.5t60.5 201t105.5 174t160.5 120.5t218.5 46zM354 477q0 -109 64.5 -187.5t167.5 -78.5q98 0 158.5 78t60.5 184q0 110 -56.5 190t-164.5 80q-104 0 -167 -73.5t-63 -192.5z" />
    <glyph glyph-name="seven" unicode="7" horiz-adv-x="1138" 
d="M80 1434h979v-250q-108 -96 -197.5 -240t-147 -303.5t-89.5 -324.5t-35 -316h-311q24 315 149.5 614.5t331.5 548.5h-680v271z" />
    <glyph glyph-name="eight" unicode="8" horiz-adv-x="1138" 
d="M571 1462q100 0 183.5 -26t137 -67t90.5 -93t53 -103t16 -98q0 -106 -54 -185t-155 -114v-4q131 -32 199.5 -123.5t68.5 -226.5q0 -87 -29.5 -161.5t-80.5 -127t-119.5 -89.5t-146.5 -55t-161 -18t-161 16.5t-148 52.5t-122 87.5t-82.5 127t-30.5 165.5q0 136 71 228.5
t199 123.5v4q-100 27 -155.5 106t-55.5 189q0 74 27.5 138.5t74.5 110t109 78t131 48.5t141 16zM352 1044q0 -88 63 -138t156 -50q95 0 155 50t60 138q0 26 -5 51t-20 52.5t-38 48t-62.5 34t-91.5 13.5q-89 0 -153 -53t-64 -146zM319 434q0 -107 72.5 -175.5t181.5 -68.5
q106 0 176 68.5t70 173.5q0 99 -70 164.5t-178 65.5q-110 0 -181 -61.5t-71 -166.5z" />
    <glyph glyph-name="nine" unicode="9" horiz-adv-x="1138" 
d="M547 1462q140 0 246 -53.5t172 -152.5t98.5 -232.5t32.5 -300.5q0 -110 -19 -214.5t-62.5 -203t-107 -172t-160.5 -118t-215 -44.5q-189 0 -314 105.5t-150 292.5h276q15 -78 69 -128.5t124 -50.5q117 0 188 112t86 325l-4 4q-57 -82 -135.5 -121t-188.5 -39
q-58 0 -118 16.5t-118 53.5t-103 89.5t-73 132.5t-28 175q0 143 60 261.5t176.5 190.5t267.5 72zM334 961q0 -71 22.5 -130.5t73.5 -100t123 -40.5q111 0 171 75.5t60 190.5q0 110 -64 188.5t-167 78.5q-98 0 -158.5 -78.5t-60.5 -183.5z" />
    <glyph glyph-name="colon" unicode=":" horiz-adv-x="569" 
d="M125 1040h321v-315h-321v315zM125 315h321v-315h-321v315z" />
    <glyph glyph-name="semicolon" unicode=";" horiz-adv-x="569" 
d="M125 1040h321v-315h-321v315zM125 315h321v-317q0 -131 -89 -223.5t-230 -114.5v147q61 12 103 64t42 115v14h-147v315z" />
    <glyph glyph-name="less" unicode="&#x3c;" horiz-adv-x="1228" 
d="M1135 1053v-236l-752 -299l752 -299v-235l-1041 413v242z" />
    <glyph glyph-name="equal" unicode="=" horiz-adv-x="1228" 
d="M98 846h1035v-219h-1035v219zM98 408h1035v-220h-1035v220z" />
    <glyph glyph-name="greater" unicode="&#x3e;" horiz-adv-x="1228" 
d="M94 817v236l1041 -414v-242l-1041 -413v235l752 299z" />
    <glyph glyph-name="question" unicode="?" horiz-adv-x="1138" 
d="M563 1497q109 0 198 -25.5t145.5 -66.5t95.5 -94.5t55 -106t16 -104.5q0 -73 -15.5 -132t-45.5 -100t-55 -65t-62 -51l-68 -50q-127 -91 -127 -204v-60h-276v60q0 118 44 201.5t138 156.5q46 36 65 53t42.5 44.5t31 55t7.5 64.5q0 90 -44.5 137t-129.5 47
q-100 0 -155.5 -71.5t-55.5 -194.5h-301q5 226 141.5 366t355.5 140zM395 315h322v-315h-322v315z" />
    <glyph glyph-name="at" unicode="@" horiz-adv-x="1638" 
d="M852 1497q139 0 268.5 -45.5t228 -125.5t157.5 -198.5t59 -255.5q0 -118 -37.5 -220.5t-93.5 -169t-123.5 -114t-126.5 -68.5t-103 -21q-61 0 -102 31.5t-45 84.5h-4q-73 -119 -221 -119q-130 0 -226 104t-96 249q0 75 19.5 149.5t58.5 141t92 118t125 81.5t152 30
q79 0 144 -37t95 -106l33 110h168l-125 -512q-21 -82 -21 -104q0 -47 35 -47q92 0 167 108.5t75 267.5q0 231 -153 367.5t-402 136.5q-172 0 -304.5 -79t-204 -216.5t-71.5 -310.5q0 -264 167.5 -431t436.5 -167q127 0 244.5 44.5t196.5 123.5h172q-108 -163 -271.5 -247.5
t-353.5 -84.5q-161 0 -306.5 59t-251.5 160t-168 244t-62 303q0 159 62 301.5t167 244t248.5 161t300.5 59.5zM596 653q0 -80 43 -131t117 -51q104 0 178 97t74 212q0 72 -45 123t-115 51q-67 0 -126 -44.5t-92.5 -114t-33.5 -142.5z" />
    <glyph glyph-name="A" unicode="A" horiz-adv-x="1402" 
d="M541 1462h329l547 -1462h-334l-110 326h-547l-115 -326h-325zM705 1102h-5l-190 -537h379z" />
    <glyph glyph-name="B" unicode="B" horiz-adv-x="1441" 
d="M141 1462h690q229 0 347 -87.5t118 -272.5q0 -210 -198 -307q132 -37 200 -134t68 -237q0 -106 -42 -188.5t-114.5 -133t-164 -76.5t-195.5 -26h-709v1462zM463 870h328q91 0 142.5 43.5t51.5 130.5q0 168 -217 168h-305v-342zM463 250h346q235 0 235 192
q0 104 -59 156.5t-170 52.5h-352v-401z" />
    <glyph glyph-name="C" unicode="C" 
d="M797 1497q165 0 300.5 -62t223.5 -182.5t106 -281.5h-311q-17 108 -108.5 182t-210.5 74q-192 0 -295 -137t-103 -365q0 -140 42.5 -248.5t134 -174.5t221.5 -66q138 0 224.5 85t106.5 242h312q-25 -276 -199 -437t-444 -161q-164 0 -300 58.5t-227.5 161t-141.5 241.5
t-50 299q0 162 49.5 303t139.5 245t227 164t303 60z" />
    <glyph glyph-name="D" unicode="D" 
d="M141 1462h627q308 0 488 -190.5t180 -532.5q0 -345 -176 -542t-484 -197h-635v1462zM463 270h285q78 0 142.5 25t115.5 76.5t79.5 138t28.5 201.5q0 253 -107 367t-315 114h-229v-922z" />
    <glyph glyph-name="E" unicode="E" horiz-adv-x="1327" 
d="M141 1462h1094v-270h-772v-313h708v-250h-708v-359h788v-270h-1110v1462z" />
    <glyph glyph-name="F" unicode="F" horiz-adv-x="1214" 
d="M141 1462h1028v-270h-706v-338h612v-250h-612v-604h-322v1462z" />
    <glyph glyph-name="G" unicode="G" horiz-adv-x="1554" 
d="M797 1497q157 0 291.5 -61.5t222.5 -180.5t102 -274h-307q-29 121 -109.5 183.5t-199.5 62.5q-129 0 -220.5 -66.5t-134.5 -178t-43 -257.5q0 -99 23.5 -185t70 -155t124.5 -109t180 -40q155 0 244 79t104 236h-324v240h615v-791h-205l-33 166q-156 -201 -401 -201
q-164 0 -300 59t-227.5 161.5t-141.5 241.5t-50 298q0 163 49.5 304t139.5 245t227 163.5t303 59.5z" />
    <glyph glyph-name="H" unicode="H" 
d="M141 1462h322v-561h592v561h321v-1462h-321v631h-592v-631h-322v1462z" />
    <glyph glyph-name="I" unicode="I" horiz-adv-x="604" 
d="M141 1462h322v-1462h-322v1462z" />
    <glyph glyph-name="J" unicode="J" horiz-adv-x="1138" 
d="M676 1462h321v-1003q0 -241 -121.5 -367.5t-361.5 -126.5q-222 0 -353.5 122t-131.5 327v131h290v-72q0 -126 46 -181.5t141 -55.5q39 0 68 8.5t47 26t29.5 36.5t17 48t7 52t1.5 56v999z" />
    <glyph glyph-name="K" unicode="K" horiz-adv-x="1478" 
d="M141 1462h322v-606l571 606h402l-572 -577l627 -885h-404l-440 657l-184 -186v-471h-322v1462z" />
    <glyph glyph-name="L" unicode="L" horiz-adv-x="1214" 
d="M141 1462h322v-1192h713v-270h-1035v1462z" />
    <glyph glyph-name="M" unicode="M" horiz-adv-x="1857" 
d="M141 1462h453l342 -1005h4l324 1005h452v-1462h-301v1036h-4l-358 -1036h-248l-359 1026h-4v-1026h-301v1462z" />
    <glyph glyph-name="N" unicode="N" 
d="M141 1462h320l610 -981h4v981h301v-1462h-321l-609 979h-4v-979h-301v1462z" />
    <glyph glyph-name="O" unicode="O" horiz-adv-x="1593" 
d="M797 1497q216 0 381 -101t251.5 -275.5t86.5 -395.5q0 -159 -50 -298t-141.5 -241.5t-227.5 -161.5t-300 -59t-300 59t-227.5 161.5t-141.5 241.5t-50 298q0 218 85 392t250 277t384 103zM399 725q0 -139 42.5 -247.5t134 -175t221.5 -66.5q99 0 176.5 38.5t124.5 106.5
t71.5 155t24.5 189q0 107 -24.5 197t-72 159t-125 107.5t-177.5 38.5q-130 0 -221 -67.5t-133 -178.5t-42 -256z" />
    <glyph glyph-name="P" unicode="P" horiz-adv-x="1366" 
d="M141 1462h662q125 0 222.5 -36.5t158.5 -101t92 -148.5t31 -183q0 -100 -31.5 -184.5t-93 -148.5t-158 -100t-219.5 -36h-342v-524h-322v1462zM463 774h256q140 0 208 52t68 167q0 113 -66.5 166t-207.5 53h-258v-438z" />
    <glyph glyph-name="Q" unicode="Q" horiz-adv-x="1593" 
d="M797 1497q162 0 297 -57.5t227.5 -159.5t143.5 -245t51 -310q0 -321 -191 -539l182 -166l-149 -157l-207 188q-150 -86 -354 -86q-165 0 -302 59.5t-227.5 163t-140 241.5t-49.5 296q0 163 49.5 304t139.5 245t227 163.5t303 59.5zM399 725q0 -70 12 -136t41 -131.5
t73 -113.5t114.5 -78t159.5 -30q56 0 83.5 3.5t43.5 16.5l-138 125l150 160l166 -152q90 121 90 336q0 228 -103 365t-296 137q-128 0 -218.5 -66t-134 -177.5t-43.5 -258.5z" />
    <glyph glyph-name="R" unicode="R" horiz-adv-x="1478" 
d="M141 1462h789q190 0 309 -115.5t119 -287.5q0 -275 -232 -367v-4q33 -9 61 -25.5t48.5 -34t36.5 -45t26.5 -48t19 -55.5t12.5 -54t7 -57t3.5 -51.5t2.5 -49.5q5 -106 18 -168t40 -100h-322q-26 64 -41 254q-5 68 -12.5 112.5t-24.5 87t-43.5 66t-69 37.5t-102.5 14h-323
v-571h-322v1462zM463 801h354q106 0 162.5 49t56.5 160q0 106 -56 154t-165 48h-352v-411z" />
    <glyph glyph-name="S" unicode="S" horiz-adv-x="1329" 
d="M645 1497q121 0 224.5 -27.5t185.5 -83t129 -147.5t47 -213h-311q-8 112 -77 166.5t-210 54.5q-96 0 -159.5 -42t-63.5 -124q0 -28 5 -46.5t24 -36.5t41 -30t73.5 -29t102 -30.5t143.5 -36.5q45 -11 74 -19t73.5 -22.5t74 -28t67.5 -34t63 -42.5t51.5 -53t42 -65.5
t25.5 -79t10 -94.5q0 -211 -161 -340t-447 -129q-95 0 -183.5 18t-169 58t-140 98t-95 144.5t-35.5 191.5v10h311q0 -74 28.5 -129t76.5 -84.5t102 -43t115 -13.5q58 0 107.5 10t90.5 31t65 57t24 84q0 69 -59 115t-193 80q-35 9 -98.5 25t-110 28.5t-88.5 26.5
q-165 55 -243.5 150t-78.5 235q0 86 31 159t84 124t123.5 87t148.5 53t160 17z" />
    <glyph glyph-name="T" unicode="T" horiz-adv-x="1251" 
d="M27 1462h1198v-270h-439v-1192h-321v1192h-438v270z" />
    <glyph glyph-name="U" unicode="U" 
d="M135 1462h322v-915q0 -161 73 -236t228 -75q166 0 234.5 73.5t68.5 237.5v915h321v-915q0 -278 -159 -430t-465 -152q-312 0 -467.5 151t-155.5 431v915z" />
    <glyph glyph-name="V" unicode="V" horiz-adv-x="1290" 
d="M-16 1462h331l326 -1028h4l330 1028h332l-486 -1462h-362z" />
    <glyph glyph-name="W" unicode="W" horiz-adv-x="1933" 
d="M6 1462h322l231 -995h4l254 995h301l250 -1007h4l240 1007h315l-393 -1462h-320l-247 995h-4l-244 -995h-326z" />
    <glyph glyph-name="X" unicode="X" horiz-adv-x="1366" 
d="M29 1462h372l287 -467l297 467h352l-469 -698l510 -764h-383l-319 506l-326 -506h-362l512 766z" />
    <glyph glyph-name="Y" unicode="Y" horiz-adv-x="1366" 
d="M-18 1462h362l342 -577l340 577h358l-542 -901v-561h-322v569z" />
    <glyph glyph-name="Z" unicode="Z" horiz-adv-x="1327" 
d="M109 1462h1151v-254l-785 -938h805v-270h-1233v254l784 938h-722v270z" />
    <glyph glyph-name="bracketleft" unicode="[" horiz-adv-x="681" 
d="M139 1497h541v-229h-250v-1411h250v-230h-541v1870z" />
    <glyph glyph-name="backslash" unicode="\" horiz-adv-x="759" 
d="M-23 1497h234l571 -1532h-233z" />
    <glyph glyph-name="bracketright" unicode="]" horiz-adv-x="681" 
d="M2 1497h541v-1870h-541v230h250v1411h-250v229z" />
    <glyph glyph-name="asciicircum" unicode="^" horiz-adv-x="1228" 
d="M477 1434h275l352 -789h-240l-250 563l-249 -563h-240z" />
    <glyph glyph-name="underscore" unicode="_" horiz-adv-x="1024" 
d="M0 -154h1024v-102h-1024v102z" />
    <glyph glyph-name="grave" unicode="`" horiz-adv-x="530" 
d="M-98 1497h321l197 -291h-203z" />
    <glyph glyph-name="a" unicode="a" horiz-adv-x="1175" 
d="M598 1087q231 0 347 -76.5t116 -224.5v-561q0 -166 37 -225h-295q-19 62 -21 102q-125 -131 -356 -131q-166 0 -263 83.5t-97 234.5q0 145 92 225q51 43 131 68.5t211 38.5q155 16 212.5 40.5t57.5 90.5q0 44 -14.5 73t-42.5 43t-58 19.5t-71 5.5q-92 0 -140 -38.5
t-55 -121.5h-291q9 171 141.5 262.5t358.5 91.5zM356 301q0 -135 179 -135q116 0 175.5 61t59.5 179v112q-37 -34 -176 -51q-123 -15 -180.5 -50t-57.5 -116z" />
    <glyph glyph-name="b" unicode="b" horiz-adv-x="1251" 
d="M111 1462h290v-532h5q48 73 135 115t198 42q65 0 127.5 -20.5t119 -65t99 -108.5t68 -157.5t25.5 -205.5q0 -135 -36.5 -243.5t-98.5 -176t-140.5 -103.5t-165.5 -36q-258 0 -346 164h-4v-135h-276v1462zM391 528q0 -151 65.5 -244.5t182.5 -93.5q118 0 183 95t65 243
q0 149 -64 244.5t-186 95.5q-117 0 -181.5 -94.5t-64.5 -245.5z" />
    <glyph glyph-name="c" unicode="c" horiz-adv-x="1175" 
d="M618 1087q136 0 245.5 -46.5t177.5 -138.5t75 -216h-285q-27 182 -215 182q-84 0 -141.5 -51.5t-81.5 -126.5t-24 -166q0 -67 14 -126t42.5 -106t75.5 -74.5t109 -27.5q97 0 157 55.5t75 160.5h280q-29 -208 -163 -321.5t-347 -113.5q-161 0 -283.5 72t-186.5 194.5
t-64 276.5q0 257 145.5 415t394.5 158z" />
    <glyph glyph-name="d" unicode="d" horiz-adv-x="1251" 
d="M852 1462h291v-1462h-277v135h-4q-95 -164 -321 -164q-115 0 -206.5 46t-149.5 125.5t-88.5 180.5t-30.5 216q0 88 19 169.5t58.5 150.5t94.5 119.5t131.5 79.5t165.5 29q98 0 182.5 -41t130.5 -116h4v532zM356 530q0 -88 26 -163t85.5 -126t144.5 -51q123 0 186.5 90
t63.5 252q0 153 -62 244.5t-190 91.5q-122 0 -188 -90.5t-66 -247.5z" />
    <glyph glyph-name="e" unicode="e" horiz-adv-x="1175" 
d="M600 1087q122 0 221 -45.5t163 -124.5t98 -183t34 -222l-2 -53h-764q6 -136 69.5 -202.5t188.5 -66.5q82 0 148 40.5t84 97.5h256q-116 -357 -496 -357q-249 0 -395 154.5t-146 402.5q0 241 152 400t389 159zM350 643h473q-22 120 -76.5 172.5t-156.5 52.5
q-105 0 -168 -60t-72 -165z" />
    <glyph glyph-name="f" unicode="f" horiz-adv-x="681" 
d="M465 0h-291v864h-174v195h174v78q0 161 95.5 243t258.5 82q39 0 154 -8v-217q-55 6 -104 6q-63 0 -88 -27.5t-25 -95.5v-61h201v-195h-201v-864z" />
    <glyph glyph-name="g" unicode="g" horiz-adv-x="1251" 
d="M532 1087q113 0 189.5 -41.5t126.5 -127.5h4v141h276v-993q0 -217 -134 -342t-412 -125q-192 0 -326 92t-143 248h288q36 -146 217 -146q112 0 173 67t61 189v146h-4q-43 -77 -127 -120.5t-191 -43.5q-221 0 -336.5 145.5t-115.5 386.5q0 82 18.5 158.5t56 143t91 116
t127.5 78t161 28.5zM369 567q0 -140 58 -228.5t177 -88.5q115 0 181.5 83t66.5 212q0 61 -11 113.5t-36.5 102t-77.5 78.5t-125 29q-110 0 -171.5 -83.5t-61.5 -217.5z" />
    <glyph glyph-name="h" unicode="h" horiz-adv-x="1214" 
d="M111 1462h290v-551h7q49 82 133 129t178 47q201 0 293 -102.5t92 -322.5v-662h-291v602q0 132 -43.5 194t-142.5 62q-126 0 -176 -76.5t-50 -226.5v-555h-290v1462z" />
    <glyph glyph-name="i" unicode="i" horiz-adv-x="528" 
d="M119 1462h291v-239h-291v239zM119 1059h291v-1059h-291v1059z" />
    <glyph glyph-name="j" unicode="j" horiz-adv-x="569" 
d="M137 1462h291v-239h-291v239zM137 1059h291v-1118q0 -169 -84 -241.5t-287 -72.5q-52 0 -96 8v240q21 -8 66 -8q62 0 86 24.5t24 71.5v1096z" />
    <glyph glyph-name="k" unicode="k" horiz-adv-x="1175" 
d="M137 1462h291v-784l367 381h344l-400 -389l445 -670h-353l-290 473l-113 -108v-365h-291v1462z" />
    <glyph glyph-name="l" unicode="l" horiz-adv-x="528" 
d="M119 1462h291v-1462h-291v1462z" />
    <glyph glyph-name="m" unicode="m" horiz-adv-x="1855" 
d="M721 1087q231 0 309 -176q59 85 142 130.5t180 45.5q192 0 288.5 -98.5t96.5 -277.5v-711h-291v612q0 47 -3 79.5t-14 66.5t-30 54t-52 33t-79 13q-195 0 -195 -266v-592h-291v625q0 58 -6 95.5t-23.5 71.5t-53.5 50t-93 16q-29 0 -60 -11t-63 -36t-52.5 -75.5
t-20.5 -119.5v-616h-291v1059h274v-144h4q121 172 324 172z" />
    <glyph glyph-name="n" unicode="n" horiz-adv-x="1214" 
d="M719 1087q201 0 293 -102.5t92 -325.5v-659h-291v600q0 133 -43.5 195.5t-142.5 62.5q-66 0 -111 -21t-69.5 -63t-35 -95t-10.5 -128v-551h-290v1059h276v-148h6q52 84 137.5 130t188.5 46z" />
    <glyph glyph-name="o" unicode="o" horiz-adv-x="1251" 
d="M625 1087q251 0 400 -153t149 -406q0 -254 -151 -405.5t-398 -151.5q-249 0 -398 152.5t-149 404.5q0 254 149 406.5t398 152.5zM369 528q0 -162 66 -250t190 -88q127 0 192.5 89t65.5 249q0 69 -13 126.5t-41.5 107.5t-81 78t-124.5 28q-122 0 -188 -88.5t-66 -251.5z
" />
    <glyph glyph-name="p" unicode="p" horiz-adv-x="1251" 
d="M707 1087q156 0 266.5 -77.5t162.5 -204t52 -287.5q0 -149 -51.5 -271t-159 -199t-254.5 -77q-98 0 -181.5 42t-135.5 118h-5v-504h-290v1432h276v-135h4q103 163 316 163zM391 526q0 -151 64 -243.5t190 -92.5q128 0 190 92.5t62 243.5q0 51 -7.5 98t-26.5 92
t-47.5 78.5t-73.5 53.5t-101 20q-119 0 -184.5 -90t-65.5 -252z" />
    <glyph glyph-name="q" unicode="q" horiz-adv-x="1251" 
d="M541 1087q110 0 193.5 -42t127.5 -121h4v135h277v-1432h-291v506h-4q-46 -78 -135 -120t-199 -42q-61 0 -121.5 17.5t-120 59.5t-105 103t-73.5 156.5t-28 212.5q0 114 30.5 215t88 180.5t149.5 125.5t207 46zM356 528q0 -153 63 -245.5t189 -92.5q128 0 191 92.5
t63 241.5q0 64 -13 122t-41 109.5t-78.5 82t-117.5 30.5q-126 0 -191 -94.5t-65 -245.5z" />
    <glyph glyph-name="r" unicode="r" horiz-adv-x="796" 
d="M729 1087q29 0 64 -10v-270q-48 10 -105 10q-150 0 -218.5 -91.5t-68.5 -248.5v-477h-290v1059h276v-197h4q41 100 135 162.5t203 62.5z" />
    <glyph glyph-name="s" unicode="s" horiz-adv-x="1099" 
d="M545 1087q215 0 334 -86.5t133 -250.5h-277q-11 143 -198 143q-162 0 -162 -98q0 -50 51.5 -80.5t175.5 -55.5q156 -31 231.5 -59.5t124.5 -69.5q82 -73 82 -190q0 -98 -40 -171.5t-109.5 -115.5t-153 -62t-180.5 -20q-224 0 -358 95.5t-140 277.5h277q0 -85 63.5 -131.5
t159.5 -46.5q80 0 135.5 35t55.5 100q0 57 -71 91t-249 71q-185 38 -265.5 104.5t-80.5 180.5q0 168 118.5 253.5t342.5 85.5z" />
    <glyph glyph-name="t" unicode="t" horiz-adv-x="720" 
d="M188 1376h291v-317h213v-195h-213v-524q0 -74 24.5 -98.5t98.5 -24.5q57 0 90 8v-227q-61 -10 -172 -10q-171 0 -251.5 59t-80.5 197v620h-176v195h176v317z" />
    <glyph glyph-name="u" unicode="u" horiz-adv-x="1214" 
d="M111 1059h290v-600q0 -129 42 -193.5t145 -64.5q119 0 172 71.5t53 229.5v557h291v-1059h-277v147h-6q-54 -87 -139.5 -131.5t-185.5 -44.5q-204 0 -294.5 104t-90.5 326v658z" />
    <glyph glyph-name="v" unicode="v" horiz-adv-x="1064" 
d="M10 1059h305l224 -723h4l223 723h289l-359 -1059h-323z" />
    <glyph glyph-name="w" unicode="w" horiz-adv-x="1667" 
d="M12 1059h307l195 -719h4l176 719h283l180 -717h4l195 717h299l-334 -1059h-299l-188 711h-5l-180 -711h-301z" />
    <glyph glyph-name="x" unicode="x" horiz-adv-x="1099" 
d="M33 1059h332l186 -277l184 277h322l-348 -496l391 -563h-332l-221 334l-221 -334h-326l381 557z" />
    <glyph glyph-name="y" unicode="y" horiz-adv-x="1062" 
d="M-12 1059h311l240 -725h4l231 725h301l-442 -1192q-46 -126 -130.5 -183t-230.5 -57q-70 0 -182 11v239q76 -10 154 -10q60 0 94.5 37t34.5 96q0 28 -13 66z" />
    <glyph glyph-name="z" unicode="z" horiz-adv-x="1062" 
d="M86 1059h893v-219l-551 -621h590v-219h-973v219l551 621h-510v219z" />
    <glyph glyph-name="braceleft" unicode="{" horiz-adv-x="681" 
d="M682 1497v-229h-111q-110 0 -110 -146v-313q0 -109 -53 -171t-150 -73v-6q87 -11 145 -69.5t58 -153.5v-334q0 -75 28 -110t84 -35h109v-230h-254q-60 0 -118 32t-99 96.5t-41 146.5v401q0 80 -59 124t-129 46v178q79 3 133.5 53t54.5 127v392q0 118 80.5 196t179.5 78
h252z" />
    <glyph glyph-name="bar" unicode="|" horiz-adv-x="456" 
d="M119 1610h219v-2048h-219v2048z" />
    <glyph glyph-name="braceright" unicode="}" horiz-adv-x="681" 
d="M0 1497h258q38 0 80.5 -17.5t82 -50.5t65.5 -88t26 -122v-385q0 -81 54 -130.5t134 -52.5v-178q-84 -4 -136 -51.5t-52 -114.5v-405q0 -63 -25.5 -117.5t-64.5 -87.5t-82 -51.5t-82 -18.5h-258v230h111q110 0 110 147v330q0 100 59 157.5t144 67.5v6q-101 10 -152 75
t-51 163v319q0 146 -110 146h-111v229z" />
    <glyph glyph-name="asciitilde" unicode="~" horiz-adv-x="1228" 
d="M1010 705l82 -191q-62 -91 -121.5 -133.5t-134.5 -42.5q-49 0 -100 16.5t-126 53.5q-141 69 -219 69q-106 0 -172 -147l-82 190q93 176 256 176q53 0 109.5 -19t144.5 -59q131 -61 182 -61q48 0 89 34.5t92 113.5z" />
    <glyph glyph-name="uni00A0" unicode="&#xa0;" horiz-adv-x="569" 
 />
    <glyph glyph-name="exclamdown" unicode="&#xa1;" horiz-adv-x="569" 
d="M125 1087h321v-315h-321v315zM213 649h145l78 -631v-393h-303v393z" />
    <glyph glyph-name="cent" unicode="&#xa2;" horiz-adv-x="1138" 
d="M532 1087v175h121v-175q81 0 160 -27.5t144.5 -77t108 -127.5t46.5 -171h-285q-6 73 -55 125.5t-119 58.5v-678q75 13 126.5 80.5t51.5 145.5h285q-17 -190 -141.5 -308t-321.5 -137v-207h-121v207q-217 12 -353 165.5t-136 375.5q0 240 129 397.5t360 177.5zM334 541
q0 -138 51.5 -229t146.5 -122v676q-95 -25 -146.5 -110.5t-51.5 -214.5z" />
    <glyph glyph-name="sterling" unicode="&#xa3;" horiz-adv-x="1138" 
d="M604 1497q237 0 368 -131t132 -381h-277q-12 272 -223 272q-90 0 -145.5 -50.5t-55.5 -139.5q0 -65 16.5 -115t67.5 -145h273v-174h-215q16 -49 16 -125q0 -85 -41.5 -153.5t-126.5 -135.5l4 -4q42 26 71.5 36.5t68.5 10.5q60 0 159 -22q3 -1 30 -7t41 -9t41.5 -6
t51.5 -3q55 0 94.5 20t83.5 68l123 -207q-134 -131 -321 -131q-130 0 -228 39t-196 39q-139 0 -236 -78l-127 191q114 72 173 160.5t59 179.5q0 54 -39 137h-203v174h131q-40 52 -66 128t-26 155q0 178 141.5 292.5t380.5 114.5z" />
    <glyph glyph-name="currency" unicode="&#xa4;" horiz-adv-x="1138" 
d="M854 1133l119 116l125 -125l-115 -112q45 -50 68.5 -129.5t23.5 -163.5q0 -186 -94 -299l113 -115l-113 -112l-117 118q-48 -47 -125.5 -74.5t-167.5 -27.5q-192 0 -301 100l-114 -119l-115 115l117 119q-99 117 -99 291q0 196 99 295l-117 118l117 117l116 -115
q51 43 133 69t166 26q74 0 151 -23.5t130 -68.5zM313 715q0 -121 69 -204t189 -83q116 0 183 83t67 208q0 72 -25 135.5t-84 107.5t-141 44q-117 0 -187.5 -82t-70.5 -209z" />
    <glyph glyph-name="yen" unicode="&#xa5;" horiz-adv-x="1138" 
d="M-18 1462h333l271 -637l264 637h332l-318 -637h195v-194h-293l-31 -60v-94h324v-194h-324v-283h-311v283h-322v194h322v94l-29 60h-293v194h195z" />
    <glyph glyph-name="brokenbar" unicode="&#xa6;" horiz-adv-x="456" 
d="M119 1354h219v-512h-219v512zM119 330h219v-512h-219v512z" />
    <glyph glyph-name="section" unicode="&#xa7;" horiz-adv-x="1138" 
d="M580 1497q122 0 219 -45.5t155 -136t58 -213.5h-254q0 78 -48 127t-126 49q-61 0 -108.5 -37t-47.5 -92q0 -54 55 -103t199 -114q260 -115 346 -205q90 -97 90 -215q0 -104 -58.5 -184.5t-154.5 -114.5q113 -84 113 -242q0 -82 -38.5 -149t-101.5 -108.5t-139.5 -64
t-156.5 -22.5q-217 0 -339 103t-122 295h254q9 -179 200 -179q24 0 47.5 6t48.5 20t40.5 43.5t15.5 70.5q0 60 -57 108q-36 30 -90.5 59.5t-182.5 86.5q-209 93 -293 187t-84 212q0 105 56 182t164 115q-48 53 -68 100t-20 107q0 84 38 153t99.5 112t136.5 66t154 23z
M274 662q0 -67 70 -103l338 -184q54 -29 88 -29q39 0 66.5 38t27.5 75q0 79 -92 129l-356 200q-18 11 -33 11q-40 0 -74.5 -43t-34.5 -94z" />
    <glyph glyph-name="dieresis" unicode="&#xa8;" horiz-adv-x="530" 
d="M-84 1464h277v-239h-277v239zM338 1464h276v-239h-276v239z" />
    <glyph glyph-name="copyright" unicode="&#xa9;" horiz-adv-x="1638" 
d="M819 1497q156 0 298.5 -54.5t251 -152t173 -243t64.5 -316.5q0 -169 -64.5 -314t-172.5 -243t-251 -153.5t-299 -55.5t-298.5 55t-250.5 152.5t-172.5 243t-64.5 315.5t64.5 315.5t172.5 243t250.5 152.5t298.5 55zM242 731q0 -169 75.5 -307.5t207.5 -216.5t294 -78
q116 0 222 45t184.5 123t125 191t46.5 243q0 129 -46 242t-124 191.5t-185 123.5t-225 45t-224 -45.5t-183.5 -124t-122.5 -191t-45 -241.5zM844 1194q150 0 250.5 -85t119.5 -232h-159q-17 72 -74.5 112.5t-136.5 40.5q-113 0 -176.5 -79.5t-63.5 -211.5q0 -123 68 -209
t176 -86q84 0 139.5 41.5t67.5 118.5h166q-24 -149 -128 -236t-245 -87q-196 0 -318 129t-122 325q0 204 119.5 331.5t316.5 127.5z" />
    <glyph glyph-name="ordfeminine" unicode="&#xaa;" horiz-adv-x="704" 
d="M360 1462q308 0 308 -184v-344q0 -101 24 -148h-207q-12 40 -14 64q-76 -82 -221 -82q-108 0 -169 53t-61 152q0 50 20 87t43.5 56.5t72.5 34t76.5 18.5t86.5 10l27 3q33 4 51 7t38.5 10t29 19.5t8.5 30.5q0 47 -30 63.5t-91 16.5q-44 0 -71.5 -25t-30.5 -65h-209
q18 117 98 170t221 53zM229 977q0 -35 25.5 -55.5t69.5 -20.5q147 0 147 148v47q-25 -21 -98 -31q-75 -11 -109.5 -31t-34.5 -57z" />
    <glyph glyph-name="guillemotleft" unicode="&#xab;" horiz-adv-x="909" 
d="M86 696l322 252v-246l-185 -145l185 -147v-246l-322 256v276zM502 696l321 252v-246l-184 -145l184 -147v-246l-321 256v276z" />
    <glyph glyph-name="logicalnot" unicode="&#xac;" horiz-adv-x="1228" 
d="M82 831h1032v-628h-219v409h-813v219z" />
    <glyph glyph-name="uni00AD" unicode="&#xad;" horiz-adv-x="833" 
d="M109 684h616v-250h-616v250z" />
    <glyph glyph-name="registered" unicode="&#xae;" horiz-adv-x="1638" 
d="M819 1497q125 0 242 -34.5t215.5 -101.5t172.5 -158.5t115.5 -212.5t41.5 -257q0 -170 -64 -315.5t-172 -243.5t-251 -153.5t-300 -55.5q-156 0 -299 55.5t-251 153.5t-172 243.5t-64 315.5t64.5 315t173 242t251 152t297.5 55zM242 733q0 -169 75 -307.5t207.5 -217.5
t294.5 -79q118 0 224 45.5t184 124t124 192t46 242.5q0 166 -74.5 303.5t-208 217t-297.5 79.5q-118 0 -223.5 -45t-183 -123.5t-123 -190.5t-45.5 -241zM514 1163h328q169 0 250.5 -61.5t81.5 -192.5q0 -102 -57 -161t-169 -68l230 -375h-179l-208 367h-107v-367h-170v858z
M684 805h162q87 0 122.5 28t35.5 91q0 106 -175 106h-145v-225z" />
    <glyph glyph-name="macron" unicode="&#xaf;" horiz-adv-x="530" 
d="M-96 1421h723v-153h-723v153z" />
    <glyph glyph-name="degree" unicode="&#xb0;" horiz-adv-x="819" 
d="M410 1462q128 0 215.5 -88t87.5 -215q0 -128 -88 -215.5t-215 -87.5q-128 0 -216 88t-88 215t88 215t216 88zM240 1159q0 -73 51.5 -126.5t118.5 -53.5q68 0 119 54t51 126t-51 126t-119 54q-66 0 -118 -53t-52 -127z" />
    <glyph glyph-name="plusminus" unicode="&#xb1;" horiz-adv-x="1228" 
d="M506 1036h219v-268h408v-219h-408v-268h-219v268h-408v219h408v268zM98 219h1035v-219h-1035v219z" />
    <glyph glyph-name="twosuperior" unicode="&#xb2;" horiz-adv-x="798" 
d="M420 1698q147 0 229 -69t82 -191q0 -85 -45 -146q-19 -27 -54.5 -57t-64.5 -49t-87.5 -54t-82.5 -51q-88 -56 -94 -104h422v-164h-657v2q0 141 44 225t156 154l154 96q56 34 79 67.5t23 80.5q0 44 -29 73t-77 29q-125 0 -131 -156h-205q0 145 91.5 229.5t246.5 84.5z" />
    <glyph glyph-name="threesuperior" unicode="&#xb3;" horiz-adv-x="798" 
d="M406 1698q135 0 217 -62t82 -170q0 -63 -35.5 -110t-100.5 -70q82 -15 126 -71t44 -146q0 -124 -99.5 -199t-248.5 -75q-161 0 -248.5 77.5t-87.5 206.5h197q16 -123 145 -123q67 0 108.5 32.5t41.5 88.5q0 65 -37.5 94t-120.5 29h-57v141h53q59 0 95 27t36 74
t-31.5 73.5t-87.5 26.5q-127 0 -127 -135h-194q6 139 93.5 215t236.5 76z" />
    <glyph glyph-name="acute" unicode="&#xb4;" horiz-adv-x="530" 
d="M307 1497h322l-316 -291h-202z" />
    <glyph glyph-name="mu" unicode="&#xb5;" horiz-adv-x="1214" 
d="M111 1059h290v-598q0 -134 43 -197t144 -63q119 0 172 71.5t53 229.5v557h291v-1059h-277v147h-6q-118 -176 -266 -176q-91 0 -154 49v-393h-290v1432z" />
    <glyph glyph-name="paragraph" unicode="&#xb6;" horiz-adv-x="1269" 
d="M1096 1462v-1802h-209v1638h-225v-1638h-209v1071q-216 1 -332.5 97t-116.5 262q0 189 122 280.5t366 91.5h604z" />
    <glyph glyph-name="periodcentered" unicode="&#xb7;" horiz-adv-x="569" 
d="M287 762q70 0 121 -51.5t51 -122.5q0 -67 -51.5 -119.5t-118.5 -52.5q-71 0 -123.5 50.5t-52.5 121.5q0 72 52 123t122 51z" />
    <glyph glyph-name="cedilla" unicode="&#xb8;" horiz-adv-x="530" 
d="M115 -168l121 168h100l-80 -106l4 -5q38 15 82 15q80 0 128 -41.5t48 -116.5q0 -89 -66.5 -139.5t-191.5 -50.5q-111 0 -235 45l43 98q87 -37 161 -37q45 0 69 19t24 51q0 31 -24 49t-62 18q-37 0 -78 -16z" />
    <glyph glyph-name="onesuperior" unicode="&#xb9;" horiz-adv-x="798" 
d="M379 1679h172v-866h-209v549h-225v147h43q196 0 219 170z" />
    <glyph glyph-name="ordmasculine" unicode="&#xba;" horiz-adv-x="751" 
d="M375 1462q161 0 256.5 -94t95.5 -254q0 -159 -95 -252.5t-257 -93.5q-161 0 -255.5 93t-94.5 253q0 161 95 254.5t255 93.5zM244 1114q0 -78 34 -135t97 -57q66 0 99.5 58.5t33.5 133.5q0 78 -34 136.5t-99 58.5q-64 0 -97.5 -58.5t-33.5 -136.5z" />
    <glyph glyph-name="guillemotright" unicode="&#xbb;" horiz-adv-x="909" 
d="M86 948l322 -252v-276l-322 -256v246l184 147l-184 145v246zM502 702v246l321 -252v-276l-321 -256v246l184 147z" />
    <glyph glyph-name="onequarter" unicode="&#xbc;" horiz-adv-x="1708" 
d="M1315 866h186v-540h117v-156h-117v-170h-196v170h-385v172zM1305 641l-232 -315h232v315zM334 1440h172v-867h-209v549h-225v148h43q196 0 219 170zM1155 1479h174l-844 -1524h-178z" />
    <glyph glyph-name="onehalf" unicode="&#xbd;" horiz-adv-x="1708" 
d="M334 1440h172v-867h-209v549h-225v148h43q196 0 219 170zM1114 1479h174l-844 -1524h-178zM1315 885q147 0 229 -69t82 -191q0 -85 -45 -146q-19 -27 -54.5 -57t-64.5 -49t-87.5 -54t-82.5 -51q-88 -56 -94 -104h422v-164h-657v2q0 141 44 225t156 154l154 96
q56 34 79 67.5t23 80.5q0 44 -29 73t-77 29q-125 0 -131 -156h-205q0 145 91.5 229.5t246.5 84.5z" />
    <glyph glyph-name="threequarters" unicode="&#xbe;" horiz-adv-x="1708" 
d="M1376 866h187v-540h116v-156h-116v-170h-197v170h-385v172zM1366 641l-231 -315h231v315zM426 1458q135 0 217 -62t82 -169q0 -63 -35 -110t-100 -70q82 -15 126 -71t44 -147q0 -124 -99.5 -199t-248.5 -75q-161 0 -248.5 78t-87.5 207h196q16 -123 146 -123
q67 0 108 32.5t41 88.5q0 65 -37 94t-120 29h-58v141h54q59 0 95 26.5t36 73.5t-31.5 74t-87.5 27q-127 0 -127 -136h-195q6 139 93.5 215t236.5 76zM1300 1479h175l-844 -1524h-178z" />
    <glyph glyph-name="questiondown" unicode="&#xbf;" horiz-adv-x="1138" 
d="M422 1087h321v-315h-321v315zM438 657h277v-51q0 -128 -46 -213t-147 -162q-78 -60 -106.5 -102t-28.5 -104q0 -98 47.5 -142.5t126.5 -44.5q99 0 153 74t54 192h301q-6 -229 -143 -367t-353 -138q-108 0 -196.5 25.5t-144.5 66t-95 94t-55 106.5t-16 105q0 117 41 198.5
t137 149.5q82 60 111 85t51 58q32 53 32 111v59z" />
    <glyph glyph-name="Agrave" unicode="&#xc0;" horiz-adv-x="1402" 
d="M541 1462h329l547 -1462h-334l-110 326h-547l-115 -326h-325zM705 1102h-5l-190 -537h379zM324 1886h321l197 -291h-203z" />
    <glyph glyph-name="Aacute" unicode="&#xc1;" horiz-adv-x="1402" 
d="M541 1462h329l547 -1462h-334l-110 326h-547l-115 -326h-325zM705 1102h-5l-190 -537h379zM760 1886h321l-315 -291h-203z" />
    <glyph glyph-name="Acircumflex" unicode="&#xc2;" horiz-adv-x="1402" 
d="M541 1462h329l547 -1462h-334l-110 326h-547l-115 -326h-325zM705 1102h-5l-190 -537h379zM573 1886h267l225 -291h-236l-127 166l-131 -166h-225z" />
    <glyph glyph-name="Atilde" unicode="&#xc3;" horiz-adv-x="1402" 
d="M541 1462h329l547 -1462h-334l-110 326h-547l-115 -326h-325zM705 1102h-5l-190 -537h379zM567 1866q61 0 164 -39q87 -33 129 -33q36 0 57 16.5t31 55.5h131q-24 -122 -81 -178t-148 -56q-64 0 -158 33q-98 37 -143 37q-69 0 -92 -86h-129q13 105 78 177.5t161 72.5z
" />
    <glyph glyph-name="Adieresis" unicode="&#xc4;" horiz-adv-x="1402" 
d="M541 1462h329l547 -1462h-334l-110 326h-547l-115 -326h-325zM705 1102h-5l-190 -537h379zM354 1853h277v-239h-277v239zM776 1853h277v-239h-277v239z" />
    <glyph glyph-name="Aring" unicode="&#xc5;" horiz-adv-x="1402" 
d="M541 1462h329l547 -1462h-334l-110 326h-547l-115 -326h-325zM705 1102h-5l-190 -537h379zM705 1993q103 0 171 -68t68 -166q0 -97 -69 -165t-170 -68t-170.5 66.5t-69.5 166.5q0 98 70 166t170 68zM580 1759q0 -57 35 -93t90 -36q56 0 90 35.5t34 93.5q0 52 -32.5 90.5
t-94.5 38.5q-53 0 -87.5 -34.5t-34.5 -94.5z" />
    <glyph glyph-name="AE" unicode="&#xc6;" horiz-adv-x="2009" 
d="M676 1462h1241v-270h-680v-313h639v-250h-639v-359h696v-270h-1007v326h-459l-148 -326h-342zM926 1192h-70l-283 -627h353v627z" />
    <glyph glyph-name="Ccedilla" unicode="&#xc7;" 
d="M797 1497q165 0 300.5 -62t223.5 -182.5t106 -281.5h-311q-18 113 -110.5 184.5t-208.5 71.5q-100 0 -177.5 -39.5t-125 -108.5t-71.5 -158.5t-24 -195.5q0 -138 41.5 -246t133.5 -175.5t223 -67.5q138 0 224.5 85t106.5 242h312q-25 -274 -198.5 -435t-442.5 -163
l-54 -71l5 -5q34 15 81 15q81 0 129 -42t48 -116q0 -91 -67 -140.5t-189 -49.5q-118 0 -238 45l43 98q87 -37 162 -37q44 0 68 19t24 51q0 31 -23.5 49t-62.5 18q-35 0 -78 -16l-43 49l98 139q-190 20 -332.5 123.5t-217 267t-74.5 363.5q0 129 30.5 245.5t91.5 212.5
t147 166t201 109t249 39z" />
    <glyph glyph-name="Egrave" unicode="&#xc8;" horiz-adv-x="1327" 
d="M141 1462h1094v-270h-772v-313h708v-250h-708v-359h788v-270h-1110v1462zM281 1886h321l197 -291h-203z" />
    <glyph glyph-name="Eacute" unicode="&#xc9;" horiz-adv-x="1327" 
d="M141 1462h1094v-270h-772v-313h708v-250h-708v-359h788v-270h-1110v1462zM756 1886h321l-315 -291h-203z" />
    <glyph glyph-name="Ecircumflex" unicode="&#xca;" horiz-adv-x="1327" 
d="M141 1462h1094v-270h-772v-313h708v-250h-708v-359h788v-270h-1110v1462zM549 1886h266l225 -291h-235l-127 166l-131 -166h-225z" />
    <glyph glyph-name="Edieresis" unicode="&#xcb;" horiz-adv-x="1327" 
d="M141 1462h1094v-270h-772v-313h708v-250h-708v-359h788v-270h-1110v1462zM330 1853h276v-239h-276v239zM752 1853h276v-239h-276v239z" />
    <glyph glyph-name="Igrave" unicode="&#xcc;" horiz-adv-x="604" 
d="M141 1462h322v-1462h-322v1462zM-74 1886h322l196 -291h-202z" />
    <glyph glyph-name="Iacute" unicode="&#xcd;" horiz-adv-x="604" 
d="M141 1462h322v-1462h-322v1462zM350 1886h322l-316 -291h-202z" />
    <glyph glyph-name="Icircumflex" unicode="&#xce;" horiz-adv-x="604" 
d="M141 1462h322v-1462h-322v1462zM170 1886h266l226 -291h-236l-127 166l-131 -166h-225z" />
    <glyph glyph-name="Idieresis" unicode="&#xcf;" horiz-adv-x="604" 
d="M141 1462h322v-1462h-322v1462zM-49 1853h276v-239h-276v239zM373 1853h276v-239h-276v239z" />
    <glyph glyph-name="Eth" unicode="&#xd0;" 
d="M141 1462h627q313 0 490.5 -193t177.5 -530q0 -342 -175 -540.5t-485 -198.5h-635v655h-149v201h149v606zM463 856h328v-201h-328v-385h287q75 0 138.5 24.5t115 75.5t81 138t29.5 203q0 258 -108.5 369.5t-315.5 111.5h-227v-336z" />
    <glyph glyph-name="Ntilde" unicode="&#xd1;" 
d="M141 1462h320l610 -981h4v981h301v-1462h-321l-609 979h-4v-979h-301v1462zM612 1866q61 0 164 -39q87 -33 129 -33q36 0 57 16.5t31 55.5h131q-24 -122 -81 -178t-148 -56q-64 0 -158 33q-98 37 -143 37q-69 0 -92 -86h-129q13 105 78 177.5t161 72.5z" />
    <glyph glyph-name="Ograve" unicode="&#xd2;" horiz-adv-x="1593" 
d="M797 1497q216 0 381 -101t251.5 -275.5t86.5 -395.5q0 -159 -50 -298t-141.5 -241.5t-227.5 -161.5t-300 -59t-300 59t-227.5 161.5t-141.5 241.5t-50 298q0 218 85 392t250 277t384 103zM399 725q0 -139 42.5 -247.5t134 -175t221.5 -66.5q99 0 176.5 38.5t124.5 106.5
t71.5 155t24.5 189q0 107 -24.5 197t-72 159t-125 107.5t-177.5 38.5q-130 0 -221 -67.5t-133 -178.5t-42 -256zM397 1886h322l196 -291h-202z" />
    <glyph glyph-name="Oacute" unicode="&#xd3;" horiz-adv-x="1593" 
d="M797 1497q216 0 381 -101t251.5 -275.5t86.5 -395.5q0 -159 -50 -298t-141.5 -241.5t-227.5 -161.5t-300 -59t-300 59t-227.5 161.5t-141.5 241.5t-50 298q0 218 85 392t250 277t384 103zM399 725q0 -139 42.5 -247.5t134 -175t221.5 -66.5q99 0 176.5 38.5t124.5 106.5
t71.5 155t24.5 189q0 107 -24.5 197t-72 159t-125 107.5t-177.5 38.5q-130 0 -221 -67.5t-133 -178.5t-42 -256zM874 1886h322l-315 -291h-203z" />
    <glyph glyph-name="Ocircumflex" unicode="&#xd4;" horiz-adv-x="1593" 
d="M797 1497q216 0 381 -101t251.5 -275.5t86.5 -395.5q0 -159 -50 -298t-141.5 -241.5t-227.5 -161.5t-300 -59t-300 59t-227.5 161.5t-141.5 241.5t-50 298q0 218 85 392t250 277t384 103zM399 725q0 -139 42.5 -247.5t134 -175t221.5 -66.5q99 0 176.5 38.5t124.5 106.5
t71.5 155t24.5 189q0 107 -24.5 197t-72 159t-125 107.5t-177.5 38.5q-130 0 -221 -67.5t-133 -178.5t-42 -256zM668 1886h266l225 -291h-235l-127 166l-131 -166h-226z" />
    <glyph glyph-name="Otilde" unicode="&#xd5;" horiz-adv-x="1593" 
d="M797 1497q216 0 381 -101t251.5 -275.5t86.5 -395.5q0 -159 -50 -298t-141.5 -241.5t-227.5 -161.5t-300 -59t-300 59t-227.5 161.5t-141.5 241.5t-50 298q0 218 85 392t250 277t384 103zM399 725q0 -139 42.5 -247.5t134 -175t221.5 -66.5q99 0 176.5 38.5t124.5 106.5
t71.5 155t24.5 189q0 107 -24.5 197t-72 159t-125 107.5t-177.5 38.5q-130 0 -221 -67.5t-133 -178.5t-42 -256zM662 1866q60 0 163 -39q87 -33 129 -33q36 0 57 16.5t31 55.5h132q-24 -122 -81.5 -178t-148.5 -56q-64 0 -158 33q-98 37 -143 37q-69 0 -92 -86h-129
q13 104 78.5 177t161.5 73z" />
    <glyph glyph-name="Odieresis" unicode="&#xd6;" horiz-adv-x="1593" 
d="M797 1497q216 0 381 -101t251.5 -275.5t86.5 -395.5q0 -159 -50 -298t-141.5 -241.5t-227.5 -161.5t-300 -59t-300 59t-227.5 161.5t-141.5 241.5t-50 298q0 218 85 392t250 277t384 103zM399 725q0 -139 42.5 -247.5t134 -175t221.5 -66.5q99 0 176.5 38.5t124.5 106.5
t71.5 155t24.5 189q0 107 -24.5 197t-72 159t-125 107.5t-177.5 38.5q-130 0 -221 -67.5t-133 -178.5t-42 -256zM449 1853h276v-239h-276v239zM870 1853h277v-239h-277v239z" />
    <glyph glyph-name="multiply" unicode="&#xd7;" horiz-adv-x="1228" 
d="M135 846l156 155l325 -327l328 327l156 -155l-330 -328l330 -328l-156 -155l-328 330l-329 -330l-156 155l330 328z" />
    <glyph glyph-name="Oslash" unicode="&#xd8;" horiz-adv-x="1593" 
d="M1421 1522l103 -90l-172 -191q164 -205 164 -516q0 -216 -87 -388t-252 -272t-380 -100q-270 0 -457 156l-170 -189l-100 88l176 195q-168 204 -168 510q0 162 49.5 303t139.5 245t227 164t303 60q276 0 460 -158zM399 725q0 -157 58 -276l606 673q-105 105 -268 105
q-130 0 -221 -67.5t-133 -178.5t-42 -256zM1139 1004l-604 -668q100 -100 262 -100q104 0 182.5 41t124 111.5t68 155t22.5 181.5q0 157 -55 279z" />
    <glyph glyph-name="Ugrave" unicode="&#xd9;" 
d="M135 1462h322v-915q0 -161 73 -236t228 -75q166 0 234.5 73.5t68.5 237.5v915h321v-915q0 -278 -159 -430t-465 -152q-312 0 -467.5 151t-155.5 431v915zM358 1886h322l197 -291h-203z" />
    <glyph glyph-name="Uacute" unicode="&#xda;" 
d="M135 1462h322v-915q0 -161 73 -236t228 -75q166 0 234.5 73.5t68.5 237.5v915h321v-915q0 -278 -159 -430t-465 -152q-312 0 -467.5 151t-155.5 431v915zM836 1886h321l-315 -291h-203z" />
    <glyph glyph-name="Ucircumflex" unicode="&#xdb;" 
d="M135 1462h322v-915q0 -161 73 -236t228 -75q166 0 234.5 73.5t68.5 237.5v915h321v-915q0 -278 -159 -430t-465 -152q-312 0 -467.5 151t-155.5 431v915zM629 1886h266l225 -291h-235l-127 166l-131 -166h-226z" />
    <glyph glyph-name="Udieresis" unicode="&#xdc;" 
d="M135 1462h322v-915q0 -161 73 -236t228 -75q166 0 234.5 73.5t68.5 237.5v915h321v-915q0 -278 -159 -430t-465 -152q-312 0 -467.5 151t-155.5 431v915zM410 1853h276v-239h-276v239zM831 1853h277v-239h-277v239z" />
    <glyph glyph-name="Yacute" unicode="&#xdd;" horiz-adv-x="1366" 
d="M-18 1462h362l342 -577l340 577h358l-542 -901v-561h-322v569zM766 1886h321l-315 -291h-203z" />
    <glyph glyph-name="Thorn" unicode="&#xde;" horiz-adv-x="1366" 
d="M141 1462h322v-198h342q240 0 371 -129.5t131 -339.5q0 -97 -30.5 -180.5t-90.5 -149t-159 -102.5t-226 -37h-338v-326h-322v1462zM463 575h256q141 0 208.5 53t67.5 167q0 115 -67 167t-213 52h-252v-439z" />
    <glyph glyph-name="germandbls" unicode="&#xdf;" horiz-adv-x="1251" 
d="M596 1497q205 0 335 -103t130 -288q0 -101 -53 -181t-138 -106v-4q125 -26 196 -125.5t71 -240.5q0 -127 -56.5 -236t-160 -175.5t-230.5 -66.5q-70 0 -166 13v237q34 -10 82 -10q104 0 172 71t68 179q0 119 -65 183.5t-185 64.5q-32 0 -72 -4v192q32 -4 45 -4
q90 0 152.5 46.5t62.5 135.5q0 182 -194 182q-91 0 -137.5 -55t-46.5 -145v-1057h-291v1012q0 485 481 485z" />
    <glyph glyph-name="agrave" unicode="&#xe0;" horiz-adv-x="1175" 
d="M598 1087q231 0 347 -76.5t116 -224.5v-561q0 -166 37 -225h-295q-19 62 -21 102q-125 -131 -356 -131q-166 0 -263 83.5t-97 234.5q0 145 92 225q51 43 131 68.5t211 38.5q155 16 212.5 40.5t57.5 90.5q0 44 -14.5 73t-42.5 43t-58 19.5t-71 5.5q-92 0 -140 -38.5
t-55 -121.5h-291q9 171 141.5 262.5t358.5 91.5zM356 301q0 -135 179 -135q116 0 175.5 61t59.5 179v112q-37 -34 -176 -51q-123 -15 -180.5 -50t-57.5 -116zM211 1497h321l197 -291h-203z" />
    <glyph glyph-name="aacute" unicode="&#xe1;" horiz-adv-x="1175" 
d="M598 1087q231 0 347 -76.5t116 -224.5v-561q0 -166 37 -225h-295q-19 62 -21 102q-125 -131 -356 -131q-166 0 -263 83.5t-97 234.5q0 145 92 225q51 43 131 68.5t211 38.5q155 16 212.5 40.5t57.5 90.5q0 44 -14.5 73t-42.5 43t-58 19.5t-71 5.5q-92 0 -140 -38.5
t-55 -121.5h-291q9 171 141.5 262.5t358.5 91.5zM356 301q0 -135 179 -135q116 0 175.5 61t59.5 179v112q-37 -34 -176 -51q-123 -15 -180.5 -50t-57.5 -116zM672 1497h321l-315 -291h-203z" />
    <glyph glyph-name="acircumflex" unicode="&#xe2;" horiz-adv-x="1175" 
d="M598 1087q231 0 347 -76.5t116 -224.5v-561q0 -166 37 -225h-295q-19 62 -21 102q-125 -131 -356 -131q-166 0 -263 83.5t-97 234.5q0 145 92 225q51 43 131 68.5t211 38.5q155 16 212.5 40.5t57.5 90.5q0 44 -14.5 73t-42.5 43t-58 19.5t-71 5.5q-92 0 -140 -38.5
t-55 -121.5h-291q9 171 141.5 262.5t358.5 91.5zM356 301q0 -135 179 -135q116 0 175.5 61t59.5 179v112q-37 -34 -176 -51q-123 -15 -180.5 -50t-57.5 -116zM473 1497h266l226 -291h-236l-127 166l-131 -166h-225z" />
    <glyph glyph-name="atilde" unicode="&#xe3;" horiz-adv-x="1175" 
d="M598 1087q231 0 347 -76.5t116 -224.5v-561q0 -166 37 -225h-295q-19 62 -21 102q-125 -131 -356 -131q-166 0 -263 83.5t-97 234.5q0 145 92 225q51 43 131 68.5t211 38.5q155 16 212.5 40.5t57.5 90.5q0 44 -14.5 73t-42.5 43t-58 19.5t-71 5.5q-92 0 -140 -38.5
t-55 -121.5h-291q9 171 141.5 262.5t358.5 91.5zM356 301q0 -135 179 -135q116 0 175.5 61t59.5 179v112q-37 -34 -176 -51q-123 -15 -180.5 -50t-57.5 -116zM467 1477q61 0 154 -35q93 -37 139 -37q37 0 57 17t31 55h131q-24 -123 -81.5 -178.5t-147.5 -55.5q-68 0 -158 33
q-98 37 -143 37q-70 0 -93 -86h-129q13 103 77.5 176.5t162.5 73.5z" />
    <glyph glyph-name="adieresis" unicode="&#xe4;" horiz-adv-x="1175" 
d="M598 1087q231 0 347 -76.5t116 -224.5v-561q0 -166 37 -225h-295q-19 62 -21 102q-125 -131 -356 -131q-166 0 -263 83.5t-97 234.5q0 145 92 225q51 43 131 68.5t211 38.5q155 16 212.5 40.5t57.5 90.5q0 44 -14.5 73t-42.5 43t-58 19.5t-71 5.5q-92 0 -140 -38.5
t-55 -121.5h-291q9 171 141.5 262.5t358.5 91.5zM356 301q0 -135 179 -135q116 0 175.5 61t59.5 179v112q-37 -34 -176 -51q-123 -15 -180.5 -50t-57.5 -116zM254 1464h276v-239h-276v239zM676 1464h276v-239h-276v239z" />
    <glyph glyph-name="aring" unicode="&#xe5;" horiz-adv-x="1175" 
d="M598 1087q231 0 347 -76.5t116 -224.5v-561q0 -166 37 -225h-295q-19 62 -21 102q-125 -131 -356 -131q-166 0 -263 83.5t-97 234.5q0 145 92 225q51 43 131 68.5t211 38.5q155 16 212.5 40.5t57.5 90.5q0 44 -14.5 73t-42.5 43t-58 19.5t-71 5.5q-92 0 -140 -38.5
t-55 -121.5h-291q9 171 141.5 262.5t358.5 91.5zM356 301q0 -135 179 -135q116 0 175.5 61t59.5 179v112q-37 -34 -176 -51q-123 -15 -180.5 -50t-57.5 -116zM606 1647q109 0 179.5 -70.5t70.5 -175.5t-73 -175.5t-179 -70.5q-111 0 -180.5 70.5t-69.5 175.5q0 104 72.5 175
t179.5 71zM475 1401q0 -59 34 -98t95 -39q59 0 95 38t36 99q0 59 -34 98t-97 39q-56 0 -92.5 -37t-36.5 -100z" />
    <glyph glyph-name="ae" unicode="&#xe6;" horiz-adv-x="1857" 
d="M604 1087q118 0 211.5 -37.5t140.5 -105.5q66 75 148 109t207 34q229 0 357 -166t130 -462h-756v-13q0 -113 71.5 -196.5t180.5 -83.5q182 0 211 166h283q-46 -170 -180.5 -265.5t-307.5 -95.5q-127 0 -230 46t-165 135q-66 -87 -181.5 -134t-250.5 -47
q-180 0 -287.5 80.5t-107.5 235.5q0 107 45 172q46 68 125 103.5t248 58.5q177 22 234.5 48t57.5 89q0 135 -188 135q-194 0 -203 -164h-291q6 177 142 267.5t356 90.5zM1042 643h465q0 104 -60.5 177t-168.5 73q-98 0 -166.5 -69.5t-69.5 -180.5zM369 303
q0 -66 46.5 -101.5t133.5 -35.5q94 0 166.5 57t72.5 160v133q-27 -20 -65 -31.5t-143 -25.5q-121 -16 -166 -54.5t-45 -101.5z" />
    <glyph glyph-name="ccedilla" unicode="&#xe7;" horiz-adv-x="1175" 
d="M618 1087q206 0 347 -107.5t151 -293.5h-285q-27 182 -215 182q-65 0 -114.5 -30.5t-77.5 -81.5t-41.5 -109.5t-13.5 -122.5t13.5 -121.5t40.5 -106.5t75.5 -77.5t111.5 -28.5q99 0 158.5 57t73.5 159h280q-27 -195 -151 -311.5t-332 -123.5l-57 -77l4 -5q37 15 82 15
q82 0 129 -42.5t47 -115.5q0 -91 -67 -140.5t-189 -49.5q-121 0 -238 45l43 98q87 -37 162 -37q41 0 66.5 17.5t25.5 52.5q0 31 -23.5 49t-62.5 18q-37 0 -78 -16l-43 49l103 143q-217 23 -341 174t-124 365q0 259 146 416t394 157z" />
    <glyph glyph-name="egrave" unicode="&#xe8;" horiz-adv-x="1175" 
d="M600 1087q122 0 221 -45.5t163 -124.5t98 -183t34 -222l-2 -53h-764q6 -136 69.5 -202.5t188.5 -66.5q82 0 148 40.5t84 97.5h256q-116 -357 -496 -357q-249 0 -395 154.5t-146 402.5q0 241 152 400t389 159zM350 643h473q-22 120 -76.5 172.5t-156.5 52.5
q-105 0 -168 -60t-72 -165zM209 1497h321l197 -291h-203z" />
    <glyph glyph-name="eacute" unicode="&#xe9;" horiz-adv-x="1175" 
d="M600 1087q122 0 221 -45.5t163 -124.5t98 -183t34 -222l-2 -53h-764q6 -136 69.5 -202.5t188.5 -66.5q82 0 148 40.5t84 97.5h256q-116 -357 -496 -357q-249 0 -395 154.5t-146 402.5q0 241 152 400t389 159zM350 643h473q-22 120 -76.5 172.5t-156.5 52.5
q-105 0 -168 -60t-72 -165zM670 1497h321l-315 -291h-203z" />
    <glyph glyph-name="ecircumflex" unicode="&#xea;" horiz-adv-x="1175" 
d="M600 1087q122 0 221 -45.5t163 -124.5t98 -183t34 -222l-2 -53h-764q6 -136 69.5 -202.5t188.5 -66.5q82 0 148 40.5t84 97.5h256q-116 -357 -496 -357q-249 0 -395 154.5t-146 402.5q0 241 152 400t389 159zM350 643h473q-22 120 -76.5 172.5t-156.5 52.5
q-105 0 -168 -60t-72 -165zM471 1497h266l226 -291h-236l-127 166l-131 -166h-225z" />
    <glyph glyph-name="edieresis" unicode="&#xeb;" horiz-adv-x="1175" 
d="M600 1087q122 0 221 -45.5t163 -124.5t98 -183t34 -222l-2 -53h-764q6 -136 69.5 -202.5t188.5 -66.5q82 0 148 40.5t84 97.5h256q-116 -357 -496 -357q-249 0 -395 154.5t-146 402.5q0 241 152 400t389 159zM350 643h473q-22 120 -76.5 172.5t-156.5 52.5
q-105 0 -168 -60t-72 -165zM252 1464h276v-239h-276v239zM674 1464h276v-239h-276v239z" />
    <glyph glyph-name="igrave" unicode="&#xec;" horiz-adv-x="528" 
d="M119 1059h291v-1059h-291v1059zM-106 1497h321l197 -291h-203z" />
    <glyph glyph-name="iacute" unicode="&#xed;" horiz-adv-x="528" 
d="M119 1059h291v-1059h-291v1059zM313 1497h322l-316 -291h-202z" />
    <glyph glyph-name="icircumflex" unicode="&#xee;" horiz-adv-x="528" 
d="M119 1059h291v-1059h-291v1059zM135 1497h266l226 -291h-236l-127 166l-131 -166h-225z" />
    <glyph glyph-name="idieresis" unicode="&#xef;" horiz-adv-x="528" 
d="M119 1059h291v-1059h-291v1059zM-84 1464h277v-239h-277v239zM338 1464h276v-239h-276v239z" />
    <glyph glyph-name="eth" unicode="&#xf0;" horiz-adv-x="1251" 
d="M354 1378l152 144q131 -43 225 -103l217 103l94 -121l-182 -84q161 -146 237.5 -331t76.5 -429q0 -169 -67 -302t-192.5 -208.5t-289.5 -75.5q-165 0 -290 71t-191 193.5t-66 276.5q0 83 18.5 159.5t57.5 143t95 116t135.5 77.5t174.5 28q176 0 287 -102h4
q-34 91 -87.5 165t-111.5 115l-239 -114l-95 121l189 88q-38 22 -152 69zM369 526q0 -65 12.5 -121t40 -106.5t79.5 -79.5t124 -29q131 0 194.5 92.5t63.5 243.5q0 59 -14 112t-43 100.5t-81.5 75.5t-123.5 28q-121 0 -186.5 -88t-65.5 -228z" />
    <glyph glyph-name="ntilde" unicode="&#xf1;" horiz-adv-x="1214" 
d="M719 1087q201 0 293 -102.5t92 -325.5v-659h-291v600q0 133 -43.5 195.5t-142.5 62.5q-66 0 -111 -21t-69.5 -63t-35 -95t-10.5 -128v-551h-290v1059h276v-148h6q52 84 137.5 130t188.5 46zM469 1477q61 0 154 -35q93 -37 139 -37q37 0 57 17t31 55h131
q-24 -123 -81.5 -178.5t-147.5 -55.5q-68 0 -158 33q-98 37 -143 37q-70 0 -93 -86h-129q13 103 77.5 176.5t162.5 73.5z" />
    <glyph glyph-name="ograve" unicode="&#xf2;" horiz-adv-x="1251" 
d="M625 1087q251 0 400 -153t149 -406q0 -254 -151 -405.5t-398 -151.5q-249 0 -398 152.5t-149 404.5q0 254 149 406.5t398 152.5zM369 528q0 -162 66 -250t190 -88q127 0 192.5 89t65.5 249q0 69 -13 126.5t-41.5 107.5t-81 78t-124.5 28q-122 0 -188 -88.5t-66 -251.5z
M236 1497h321l197 -291h-203z" />
    <glyph glyph-name="oacute" unicode="&#xf3;" horiz-adv-x="1251" 
d="M625 1087q251 0 400 -153t149 -406q0 -254 -151 -405.5t-398 -151.5q-249 0 -398 152.5t-149 404.5q0 254 149 406.5t398 152.5zM369 528q0 -162 66 -250t190 -88q127 0 192.5 89t65.5 249q0 69 -13 126.5t-41.5 107.5t-81 78t-124.5 28q-122 0 -188 -88.5t-66 -251.5z
M696 1497h322l-316 -291h-202z" />
    <glyph glyph-name="ocircumflex" unicode="&#xf4;" horiz-adv-x="1251" 
d="M625 1087q251 0 400 -153t149 -406q0 -254 -151 -405.5t-398 -151.5q-249 0 -398 152.5t-149 404.5q0 254 149 406.5t398 152.5zM369 528q0 -162 66 -250t190 -88q127 0 192.5 89t65.5 249q0 69 -13 126.5t-41.5 107.5t-81 78t-124.5 28q-122 0 -188 -88.5t-66 -251.5z
M498 1497h266l225 -291h-235l-127 166l-131 -166h-226z" />
    <glyph glyph-name="otilde" unicode="&#xf5;" horiz-adv-x="1251" 
d="M625 1087q251 0 400 -153t149 -406q0 -254 -151 -405.5t-398 -151.5q-249 0 -398 152.5t-149 404.5q0 254 149 406.5t398 152.5zM369 528q0 -162 66 -250t190 -88q127 0 192.5 89t65.5 249q0 69 -13 126.5t-41.5 107.5t-81 78t-124.5 28q-122 0 -188 -88.5t-66 -251.5z
M492 1477q60 0 153 -35q93 -37 139 -37q37 0 57 17t31 55h132q-45 -234 -230 -234q-68 0 -158 33q-98 37 -143 37q-69 0 -92 -86h-129q13 103 77.5 176.5t162.5 73.5z" />
    <glyph glyph-name="odieresis" unicode="&#xf6;" horiz-adv-x="1251" 
d="M625 1087q251 0 400 -153t149 -406q0 -254 -151 -405.5t-398 -151.5q-249 0 -398 152.5t-149 404.5q0 254 149 406.5t398 152.5zM369 528q0 -162 66 -250t190 -88q127 0 192.5 89t65.5 249q0 69 -13 126.5t-41.5 107.5t-81 78t-124.5 28q-122 0 -188 -88.5t-66 -251.5z
M279 1464h276v-239h-276v239zM700 1464h277v-239h-277v239z" />
    <glyph glyph-name="divide" unicode="&#xf7;" horiz-adv-x="1228" 
d="M616 1116q69 0 120.5 -51t51.5 -123q0 -67 -51.5 -119.5t-118.5 -52.5q-72 0 -124 51t-52 121q0 72 52 123t122 51zM98 627h1035v-219h-1035v219zM616 264q70 0 121 -51t51 -121q0 -67 -52.5 -120.5t-117.5 -53.5q-72 0 -124 52t-52 122t51.5 121t122.5 51z" />
    <glyph glyph-name="oslash" unicode="&#xf8;" horiz-adv-x="1251" 
d="M958 989l109 125l76 -65l-111 -125q142 -151 142 -396q0 -253 -150 -405t-399 -152q-199 0 -338 103l-121 -137l-76 65l123 139q-135 147 -135 387q0 254 149 406.5t398 152.5q196 0 333 -98zM369 528q0 -106 30 -176l396 451q-62 65 -172 65q-122 0 -188 -89t-66 -251z
M850 715l-399 -455q64 -70 174 -70q127 0 192.5 89t65.5 249q0 106 -33 187z" />
    <glyph glyph-name="ugrave" unicode="&#xf9;" horiz-adv-x="1214" 
d="M111 1059h290v-600q0 -129 42 -193.5t145 -64.5q119 0 172 71.5t53 229.5v557h291v-1059h-277v147h-6q-54 -87 -139.5 -131.5t-185.5 -44.5q-204 0 -294.5 104t-90.5 326v658zM219 1497h322l196 -291h-202z" />
    <glyph glyph-name="uacute" unicode="&#xfa;" horiz-adv-x="1214" 
d="M111 1059h290v-600q0 -129 42 -193.5t145 -64.5q119 0 172 71.5t53 229.5v557h291v-1059h-277v147h-6q-54 -87 -139.5 -131.5t-185.5 -44.5q-204 0 -294.5 104t-90.5 326v658zM680 1497h321l-315 -291h-203z" />
    <glyph glyph-name="ucircumflex" unicode="&#xfb;" horiz-adv-x="1214" 
d="M111 1059h290v-600q0 -129 42 -193.5t145 -64.5q119 0 172 71.5t53 229.5v557h291v-1059h-277v147h-6q-54 -87 -139.5 -131.5t-185.5 -44.5q-204 0 -294.5 104t-90.5 326v658zM481 1497h267l225 -291h-236l-127 166l-131 -166h-225z" />
    <glyph glyph-name="udieresis" unicode="&#xfc;" horiz-adv-x="1214" 
d="M111 1059h290v-600q0 -129 42 -193.5t145 -64.5q119 0 172 71.5t53 229.5v557h291v-1059h-277v147h-6q-54 -87 -139.5 -131.5t-185.5 -44.5q-204 0 -294.5 104t-90.5 326v658zM262 1464h277v-239h-277v239zM684 1464h277v-239h-277v239z" />
    <glyph glyph-name="yacute" unicode="&#xfd;" horiz-adv-x="1062" 
d="M-12 1059h311l240 -725h4l231 725h301l-442 -1192q-46 -126 -130.5 -183t-230.5 -57q-70 0 -182 11v239q76 -10 154 -10q60 0 94.5 37t34.5 96q0 28 -13 66zM610 1497h322l-316 -291h-202z" />
    <glyph glyph-name="thorn" unicode="&#xfe;" horiz-adv-x="1251" 
d="M111 1462h290v-538h5q49 79 127.5 121t175.5 42q116 0 208 -44.5t150.5 -122t89.5 -180.5t31 -222q0 -109 -30 -206t-86 -174t-146.5 -122t-202.5 -45q-100 0 -182 42t-135 118h-5v-504h-290v1835zM391 526q0 -93 23.5 -166t82.5 -121.5t148 -48.5q126 0 189 91t63 245
q0 46 -6.5 90t-24.5 91t-45.5 81.5t-74 57t-105.5 22.5q-126 0 -188 -95.5t-62 -246.5z" />
    <glyph glyph-name="ydieresis" unicode="&#xff;" horiz-adv-x="1062" 
d="M-12 1059h311l240 -725h4l231 725h301l-442 -1192q-46 -126 -130.5 -183t-230.5 -57q-70 0 -182 11v239q76 -10 154 -10q60 0 94.5 37t34.5 96q0 28 -13 66zM193 1464h276v-239h-276v239zM614 1464h277v-239h-277v239z" />
    <glyph glyph-name="Amacron" unicode="&#x100;" horiz-adv-x="1402" 
d="M541 1462h329l547 -1462h-334l-110 326h-547l-115 -326h-325zM705 1102h-5l-190 -537h379zM342 1810h723v-153h-723v153z" />
    <glyph glyph-name="amacron" unicode="&#x101;" horiz-adv-x="1175" 
d="M598 1087q231 0 347 -76.5t116 -224.5v-561q0 -166 37 -225h-295q-19 62 -21 102q-125 -131 -356 -131q-166 0 -263 83.5t-97 234.5q0 145 92 225q51 43 131 68.5t211 38.5q155 16 212.5 40.5t57.5 90.5q0 44 -14.5 73t-42.5 43t-58 19.5t-71 5.5q-92 0 -140 -38.5
t-55 -121.5h-291q9 171 141.5 262.5t358.5 91.5zM356 301q0 -135 179 -135q116 0 175.5 61t59.5 179v112q-37 -34 -176 -51q-123 -15 -180.5 -50t-57.5 -116zM242 1421h723v-153h-723v153z" />
    <glyph glyph-name="Abreve" unicode="&#x102;" horiz-adv-x="1402" 
d="M541 1462h329l547 -1462h-334l-110 326h-547l-115 -326h-325zM705 1102h-5l-190 -537h379zM362 1886h134q10 -67 68 -102t134 -35q192 0 226 137h129q-19 -142 -110.5 -216.5t-254.5 -74.5q-148 0 -231 75t-95 216z" />
    <glyph glyph-name="abreve" unicode="&#x103;" horiz-adv-x="1175" 
d="M598 1087q231 0 347 -76.5t116 -224.5v-561q0 -166 37 -225h-295q-19 62 -21 102q-125 -131 -356 -131q-166 0 -263 83.5t-97 234.5q0 145 92 225q51 43 131 68.5t211 38.5q155 16 212.5 40.5t57.5 90.5q0 44 -14.5 73t-42.5 43t-58 19.5t-71 5.5q-92 0 -140 -38.5
t-55 -121.5h-291q9 171 141.5 262.5t358.5 91.5zM356 301q0 -135 179 -135q116 0 175.5 61t59.5 179v112q-37 -34 -176 -51q-123 -15 -180.5 -50t-57.5 -116zM262 1497h133q9 -63 66 -100t137 -37q189 0 225 137h129q-19 -143 -110.5 -217t-253.5 -74q-147 0 -230.5 75
t-95.5 216z" />
    <glyph glyph-name="Aogonek" unicode="&#x104;" horiz-adv-x="1402" 
d="M541 1462h329l547 -1462h-170q-86 -94 -117.5 -142t-31.5 -102q0 -35 21.5 -56.5t54.5 -21.5q58 0 112 66l92 -53q-45 -69 -106 -102t-148 -33q-100 0 -161.5 46t-61.5 124q0 69 51 134t164 140h-33l-110 326h-547l-115 -326h-325zM705 1102h-5l-190 -537h379z" />
    <glyph glyph-name="aogonek" unicode="&#x105;" horiz-adv-x="1175" 
d="M598 1087q231 0 347 -76.5t116 -222.5v-563q0 -166 37 -225h-135q-74 -74 -107 -128.5t-33 -113.5q0 -36 22 -58t56 -22q55 0 113 66l92 -53q-46 -71 -106 -103t-148 -32q-100 0 -161.5 47t-61.5 125q0 68 44.5 131.5t145.5 140.5q-31 59 -37 102q-125 -131 -356 -131
q-166 0 -263 83.5t-97 234.5q0 148 92 225q95 82 340 107q165 17 218.5 42.5t53.5 88.5q0 79 -46.5 110t-139.5 31q-92 0 -140 -38.5t-55 -121.5h-291q9 171 141.5 262.5t358.5 91.5zM356 301q0 -135 179 -135q116 0 175.5 61t59.5 179v112q-26 -22 -66 -32t-139 -23
q-112 -15 -160.5 -52.5t-48.5 -109.5z" />
    <glyph glyph-name="Cacute" unicode="&#x106;" 
d="M797 1497q165 0 300.5 -62t223.5 -182.5t106 -281.5h-311q-17 108 -108.5 182t-210.5 74q-192 0 -295 -137t-103 -365q0 -140 42.5 -248.5t134 -174.5t221.5 -66q138 0 224.5 85t106.5 242h312q-25 -276 -199 -437t-444 -161q-164 0 -300 58.5t-227.5 161t-141.5 241.5
t-50 299q0 162 49.5 303t139.5 245t227 164t303 60zM864 1886h322l-316 -291h-202z" />
    <glyph glyph-name="cacute" unicode="&#x107;" horiz-adv-x="1175" 
d="M618 1087q136 0 245.5 -46.5t177.5 -138.5t75 -216h-285q-27 182 -215 182q-84 0 -141.5 -51.5t-81.5 -126.5t-24 -166q0 -67 14 -126t42.5 -106t75.5 -74.5t109 -27.5q97 0 157 55.5t75 160.5h280q-29 -208 -163 -321.5t-347 -113.5q-161 0 -283.5 72t-186.5 194.5
t-64 276.5q0 257 145.5 415t394.5 158zM692 1497h322l-316 -291h-202z" />
    <glyph glyph-name="Ccircumflex" unicode="&#x108;" 
d="M797 1497q165 0 300.5 -62t223.5 -182.5t106 -281.5h-311q-17 108 -108.5 182t-210.5 74q-192 0 -295 -137t-103 -365q0 -140 42.5 -248.5t134 -174.5t221.5 -66q138 0 224.5 85t106.5 242h312q-25 -276 -199 -437t-444 -161q-164 0 -300 58.5t-227.5 161t-141.5 241.5
t-50 299q0 162 49.5 303t139.5 245t227 164t303 60zM657 1886h267l225 -291h-236l-127 166l-131 -166h-225z" />
    <glyph glyph-name="ccircumflex" unicode="&#x109;" horiz-adv-x="1175" 
d="M618 1087q136 0 245.5 -46.5t177.5 -138.5t75 -216h-285q-27 182 -215 182q-84 0 -141.5 -51.5t-81.5 -126.5t-24 -166q0 -67 14 -126t42.5 -106t75.5 -74.5t109 -27.5q97 0 157 55.5t75 160.5h280q-29 -208 -163 -321.5t-347 -113.5q-161 0 -283.5 72t-186.5 194.5
t-64 276.5q0 257 145.5 415t394.5 158zM494 1497h266l225 -291h-235l-127 166l-131 -166h-226z" />
    <glyph glyph-name="Cdotaccent" unicode="&#x10a;" 
d="M797 1497q165 0 300.5 -62t223.5 -182.5t106 -281.5h-311q-17 108 -108.5 182t-210.5 74q-192 0 -295 -137t-103 -365q0 -140 42.5 -248.5t134 -174.5t221.5 -66q138 0 224.5 85t106.5 242h312q-25 -276 -199 -437t-444 -161q-164 0 -300 58.5t-227.5 161t-141.5 241.5
t-50 299q0 162 49.5 303t139.5 245t227 164t303 60zM647 1853h277v-239h-277v239z" />
    <glyph glyph-name="cdotaccent" unicode="&#x10b;" horiz-adv-x="1175" 
d="M618 1087q136 0 245.5 -46.5t177.5 -138.5t75 -216h-285q-27 182 -215 182q-84 0 -141.5 -51.5t-81.5 -126.5t-24 -166q0 -67 14 -126t42.5 -106t75.5 -74.5t109 -27.5q97 0 157 55.5t75 160.5h280q-29 -208 -163 -321.5t-347 -113.5q-161 0 -283.5 72t-186.5 194.5
t-64 276.5q0 257 145.5 415t394.5 158zM485 1464h277v-239h-277v239z" />
    <glyph glyph-name="Ccaron" unicode="&#x10c;" 
d="M797 1497q165 0 300.5 -62t223.5 -182.5t106 -281.5h-311q-17 108 -108.5 182t-210.5 74q-192 0 -295 -137t-103 -365q0 -140 42.5 -248.5t134 -174.5t221.5 -66q138 0 224.5 85t106.5 242h312q-25 -276 -199 -437t-444 -161q-164 0 -300 58.5t-227.5 161t-141.5 241.5
t-50 299q0 162 49.5 303t139.5 245t227 164t303 60zM426 1886h236l126 -166l132 166h225l-227 -291h-267z" />
    <glyph glyph-name="ccaron" unicode="&#x10d;" horiz-adv-x="1175" 
d="M618 1087q136 0 245.5 -46.5t177.5 -138.5t75 -216h-285q-27 182 -215 182q-84 0 -141.5 -51.5t-81.5 -126.5t-24 -166q0 -67 14 -126t42.5 -106t75.5 -74.5t109 -27.5q97 0 157 55.5t75 160.5h280q-29 -208 -163 -321.5t-347 -113.5q-161 0 -283.5 72t-186.5 194.5
t-64 276.5q0 257 145.5 415t394.5 158zM266 1497h236l127 -166l131 166h225l-227 -291h-266z" />
    <glyph glyph-name="Dcaron" unicode="&#x10e;" 
d="M141 1462h627q308 0 488 -190.5t180 -532.5q0 -345 -176 -542t-484 -197h-635v1462zM463 270h285q78 0 142.5 25t115.5 76.5t79.5 138t28.5 201.5q0 253 -107 367t-315 114h-229v-922zM322 1886h235l127 -166l131 166h225l-227 -291h-266z" />
    <glyph glyph-name="dcaron" unicode="&#x10f;" horiz-adv-x="1251" 
d="M852 1462h291v-1462h-277v135h-4q-95 -164 -321 -164q-115 0 -206.5 46t-149.5 125.5t-88.5 180.5t-30.5 216q0 88 19 169.5t58.5 150.5t94.5 119.5t131.5 79.5t165.5 29q98 0 182.5 -41t130.5 -116h4v532zM356 530q0 -88 26 -163t85.5 -126t144.5 -51q123 0 186.5 90
t63.5 252q0 153 -62 244.5t-190 91.5q-122 0 -188 -90.5t-66 -247.5zM1303 1462h303l-166 -291h-201z" />
    <glyph glyph-name="Dcroat" unicode="&#x110;" 
d="M141 1462h627q313 0 490.5 -193t177.5 -530q0 -342 -175 -540.5t-485 -198.5h-635v655h-149v201h149v606zM463 856h328v-201h-328v-385h287q75 0 138.5 24.5t115 75.5t81 138t29.5 203q0 258 -108.5 369.5t-315.5 111.5h-227v-336z" />
    <glyph glyph-name="dcroat" unicode="&#x111;" horiz-adv-x="1271" 
d="M852 1462h291v-143h166v-156h-166v-1163h-277v135h-4q-95 -164 -321 -164q-115 0 -206.5 46t-149.5 125.5t-88.5 180.5t-30.5 216q0 88 19 169.5t58.5 150.5t94.5 119.5t131.5 79.5t165.5 29q99 0 182.5 -41.5t130.5 -115.5h4v233h-324v156h324v143zM356 530
q0 -92 27.5 -167.5t86.5 -124t142 -48.5q127 0 188.5 93.5t61.5 248.5q0 70 -13.5 128.5t-42.5 106.5t-79 74.5t-117 26.5q-122 0 -188 -91t-66 -247z" />
    <glyph glyph-name="Emacron" unicode="&#x112;" horiz-adv-x="1327" 
d="M141 1462h1094v-270h-772v-313h708v-250h-708v-359h788v-270h-1110v1462zM317 1810h723v-153h-723v153z" />
    <glyph glyph-name="emacron" unicode="&#x113;" horiz-adv-x="1175" 
d="M600 1087q122 0 221 -45.5t163 -124.5t98 -183t34 -222l-2 -53h-764q6 -136 69.5 -202.5t188.5 -66.5q82 0 148 40.5t84 97.5h256q-116 -357 -496 -357q-249 0 -395 154.5t-146 402.5q0 241 152 400t389 159zM350 643h473q-22 120 -76.5 172.5t-156.5 52.5
q-105 0 -168 -60t-72 -165zM240 1421h723v-153h-723v153z" />
    <glyph glyph-name="Ebreve" unicode="&#x114;" horiz-adv-x="1327" 
d="M141 1462h1094v-270h-772v-313h708v-250h-708v-359h788v-270h-1110v1462zM338 1886h133q10 -67 68.5 -102t134.5 -35q191 0 225 137h129q-39 -291 -364 -291q-148 0 -231 75t-95 216z" />
    <glyph glyph-name="ebreve" unicode="&#x115;" horiz-adv-x="1175" 
d="M600 1087q122 0 221 -45.5t163 -124.5t98 -183t34 -222l-2 -53h-764q6 -136 69.5 -202.5t188.5 -66.5q82 0 148 40.5t84 97.5h256q-116 -357 -496 -357q-249 0 -395 154.5t-146 402.5q0 241 152 400t389 159zM350 643h473q-22 120 -76.5 172.5t-156.5 52.5
q-105 0 -168 -60t-72 -165zM260 1497h133q9 -63 66 -100t137 -37q189 0 225 137h129q-19 -143 -110.5 -217t-253.5 -74q-147 0 -230.5 75t-95.5 216z" />
    <glyph glyph-name="Edotaccent" unicode="&#x116;" horiz-adv-x="1327" 
d="M141 1462h1094v-270h-772v-313h708v-250h-708v-359h788v-270h-1110v1462zM539 1853h276v-239h-276v239z" />
    <glyph glyph-name="edotaccent" unicode="&#x117;" horiz-adv-x="1175" 
d="M600 1087q122 0 221 -45.5t163 -124.5t98 -183t34 -222l-2 -53h-764q6 -136 69.5 -202.5t188.5 -66.5q82 0 148 40.5t84 97.5h256q-116 -357 -496 -357q-249 0 -395 154.5t-146 402.5q0 241 152 400t389 159zM350 643h473q-22 120 -76.5 172.5t-156.5 52.5
q-105 0 -168 -60t-72 -165zM461 1464h276v-239h-276v239z" />
    <glyph glyph-name="Eogonek" unicode="&#x118;" horiz-adv-x="1327" 
d="M141 1462h1094v-270h-772v-313h708v-250h-708v-359h788v-270h-145q-86 -90 -118 -141.5t-32 -102.5q0 -34 21 -56t55 -22q56 0 113 66l92 -53q-48 -71 -107.5 -103t-146.5 -32q-101 0 -162 46.5t-61 123.5q0 67 50 132t165 142h-834v1462z" />
    <glyph glyph-name="eogonek" unicode="&#x119;" horiz-adv-x="1175" 
d="M600 1087q121 0 220 -45.5t163 -124t98.5 -182.5t34.5 -223l-2 -53h-764q6 -137 70 -203t190 -66q80 0 146 40.5t84 97.5h256q-105 -317 -418 -353q-72 -78 -98.5 -125t-26.5 -94q0 -35 21.5 -56.5t54.5 -21.5q56 0 112 66l93 -53q-47 -72 -107 -103.5t-147 -31.5
q-100 0 -162 46.5t-62 123.5q0 64 43 123t136 126q-148 14 -257 89.5t-164 195t-55 268.5q0 242 151 400.5t390 158.5zM350 643h473q-22 119 -77 172t-156 53q-112 0 -172 -64t-68 -161z" />
    <glyph glyph-name="Ecaron" unicode="&#x11a;" horiz-adv-x="1327" 
d="M141 1462h1094v-270h-772v-313h708v-250h-708v-359h788v-270h-1110v1462zM322 1886h235l127 -166l131 166h225l-227 -291h-266z" />
    <glyph glyph-name="ecaron" unicode="&#x11b;" horiz-adv-x="1175" 
d="M600 1087q122 0 221 -45.5t163 -124.5t98 -183t34 -222l-2 -53h-764q6 -136 69.5 -202.5t188.5 -66.5q82 0 148 40.5t84 97.5h256q-116 -357 -496 -357q-249 0 -395 154.5t-146 402.5q0 241 152 400t389 159zM350 643h473q-22 120 -76.5 172.5t-156.5 52.5
q-105 0 -168 -60t-72 -165zM244 1497h235l127 -166l131 166h226l-228 -291h-266z" />
    <glyph glyph-name="Gcircumflex" unicode="&#x11c;" horiz-adv-x="1554" 
d="M797 1497q157 0 291.5 -61.5t222.5 -180.5t102 -274h-307q-29 121 -109.5 183.5t-199.5 62.5q-129 0 -220.5 -66.5t-134.5 -178t-43 -257.5q0 -99 23.5 -185t70 -155t124.5 -109t180 -40q155 0 244 79t104 236h-324v240h615v-791h-205l-33 166q-156 -201 -401 -201
q-164 0 -300 59t-227.5 161.5t-141.5 241.5t-50 298q0 163 49.5 304t139.5 245t227 163.5t303 59.5zM657 1886h267l225 -291h-236l-127 166l-131 -166h-225z" />
    <glyph glyph-name="gcircumflex" unicode="&#x11d;" horiz-adv-x="1251" 
d="M532 1087q113 0 189.5 -41.5t126.5 -127.5h4v141h276v-993q0 -217 -134 -342t-412 -125q-192 0 -326 92t-143 248h288q36 -146 217 -146q112 0 173 67t61 189v146h-4q-43 -77 -127 -120.5t-191 -43.5q-221 0 -336.5 145.5t-115.5 386.5q0 82 18.5 158.5t56 143t91 116
t127.5 78t161 28.5zM369 567q0 -140 58 -228.5t177 -88.5q115 0 181.5 83t66.5 212q0 61 -11 113.5t-36.5 102t-77.5 78.5t-125 29q-110 0 -171.5 -83.5t-61.5 -217.5zM504 1497h266l225 -291h-235l-127 166l-131 -166h-226z" />
    <glyph glyph-name="Gbreve" unicode="&#x11e;" horiz-adv-x="1554" 
d="M797 1497q157 0 291.5 -61.5t222.5 -180.5t102 -274h-307q-29 121 -109.5 183.5t-199.5 62.5q-129 0 -220.5 -66.5t-134.5 -178t-43 -257.5q0 -99 23.5 -185t70 -155t124.5 -109t180 -40q155 0 244 79t104 236h-324v240h615v-791h-205l-33 166q-156 -201 -401 -201
q-164 0 -300 59t-227.5 161.5t-141.5 241.5t-50 298q0 163 49.5 304t139.5 245t227 163.5t303 59.5zM446 1886h134q10 -67 68 -102t134 -35q192 0 226 137h129q-19 -142 -110.5 -216.5t-254.5 -74.5q-148 0 -231 75t-95 216z" />
    <glyph glyph-name="gbreve" unicode="&#x11f;" horiz-adv-x="1251" 
d="M532 1087q113 0 189.5 -41.5t126.5 -127.5h4v141h276v-993q0 -217 -134 -342t-412 -125q-192 0 -326 92t-143 248h288q36 -146 217 -146q112 0 173 67t61 189v146h-4q-43 -77 -127 -120.5t-191 -43.5q-221 0 -336.5 145.5t-115.5 386.5q0 82 18.5 158.5t56 143t91 116
t127.5 78t161 28.5zM369 567q0 -140 58 -228.5t177 -88.5q115 0 181.5 83t66.5 212q0 61 -11 113.5t-36.5 102t-77.5 78.5t-125 29q-110 0 -171.5 -83.5t-61.5 -217.5zM293 1497h133q9 -63 66 -100t137 -37q189 0 225 137h129q-19 -143 -111 -217t-254 -74q-147 0 -230 74.5
t-95 216.5z" />
    <glyph glyph-name="Gdotaccent" unicode="&#x120;" horiz-adv-x="1554" 
d="M797 1497q157 0 291.5 -61.5t222.5 -180.5t102 -274h-307q-29 121 -109.5 183.5t-199.5 62.5q-129 0 -220.5 -66.5t-134.5 -178t-43 -257.5q0 -99 23.5 -185t70 -155t124.5 -109t180 -40q155 0 244 79t104 236h-324v240h615v-791h-205l-33 166q-156 -201 -401 -201
q-164 0 -300 59t-227.5 161.5t-141.5 241.5t-50 298q0 163 49.5 304t139.5 245t227 163.5t303 59.5zM647 1853h277v-239h-277v239z" />
    <glyph glyph-name="gdotaccent" unicode="&#x121;" horiz-adv-x="1251" 
d="M532 1087q113 0 189.5 -41.5t126.5 -127.5h4v141h276v-993q0 -217 -134 -342t-412 -125q-192 0 -326 92t-143 248h288q36 -146 217 -146q112 0 173 67t61 189v146h-4q-43 -77 -127 -120.5t-191 -43.5q-221 0 -336.5 145.5t-115.5 386.5q0 82 18.5 158.5t56 143t91 116
t127.5 78t161 28.5zM369 567q0 -140 58 -228.5t177 -88.5q115 0 181.5 83t66.5 212q0 61 -11 113.5t-36.5 102t-77.5 78.5t-125 29q-110 0 -171.5 -83.5t-61.5 -217.5zM494 1464h276v-239h-276v239z" />
    <glyph glyph-name="Gcommaaccent" unicode="&#x122;" horiz-adv-x="1554" 
d="M797 1497q157 0 291.5 -61.5t222.5 -180.5t102 -274h-307q-29 121 -109.5 183.5t-199.5 62.5q-129 0 -220.5 -66.5t-134.5 -178t-43 -257.5q0 -99 23.5 -185t70 -155t124.5 -109t180 -40q155 0 244 79t104 236h-324v240h615v-791h-205l-33 166q-156 -201 -401 -201
q-164 0 -300 59t-227.5 161.5t-141.5 241.5t-50 298q0 163 49.5 304t139.5 245t227 163.5t303 59.5zM629 -102h297v-148q0 -110 -62.5 -152t-201.5 -42h-13v75q51 5 79 22t38 54h-137v191z" />
    <glyph glyph-name="gcommaaccent" unicode="&#x123;" horiz-adv-x="1251" 
d="M532 1087q113 0 189.5 -41.5t126.5 -127.5h4v141h276v-993q0 -217 -134 -342t-412 -125q-192 0 -326 92t-143 248h288q36 -146 217 -146q112 0 173 67t61 189v146h-4q-43 -77 -127 -120.5t-191 -43.5q-221 0 -336.5 145.5t-115.5 386.5q0 82 18.5 158.5t56 143t91 116
t127.5 78t161 28.5zM369 567q0 -140 58 -228.5t177 -88.5q115 0 181.5 83t66.5 212q0 61 -11 113.5t-36.5 102t-77.5 78.5t-125 29q-110 0 -171.5 -83.5t-61.5 -217.5zM758 1614v-76q-99 -8 -117 -76h137v-190h-297v143q0 105 56.5 152t205.5 47h15z" />
    <glyph glyph-name="Hcircumflex" unicode="&#x124;" 
d="M141 1462h322v-561h592v561h321v-1462h-321v631h-592v-631h-322v1462zM627 1886h266l225 -291h-235l-127 166l-131 -166h-226z" />
    <glyph glyph-name="hcircumflex" unicode="&#x125;" horiz-adv-x="1214" 
d="M111 1462h290v-551h7q49 82 133 129t178 47q201 0 293 -102.5t92 -322.5v-662h-291v602q0 132 -43.5 194t-142.5 62q-126 0 -176 -76.5t-50 -226.5v-555h-290v1462zM453 1886h266l225 -291h-235l-127 166l-131 -166h-226z" />
    <glyph glyph-name="Hbar" unicode="&#x126;" 
d="M141 1462h322v-223h592v223h321v-1462h-321v575h-592v-575h-322v1462zM463 825h592v232h-592v-232z" />
    <glyph glyph-name="hbar" unicode="&#x127;" horiz-adv-x="1234" 
d="M131 1462h291v-143h323v-156h-323v-252h6q50 81 133 128.5t178 47.5q200 0 292.5 -102t92.5 -326v-659h-290v602q0 130 -44 193t-143 63q-122 0 -173.5 -74t-51.5 -227v-557h-291v1163h-166v156h166v143z" />
    <glyph glyph-name="Itilde" unicode="&#x128;" horiz-adv-x="604" 
d="M141 1462h322v-1462h-322v1462zM166 1866q61 0 164 -39q87 -33 129 -33q36 0 57 16.5t31 55.5h131q-24 -122 -81 -178t-148 -56q-64 0 -158 33q-98 37 -144 37q-69 0 -92 -86h-129q13 104 78.5 177t161.5 73z" />
    <glyph glyph-name="itilde" unicode="&#x129;" horiz-adv-x="528" 
d="M119 1059h291v-1059h-291v1059zM129 1477q61 0 154 -35q93 -37 139 -37q37 0 57 17t31 55h131q-24 -123 -81.5 -178.5t-147.5 -55.5q-68 0 -158 33q-98 37 -143 37q-70 0 -93 -86h-129q13 103 77.5 176.5t162.5 73.5z" />
    <glyph glyph-name="Imacron" unicode="&#x12a;" horiz-adv-x="604" 
d="M141 1462h322v-1462h-322v1462zM-61 1810h723v-153h-723v153z" />
    <glyph glyph-name="imacron" unicode="&#x12b;" horiz-adv-x="528" 
d="M119 1059h291v-1059h-291v1059zM-96 1421h723v-153h-723v153z" />
    <glyph glyph-name="Iogonek" unicode="&#x12e;" horiz-adv-x="604" 
d="M141 1462h322v-1462q-103 -86 -139.5 -140.5t-36.5 -107.5q0 -36 18 -55t47 -19q51 0 94 58l84 -53q-46 -66 -97.5 -96.5t-125.5 -30.5q-95 0 -152 46t-57 124q0 72 54.5 138.5t171.5 135.5h-183v1462z" />
    <glyph glyph-name="iogonek" unicode="&#x12f;" horiz-adv-x="528" 
d="M119 1462h291v-239h-291v239zM119 1059h291v-1059q-88 -85 -123 -138t-35 -110q0 -36 18.5 -55t46.5 -19q51 0 95 58l84 -53q-47 -65 -98 -96t-126 -31q-95 0 -152 46t-57 124q0 73 55 139.5t165 134.5h-164v1059z" />
    <glyph glyph-name="Idotaccent" unicode="&#x130;" horiz-adv-x="604" 
d="M141 1462h322v-1462h-322v1462zM164 1853h276v-239h-276v239z" />
    <glyph glyph-name="dotlessi" unicode="&#x131;" horiz-adv-x="528" 
d="M119 1059h291v-1059h-291v1059z" />
    <glyph glyph-name="Jcircumflex" unicode="&#x134;" horiz-adv-x="1138" 
d="M676 1462h321v-1003q0 -241 -121.5 -367.5t-361.5 -126.5q-222 0 -353.5 122t-131.5 327v131h290v-72q0 -126 46 -181.5t141 -55.5q39 0 68 8.5t47 26t29.5 36.5t17 48t7 52t1.5 56v999zM694 1886h267l225 -291h-236l-127 166l-131 -166h-225z" />
    <glyph glyph-name="jcircumflex" unicode="&#x135;" horiz-adv-x="569" 
d="M137 1059h291v-1114q0 -170 -82 -244t-289 -74q-52 0 -96 8v240q21 -8 64 -8q61 0 86.5 23.5t25.5 72.5v1096zM145 1497h267l225 -291h-236l-127 166l-131 -166h-225z" />
    <glyph glyph-name="Kcommaaccent" unicode="&#x136;" horiz-adv-x="1478" 
d="M141 1462h322v-606l571 606h402l-572 -577l627 -885h-404l-440 657l-184 -186v-471h-322v1462zM610 -102h297v-148q0 -110 -62.5 -152t-201.5 -42h-12v75q51 5 79 22t38 54h-138v191z" />
    <glyph glyph-name="kcommaaccent" unicode="&#x137;" horiz-adv-x="1175" 
d="M137 1462h291v-784l367 381h344l-400 -389l445 -670h-353l-290 473l-113 -108v-365h-291v1462zM481 -102h297v-148q0 -110 -62.5 -152t-201.5 -42h-12v75q51 5 78.5 22t37.5 54h-137v191z" />
    <glyph glyph-name="Lacute" unicode="&#x139;" horiz-adv-x="1214" 
d="M141 1462h322v-1192h713v-270h-1035v1462zM391 1886h322l-316 -291h-202z" />
    <glyph glyph-name="lacute" unicode="&#x13a;" horiz-adv-x="528" 
d="M119 1462h291v-1462h-291v1462zM319 1886h322l-315 -291h-203z" />
    <glyph glyph-name="Lcommaaccent" unicode="&#x13b;" horiz-adv-x="1214" 
d="M141 1462h322v-1192h713v-270h-1035v1462zM504 -102h297v-148q0 -110 -62.5 -152t-201.5 -42h-13v75q51 5 79 22t38 54h-137v191z" />
    <glyph glyph-name="lcommaaccent" unicode="&#x13c;" horiz-adv-x="528" 
d="M119 1462h291v-1462h-291v1462zM115 -102h297v-148q0 -110 -62.5 -152t-202.5 -42h-12v75q51 5 79 22t38 54h-137v191z" />
    <glyph glyph-name="Lcaron" unicode="&#x13d;" horiz-adv-x="1214" 
d="M141 1462h322v-1192h713v-270h-1035v1462zM686 1462h303l-166 -291h-200z" />
    <glyph glyph-name="lcaron" unicode="&#x13e;" horiz-adv-x="528" 
d="M119 1462h291v-1462h-291v1462zM569 1462h303l-165 -291h-201z" />
    <glyph glyph-name="Ldot" unicode="&#x13f;" horiz-adv-x="1214" 
d="M141 1462h322v-1192h713v-270h-1035v1462zM696 922h277v-240h-277v240z" />
    <glyph glyph-name="ldot" unicode="&#x140;" horiz-adv-x="839" 
d="M119 1462h291v-1462h-291v1462zM535 922h276v-240h-276v240z" />
    <glyph glyph-name="Lslash" unicode="&#x141;" horiz-adv-x="1214" 
d="M141 1462h322v-569l432 303v-229l-432 -303v-394h713v-270h-1035v438l-164 -114v229l164 115v794z" />
    <glyph glyph-name="lslash" unicode="&#x142;" horiz-adv-x="528" 
d="M119 1462h291v-438l137 109v-209l-137 -109v-815h-291v586l-137 -109v209l137 109v667z" />
    <glyph glyph-name="Nacute" unicode="&#x143;" 
d="M141 1462h320l610 -981h4v981h301v-1462h-321l-609 979h-4v-979h-301v1462zM825 1886h322l-316 -291h-202z" />
    <glyph glyph-name="nacute" unicode="&#x144;" horiz-adv-x="1214" 
d="M719 1087q201 0 293 -102.5t92 -325.5v-659h-291v600q0 133 -43.5 195.5t-142.5 62.5q-66 0 -111 -21t-69.5 -63t-35 -95t-10.5 -128v-551h-290v1059h276v-148h6q52 84 137.5 130t188.5 46zM674 1497h321l-315 -291h-203z" />
    <glyph glyph-name="Ncommaaccent" unicode="&#x145;" 
d="M141 1462h320l610 -981h4v981h301v-1462h-321l-609 979h-4v-979h-301v1462zM614 -102h297v-148q0 -110 -62.5 -152t-201.5 -42h-12v75q51 5 79 22t38 54h-138v191z" />
    <glyph glyph-name="ncommaaccent" unicode="&#x146;" horiz-adv-x="1214" 
d="M719 1087q201 0 293 -102.5t92 -325.5v-659h-291v600q0 133 -43.5 195.5t-142.5 62.5q-66 0 -111 -21t-69.5 -63t-35 -95t-10.5 -128v-551h-290v1059h276v-148h6q52 84 137.5 130t188.5 46zM453 -102h297v-148q0 -110 -62.5 -152t-202.5 -42h-12v75q51 5 79 22t38 54
h-137v191z" />
    <glyph glyph-name="Ncaron" unicode="&#x147;" 
d="M141 1462h320l610 -981h4v981h301v-1462h-321l-609 979h-4v-979h-301v1462zM391 1886h236l127 -166l131 166h225l-227 -291h-267z" />
    <glyph glyph-name="ncaron" unicode="&#x148;" horiz-adv-x="1214" 
d="M719 1087q201 0 293 -102.5t92 -325.5v-659h-291v600q0 133 -43.5 195.5t-142.5 62.5q-66 0 -111 -21t-69.5 -63t-35 -95t-10.5 -128v-551h-290v1059h276v-148h6q52 84 137.5 130t188.5 46zM248 1497h235l127 -166l131 166h226l-228 -291h-266z" />
    <glyph glyph-name="Omacron" unicode="&#x14c;" horiz-adv-x="1593" 
d="M797 1497q216 0 381 -101t251.5 -275.5t86.5 -395.5q0 -159 -50 -298t-141.5 -241.5t-227.5 -161.5t-300 -59t-300 59t-227.5 161.5t-141.5 241.5t-50 298q0 218 85 392t250 277t384 103zM399 725q0 -139 42.5 -247.5t134 -175t221.5 -66.5q99 0 176.5 38.5t124.5 106.5
t71.5 155t24.5 189q0 107 -24.5 197t-72 159t-125 107.5t-177.5 38.5q-130 0 -221 -67.5t-133 -178.5t-42 -256zM436 1810h723v-153h-723v153z" />
    <glyph glyph-name="omacron" unicode="&#x14d;" horiz-adv-x="1251" 
d="M625 1087q251 0 400 -153t149 -406q0 -254 -151 -405.5t-398 -151.5q-249 0 -398 152.5t-149 404.5q0 254 149 406.5t398 152.5zM369 528q0 -162 66 -250t190 -88q127 0 192.5 89t65.5 249q0 69 -13 126.5t-41.5 107.5t-81 78t-124.5 28q-122 0 -188 -88.5t-66 -251.5z
M266 1421h723v-153h-723v153z" />
    <glyph glyph-name="Obreve" unicode="&#x14e;" horiz-adv-x="1593" 
d="M797 1497q216 0 381 -101t251.5 -275.5t86.5 -395.5q0 -159 -50 -298t-141.5 -241.5t-227.5 -161.5t-300 -59t-300 59t-227.5 161.5t-141.5 241.5t-50 298q0 218 85 392t250 277t384 103zM399 725q0 -139 42.5 -247.5t134 -175t221.5 -66.5q99 0 176.5 38.5t124.5 106.5
t71.5 155t24.5 189q0 107 -24.5 197t-72 159t-125 107.5t-177.5 38.5q-130 0 -221 -67.5t-133 -178.5t-42 -256zM457 1886h133q10 -67 68.5 -102t134.5 -35q191 0 225 137h129q-19 -142 -110.5 -216.5t-254.5 -74.5q-148 0 -230.5 75t-94.5 216z" />
    <glyph glyph-name="obreve" unicode="&#x14f;" horiz-adv-x="1251" 
d="M625 1087q251 0 400 -153t149 -406q0 -254 -151 -405.5t-398 -151.5q-249 0 -398 152.5t-149 404.5q0 254 149 406.5t398 152.5zM369 528q0 -162 66 -250t190 -88q127 0 192.5 89t65.5 249q0 69 -13 126.5t-41.5 107.5t-81 78t-124.5 28q-122 0 -188 -88.5t-66 -251.5z
M287 1497h133q9 -63 66 -100t137 -37q189 0 225 137h129q-19 -143 -111 -217t-254 -74q-147 0 -230 74.5t-95 216.5z" />
    <glyph glyph-name="Ohungarumlaut" unicode="&#x150;" horiz-adv-x="1593" 
d="M797 1497q216 0 381 -101t251.5 -275.5t86.5 -395.5q0 -159 -50 -298t-141.5 -241.5t-227.5 -161.5t-300 -59t-300 59t-227.5 161.5t-141.5 241.5t-50 298q0 218 85 392t250 277t384 103zM399 725q0 -139 42.5 -247.5t134 -175t221.5 -66.5q99 0 176.5 38.5t124.5 106.5
t71.5 155t24.5 189q0 107 -24.5 197t-72 159t-125 107.5t-177.5 38.5q-130 0 -221 -67.5t-133 -178.5t-42 -256zM645 1886h322l-305 -291h-203zM1069 1886h322l-306 -291h-202z" />
    <glyph glyph-name="ohungarumlaut" unicode="&#x151;" horiz-adv-x="1251" 
d="M625 1087q251 0 400 -153t149 -406q0 -254 -151 -405.5t-398 -151.5q-249 0 -398 152.5t-149 404.5q0 254 149 406.5t398 152.5zM369 528q0 -162 66 -250t190 -88q127 0 192.5 89t65.5 249q0 69 -13 126.5t-41.5 107.5t-81 78t-124.5 28q-122 0 -188 -88.5t-66 -251.5z
M475 1497h322l-305 -291h-203zM899 1497h322l-306 -291h-202z" />
    <glyph glyph-name="OE" unicode="&#x152;" horiz-adv-x="2238" 
d="M764 1497q112 0 202.5 -35.5t143.5 -103.5h4v104h1024v-270h-725v-313h664v-250h-664v-359h739v-270h-1038v111h-4q-64 -70 -157.5 -108t-194.5 -38q-124 0 -232.5 38.5t-189.5 108t-139.5 164t-88.5 208.5t-30 239q0 119 28.5 232t86 211t138.5 172t192.5 116.5
t240.5 42.5zM399 727q0 -96 22.5 -182t67 -156t119.5 -111.5t172 -41.5q149 0 235.5 92.5t86.5 238.5v353q0 133 -87.5 220t-230.5 87q-98 0 -173.5 -41t-120.5 -111.5t-68 -158.5t-23 -189z" />
    <glyph glyph-name="oe" unicode="&#x153;" horiz-adv-x="1896" 
d="M598 1087q125 0 218.5 -43.5t146.5 -123.5q50 75 151 121t205 46q245 0 381 -164.5t137 -463.5h-756q0 -127 67 -198t185 -71q154 0 213 146h283q-51 -172 -182.5 -268.5t-313.5 -96.5q-127 0 -227 46t-156 135q-51 -87 -152 -134t-223 -47q-119 0 -214.5 45.5
t-156.5 123.5t-93.5 179t-32.5 216q0 154 62 279t181.5 199t276.5 74zM369 524q0 -64 12.5 -121.5t38 -106.5t70.5 -77.5t104 -28.5q114 0 173.5 87t59.5 255q0 336 -229 336q-111 0 -170 -93.5t-59 -250.5zM1081 643h465q-5 108 -64 166.5t-171 58.5q-99 0 -161.5 -59
t-68.5 -166z" />
    <glyph glyph-name="Racute" unicode="&#x154;" horiz-adv-x="1478" 
d="M141 1462h789q190 0 309 -115.5t119 -287.5q0 -275 -232 -367v-4q33 -9 61 -25.5t48.5 -34t36.5 -45t26.5 -48t19 -55.5t12.5 -54t7 -57t3.5 -51.5t2.5 -49.5q5 -106 18 -168t40 -100h-322q-26 64 -41 254q-5 68 -12.5 112.5t-24.5 87t-43.5 66t-69 37.5t-102.5 14h-323
v-571h-322v1462zM463 801h354q106 0 162.5 49t56.5 160q0 106 -56 154t-165 48h-352v-411zM768 1886h322l-316 -291h-203z" />
    <glyph glyph-name="racute" unicode="&#x155;" horiz-adv-x="796" 
d="M729 1087q29 0 64 -10v-270q-48 10 -105 10q-150 0 -218.5 -91.5t-68.5 -248.5v-477h-290v1059h276v-197h4q41 100 135 162.5t203 62.5zM518 1497h322l-316 -291h-202z" />
    <glyph glyph-name="Rcommaaccent" unicode="&#x156;" horiz-adv-x="1478" 
d="M141 1462h789q190 0 309 -115.5t119 -287.5q0 -275 -232 -367v-4q33 -9 61 -25.5t48.5 -34t36.5 -45t26.5 -48t19 -55.5t12.5 -54t7 -57t3.5 -51.5t2.5 -49.5q5 -106 18 -168t40 -100h-322q-26 64 -41 254q-5 68 -12.5 112.5t-24.5 87t-43.5 66t-69 37.5t-102.5 14h-323
v-571h-322v1462zM463 801h354q106 0 162.5 49t56.5 160q0 106 -56 154t-165 48h-352v-411zM604 -102h297v-148q0 -110 -62.5 -152t-201.5 -42h-12v75q51 5 78.5 22t37.5 54h-137v191z" />
    <glyph glyph-name="rcommaaccent" unicode="&#x157;" horiz-adv-x="796" 
d="M729 1087q29 0 64 -10v-270q-48 10 -105 10q-150 0 -218.5 -91.5t-68.5 -248.5v-477h-290v1059h276v-197h4q41 100 135 162.5t203 62.5zM111 -102h297v-148q0 -110 -62.5 -152t-202.5 -42h-12v75q51 5 79 22t38 54h-137v191z" />
    <glyph glyph-name="Rcaron" unicode="&#x158;" horiz-adv-x="1478" 
d="M141 1462h789q190 0 309 -115.5t119 -287.5q0 -275 -232 -367v-4q33 -9 61 -25.5t48.5 -34t36.5 -45t26.5 -48t19 -55.5t12.5 -54t7 -57t3.5 -51.5t2.5 -49.5q5 -106 18 -168t40 -100h-322q-26 64 -41 254q-5 68 -12.5 112.5t-24.5 87t-43.5 66t-69 37.5t-102.5 14h-323
v-571h-322v1462zM463 801h354q106 0 162.5 49t56.5 160q0 106 -56 154t-165 48h-352v-411zM334 1886h235l127 -166l131 166h226l-228 -291h-266z" />
    <glyph glyph-name="rcaron" unicode="&#x159;" horiz-adv-x="796" 
d="M729 1087q29 0 64 -10v-270q-48 10 -105 10q-150 0 -218.5 -91.5t-68.5 -248.5v-477h-290v1059h276v-197h4q41 100 135 162.5t203 62.5zM92 1497h236l127 -166l131 166h225l-227 -291h-267z" />
    <glyph glyph-name="Sacute" unicode="&#x15a;" horiz-adv-x="1329" 
d="M645 1497q121 0 224.5 -27.5t185.5 -83t129 -147.5t47 -213h-311q-8 112 -77 166.5t-210 54.5q-96 0 -159.5 -42t-63.5 -124q0 -28 5 -46.5t24 -36.5t41 -30t73.5 -29t102 -30.5t143.5 -36.5q45 -11 74 -19t73.5 -22.5t74 -28t67.5 -34t63 -42.5t51.5 -53t42 -65.5
t25.5 -79t10 -94.5q0 -211 -161 -340t-447 -129q-95 0 -183.5 18t-169 58t-140 98t-95 144.5t-35.5 191.5v10h311q0 -74 28.5 -129t76.5 -84.5t102 -43t115 -13.5q58 0 107.5 10t90.5 31t65 57t24 84q0 69 -59 115t-193 80q-35 9 -98.5 25t-110 28.5t-88.5 26.5
q-165 55 -243.5 150t-78.5 235q0 86 31 159t84 124t123.5 87t148.5 53t160 17zM748 1886h321l-315 -291h-203z" />
    <glyph glyph-name="sacute" unicode="&#x15b;" horiz-adv-x="1099" 
d="M545 1087q215 0 334 -86.5t133 -250.5h-277q-11 143 -198 143q-162 0 -162 -98q0 -50 51.5 -80.5t175.5 -55.5q156 -31 231.5 -59.5t124.5 -69.5q82 -73 82 -190q0 -98 -40 -171.5t-109.5 -115.5t-153 -62t-180.5 -20q-224 0 -358 95.5t-140 277.5h277q0 -85 63.5 -131.5
t159.5 -46.5q80 0 135.5 35t55.5 100q0 57 -71 91t-249 71q-185 38 -265.5 104.5t-80.5 180.5q0 168 118.5 253.5t342.5 85.5zM623 1497h321l-315 -291h-203z" />
    <glyph glyph-name="Scircumflex" unicode="&#x15c;" horiz-adv-x="1329" 
d="M645 1497q121 0 224.5 -27.5t185.5 -83t129 -147.5t47 -213h-311q-8 112 -77 166.5t-210 54.5q-96 0 -159.5 -42t-63.5 -124q0 -28 5 -46.5t24 -36.5t41 -30t73.5 -29t102 -30.5t143.5 -36.5q45 -11 74 -19t73.5 -22.5t74 -28t67.5 -34t63 -42.5t51.5 -53t42 -65.5
t25.5 -79t10 -94.5q0 -211 -161 -340t-447 -129q-95 0 -183.5 18t-169 58t-140 98t-95 144.5t-35.5 191.5v10h311q0 -74 28.5 -129t76.5 -84.5t102 -43t115 -13.5q58 0 107.5 10t90.5 31t65 57t24 84q0 69 -59 115t-193 80q-35 9 -98.5 25t-110 28.5t-88.5 26.5
q-165 55 -243.5 150t-78.5 235q0 86 31 159t84 124t123.5 87t148.5 53t160 17zM541 1886h266l225 -291h-235l-127 166l-131 -166h-226z" />
    <glyph glyph-name="scircumflex" unicode="&#x15d;" horiz-adv-x="1099" 
d="M545 1087q215 0 334 -86.5t133 -250.5h-277q-11 143 -198 143q-162 0 -162 -98q0 -50 51.5 -80.5t175.5 -55.5q156 -31 231.5 -59.5t124.5 -69.5q82 -73 82 -190q0 -98 -40 -171.5t-109.5 -115.5t-153 -62t-180.5 -20q-224 0 -358 95.5t-140 277.5h277q0 -85 63.5 -131.5
t159.5 -46.5q80 0 135.5 35t55.5 100q0 57 -71 91t-249 71q-185 38 -265.5 104.5t-80.5 180.5q0 168 118.5 253.5t342.5 85.5zM424 1497h266l225 -291h-235l-127 166l-131 -166h-225z" />
    <glyph glyph-name="Scedilla" unicode="&#x15e;" horiz-adv-x="1329" 
d="M645 1497q123 0 227.5 -28.5t185.5 -84.5t127 -147.5t46 -210.5h-311q-12 221 -287 221q-94 0 -158.5 -42t-64.5 -124q0 -54 27.5 -83t107.5 -56q67 -23 344 -92q190 -46 290.5 -150.5t100.5 -265.5q0 -210 -159 -338t-439 -131l-53 -71l4 -5q38 15 82 15q79 0 127.5 -41
t48.5 -117q0 -91 -67.5 -140.5t-190.5 -49.5q-117 0 -236 45l43 98q87 -37 160 -37q45 0 69.5 18.5t24.5 51.5q0 31 -23.5 49t-64.5 18q-33 0 -76 -16l-43 49l99 137q-247 24 -392 155t-145 347v14h311q0 -74 28.5 -129t76.5 -84.5t102 -43t115 -13.5q126 0 206.5 45
t80.5 137q0 71 -59.5 116.5t-198.5 80.5l-90 22.5t-99.5 25.5t-83.5 24q-165 52 -252.5 145.5t-87.5 243.5q0 86 31 159.5t84 124.5t123 87.5t148.5 53.5t160.5 17z" />
    <glyph glyph-name="scedilla" unicode="&#x15f;" horiz-adv-x="1099" 
d="M545 1087q213 0 333.5 -85.5t133.5 -251.5h-277q-11 143 -198 143q-162 0 -162 -98q0 -56 59.5 -85t196.5 -57q143 -29 213.5 -57t116.5 -68q79 -70 79 -188q0 -172 -122.5 -268.5t-346.5 -100.5l-57 -77l4 -5q38 15 82 15q80 0 128 -42t48 -116q0 -90 -67 -140t-191 -50
q-117 0 -235 45l43 98q87 -37 161 -37q44 0 68.5 18.5t24.5 51.5t-25 50t-61 17q-37 0 -78 -16l-43 49l102 143q-198 19 -304 112.5t-112 256.5h277q0 -86 64 -132t159 -46q79 0 135 34.5t56 98.5q0 56 -67.5 91t-252.5 73t-265.5 105t-80.5 180q0 168 118.5 253.5
t342.5 85.5z" />
    <glyph glyph-name="Scaron" unicode="&#x160;" horiz-adv-x="1329" 
d="M645 1497q121 0 224.5 -27.5t185.5 -83t129 -147.5t47 -213h-311q-8 112 -77 166.5t-210 54.5q-96 0 -159.5 -42t-63.5 -124q0 -28 5 -46.5t24 -36.5t41 -30t73.5 -29t102 -30.5t143.5 -36.5q45 -11 74 -19t73.5 -22.5t74 -28t67.5 -34t63 -42.5t51.5 -53t42 -65.5
t25.5 -79t10 -94.5q0 -211 -161 -340t-447 -129q-95 0 -183.5 18t-169 58t-140 98t-95 144.5t-35.5 191.5v10h311q0 -74 28.5 -129t76.5 -84.5t102 -43t115 -13.5q58 0 107.5 10t90.5 31t65 57t24 84q0 69 -59 115t-193 80q-35 9 -98.5 25t-110 28.5t-88.5 26.5
q-165 55 -243.5 150t-78.5 235q0 86 31 159t84 124t123.5 87t148.5 53t160 17zM313 1886h236l127 -166l131 166h225l-227 -291h-266z" />
    <glyph glyph-name="scaron" unicode="&#x161;" horiz-adv-x="1099" 
d="M545 1087q215 0 334 -86.5t133 -250.5h-277q-11 143 -198 143q-162 0 -162 -98q0 -50 51.5 -80.5t175.5 -55.5q156 -31 231.5 -59.5t124.5 -69.5q82 -73 82 -190q0 -98 -40 -171.5t-109.5 -115.5t-153 -62t-180.5 -20q-224 0 -358 95.5t-140 277.5h277q0 -85 63.5 -131.5
t159.5 -46.5q80 0 135.5 35t55.5 100q0 57 -71 91t-249 71q-185 38 -265.5 104.5t-80.5 180.5q0 168 118.5 253.5t342.5 85.5zM197 1497h235l127 -166l131 166h225l-227 -291h-266z" />
    <glyph glyph-name="Tcommaaccent" unicode="&#x162;" horiz-adv-x="1251" 
d="M27 1462h1198v-270h-439v-1192h-321v1192h-438v270zM477 -102h297v-148q0 -110 -62.5 -152t-201.5 -42h-12v75q51 5 78.5 22t37.5 54h-137v191z" />
    <glyph glyph-name="tcommaaccent" unicode="&#x163;" horiz-adv-x="720" 
d="M188 1376h291v-317h213v-195h-213v-524q0 -74 24.5 -98.5t98.5 -24.5q57 0 90 8v-227q-61 -10 -172 -10q-171 0 -251.5 59t-80.5 197v620h-176v195h176v317zM289 -102h297v-148q0 -110 -62.5 -152t-201.5 -42h-13v75q51 5 79 22t38 54h-137v191z" />
    <glyph glyph-name="Tcaron" unicode="&#x164;" horiz-adv-x="1251" 
d="M27 1462h1198v-270h-439v-1192h-321v1192h-438v270zM266 1886h236l127 -166l131 166h225l-227 -291h-266z" />
    <glyph glyph-name="tcaron" unicode="&#x165;" horiz-adv-x="720" 
d="M188 1376h291v-317h213v-195h-213v-524q0 -74 24.5 -98.5t98.5 -24.5q57 0 90 8v-227q-61 -10 -172 -10q-171 0 -251.5 59t-80.5 197v620h-176v195h176v317zM651 1462h303l-166 -291h-200z" />
    <glyph glyph-name="Tbar" unicode="&#x166;" horiz-adv-x="1251" 
d="M27 1462h1198v-270h-439v-246h301v-196h-301v-750h-321v750h-301v196h301v246h-438v270z" />
    <glyph glyph-name="tbar" unicode="&#x167;" horiz-adv-x="720" 
d="M188 1376h291v-317h213v-195h-213v-166h189v-155h-189v-201q0 -73 23.5 -99t97.5 -26q59 0 92 8v-227q-61 -10 -168 -10q-169 0 -252.5 56t-83.5 200v299h-159v155h159v166h-176v195h176v317z" />
    <glyph glyph-name="Utilde" unicode="&#x168;" 
d="M135 1462h322v-915q0 -161 73 -236t228 -75q166 0 234.5 73.5t68.5 237.5v915h321v-915q0 -278 -159 -430t-465 -152q-312 0 -467.5 151t-155.5 431v915zM623 1866q60 0 163 -39q87 -33 129 -33q36 0 57.5 16.5t31.5 55.5h131q-24 -122 -81.5 -178t-148.5 -56
q-63 0 -157 33q-98 37 -144 37q-69 0 -92 -86h-129q13 104 78.5 177t161.5 73z" />
    <glyph glyph-name="utilde" unicode="&#x169;" horiz-adv-x="1214" 
d="M111 1059h290v-600q0 -129 42 -193.5t145 -64.5q119 0 172 71.5t53 229.5v557h291v-1059h-277v147h-6q-54 -87 -139.5 -131.5t-185.5 -44.5q-204 0 -294.5 104t-90.5 326v658zM475 1477q61 0 154 -35q93 -37 139 -37q37 0 57 17t31 55h131q-24 -123 -81.5 -178.5
t-147.5 -55.5q-68 0 -158 33q-98 37 -143 37q-69 0 -92 -86h-129q13 103 77 176.5t162 73.5z" />
    <glyph glyph-name="Umacron" unicode="&#x16a;" 
d="M135 1462h322v-915q0 -161 73 -236t228 -75q166 0 234.5 73.5t68.5 237.5v915h321v-915q0 -278 -159 -430t-465 -152q-312 0 -467.5 151t-155.5 431v915zM397 1810h723v-153h-723v153z" />
    <glyph glyph-name="umacron" unicode="&#x16b;" horiz-adv-x="1214" 
d="M111 1059h290v-600q0 -129 42 -193.5t145 -64.5q119 0 172 71.5t53 229.5v557h291v-1059h-277v147h-6q-54 -87 -139.5 -131.5t-185.5 -44.5q-204 0 -294.5 104t-90.5 326v658zM252 1421h723v-153h-723v153z" />
    <glyph glyph-name="Ubreve" unicode="&#x16c;" 
d="M135 1462h322v-915q0 -161 73 -236t228 -75q166 0 234.5 73.5t68.5 237.5v915h321v-915q0 -278 -159 -430t-465 -152q-312 0 -467.5 151t-155.5 431v915zM418 1886h133q10 -67 68.5 -102t134.5 -35q191 0 225 137h129q-19 -142 -110.5 -216.5t-254.5 -74.5
q-148 0 -230.5 75t-94.5 216z" />
    <glyph glyph-name="ubreve" unicode="&#x16d;" horiz-adv-x="1214" 
d="M111 1059h290v-600q0 -129 42 -193.5t145 -64.5q119 0 172 71.5t53 229.5v557h291v-1059h-277v147h-6q-54 -87 -139.5 -131.5t-185.5 -44.5q-204 0 -294.5 104t-90.5 326v658zM270 1497h133q9 -63 66 -100t137 -37q189 0 225 137h130q-19 -143 -111 -217t-254 -74
q-147 0 -230.5 75t-95.5 216z" />
    <glyph glyph-name="Uring" unicode="&#x16e;" 
d="M135 1462h322v-915q0 -161 73 -236t228 -75q166 0 234.5 73.5t68.5 237.5v915h321v-915q0 -278 -159 -430t-465 -152q-312 0 -467.5 151t-155.5 431v915zM758 1993q103 0 171 -68t68 -166q0 -97 -69 -165t-170 -68t-170.5 66.5t-69.5 166.5q0 98 70 166t170 68zM633 1759
q0 -57 35 -93t90 -36q57 0 91 36t34 93q0 52 -32.5 90.5t-94.5 38.5q-53 0 -88 -34.5t-35 -94.5z" />
    <glyph glyph-name="uring" unicode="&#x16f;" horiz-adv-x="1214" 
d="M111 1059h290v-600q0 -129 42 -193.5t145 -64.5q119 0 172 71.5t53 229.5v557h291v-1059h-277v147h-6q-54 -87 -139.5 -131.5t-185.5 -44.5q-204 0 -294.5 104t-90.5 326v658zM612 1647q109 0 179.5 -70.5t70.5 -175.5t-73 -175.5t-179 -70.5q-111 0 -180.5 70.5
t-69.5 175.5q0 104 72.5 175t179.5 71zM481 1401q0 -59 34 -98t95 -39q59 0 95 38t36 99q0 59 -34 98t-97 39q-56 0 -92.5 -37t-36.5 -100z" />
    <glyph glyph-name="Uhungarumlaut" unicode="&#x170;" 
d="M135 1462h322v-915q0 -161 73 -236t228 -75q166 0 234.5 73.5t68.5 237.5v915h321v-915q0 -278 -159 -430t-465 -152q-312 0 -467.5 151t-155.5 431v915zM606 1886h322l-305 -291h-203zM1030 1886h322l-305 -291h-203z" />
    <glyph glyph-name="uhungarumlaut" unicode="&#x171;" horiz-adv-x="1214" 
d="M111 1059h290v-600q0 -129 42 -193.5t145 -64.5q119 0 172 71.5t53 229.5v557h291v-1059h-277v147h-6q-54 -87 -139.5 -131.5t-185.5 -44.5q-204 0 -294.5 104t-90.5 326v658zM459 1497h321l-305 -291h-203zM883 1497h321l-305 -291h-203z" />
    <glyph glyph-name="Uogonek" unicode="&#x172;" 
d="M135 1462h322v-917q0 -160 73 -234.5t228 -74.5q165 0 234 74t69 237v915h321v-917q0 -257 -139 -408.5t-407 -169.5q-65 -72 -92 -116t-27 -95q0 -35 21.5 -56.5t54.5 -21.5q58 0 112 66l92 -53q-46 -71 -106 -103t-148 -32q-101 0 -162 46.5t-61 123.5q0 122 168 241
q-277 17 -415 167.5t-138 414.5v913z" />
    <glyph glyph-name="uogonek" unicode="&#x173;" horiz-adv-x="1214" 
d="M111 1059h290v-598q0 -134 43 -197t144 -63q112 0 168.5 67.5t56.5 231.5v559h291v-1059h-133q-72 -74 -103.5 -128.5t-31.5 -113.5q0 -37 22 -58.5t55 -21.5q57 0 113 66l92 -53q-46 -70 -106 -102.5t-148 -32.5q-100 0 -161.5 47t-61.5 125q0 68 43 130.5t143 141.5
v147h-6q-52 -87 -138.5 -131.5t-186.5 -44.5q-199 0 -292 101.5t-93 326.5v660z" />
    <glyph glyph-name="Wcircumflex" unicode="&#x174;" horiz-adv-x="1933" 
d="M6 1462h322l231 -995h4l254 995h301l250 -1007h4l240 1007h315l-393 -1462h-320l-247 995h-4l-244 -995h-326zM840 1886h266l225 -291h-235l-127 166l-131 -166h-226z" />
    <glyph glyph-name="wcircumflex" unicode="&#x175;" horiz-adv-x="1667" 
d="M12 1059h307l195 -719h4l176 719h283l180 -717h4l195 717h299l-334 -1059h-299l-188 711h-5l-180 -711h-301zM707 1497h266l225 -291h-235l-127 166l-131 -166h-226z" />
    <glyph glyph-name="Ycircumflex" unicode="&#x176;" horiz-adv-x="1366" 
d="M-18 1462h362l342 -577l340 577h358l-542 -901v-561h-322v569zM559 1886h266l226 -291h-236l-127 166l-131 -166h-225z" />
    <glyph glyph-name="ycircumflex" unicode="&#x177;" horiz-adv-x="1062" 
d="M-12 1059h311l240 -725h4l231 725h301l-442 -1192q-46 -126 -130.5 -183t-230.5 -57q-70 0 -182 11v239q76 -10 154 -10q60 0 94.5 37t34.5 96q0 28 -13 66zM414 1497h266l225 -291h-235l-127 166l-131 -166h-226z" />
    <glyph glyph-name="Ydieresis" unicode="&#x178;" horiz-adv-x="1366" 
d="M-18 1462h362l342 -577l340 577h358l-542 -901v-561h-322v569zM340 1853h276v-239h-276v239zM762 1853h276v-239h-276v239z" />
    <glyph glyph-name="Zacute" unicode="&#x179;" horiz-adv-x="1327" 
d="M109 1462h1151v-254l-785 -938h805v-270h-1233v254l784 938h-722v270zM758 1886h321l-315 -291h-203z" />
    <glyph glyph-name="zacute" unicode="&#x17a;" horiz-adv-x="1062" 
d="M86 1059h893v-219l-551 -621h590v-219h-973v219l551 621h-510v219zM602 1497h322l-316 -291h-202z" />
    <glyph glyph-name="Zdotaccent" unicode="&#x17b;" horiz-adv-x="1327" 
d="M109 1462h1151v-254l-785 -938h805v-270h-1233v254l784 938h-722v270zM541 1853h276v-239h-276v239z" />
    <glyph glyph-name="zdotaccent" unicode="&#x17c;" horiz-adv-x="1062" 
d="M86 1059h893v-219l-551 -621h590v-219h-973v219l551 621h-510v219zM393 1464h277v-239h-277v239z" />
    <glyph glyph-name="Zcaron" unicode="&#x17d;" horiz-adv-x="1327" 
d="M109 1462h1151v-254l-785 -938h805v-270h-1233v254l784 938h-722v270zM324 1886h235l127 -166l131 166h225l-227 -291h-266z" />
    <glyph glyph-name="zcaron" unicode="&#x17e;" horiz-adv-x="1062" 
d="M86 1059h893v-219l-551 -621h590v-219h-973v219l551 621h-510v219zM176 1497h236l127 -166l131 166h225l-227 -291h-267z" />
    <glyph glyph-name="florin" unicode="&#x192;" horiz-adv-x="1138" 
d="M893 1497q88 0 154 -14l-37 -219q-32 14 -78 14q-77 0 -112 -27t-48 -100l-51 -266h201l-33 -195h-205l-115 -635q-14 -74 -29 -127.5t-38.5 -101.5t-54.5 -78.5t-75 -53t-101.5 -32.5t-133.5 -10q-91 0 -147 6l39 219q40 -6 92 -6q32 0 56.5 10t37 21.5t22.5 36.5
t13 36.5t8 40.5l129 674h-188l37 195h186l49 260q38 199 132.5 275.5t289.5 76.5z" />
    <glyph glyph-name="Scommaaccent" unicode="&#x218;" horiz-adv-x="1329" 
d="M645 1497q121 0 224.5 -27.5t185.5 -83t129 -147.5t47 -213h-311q-8 112 -77 166.5t-210 54.5q-96 0 -159.5 -42t-63.5 -124q0 -28 5 -46.5t24 -36.5t41 -30t73.5 -29t102 -30.5t143.5 -36.5q45 -11 74 -19t73.5 -22.5t74 -28t67.5 -34t63 -42.5t51.5 -53t42 -65.5
t25.5 -79t10 -94.5q0 -211 -161 -340t-447 -129q-95 0 -183.5 18t-169 58t-140 98t-95 144.5t-35.5 191.5v10h311q0 -74 28.5 -129t76.5 -84.5t102 -43t115 -13.5q58 0 107.5 10t90.5 31t65 57t24 84q0 69 -59 115t-193 80q-35 9 -98.5 25t-110 28.5t-88.5 26.5
q-165 55 -243.5 150t-78.5 235q0 86 31 159t84 124t123.5 87t148.5 53t160 17zM504 -102h297v-148q0 -110 -62.5 -152t-201.5 -42h-13v75q51 5 79 22t38 54h-137v191z" />
    <glyph glyph-name="scommaaccent" unicode="&#x219;" horiz-adv-x="1099" 
d="M545 1087q215 0 334 -86.5t133 -250.5h-277q-11 143 -198 143q-162 0 -162 -98q0 -50 51.5 -80.5t175.5 -55.5q156 -31 231.5 -59.5t124.5 -69.5q82 -73 82 -190q0 -98 -40 -171.5t-109.5 -115.5t-153 -62t-180.5 -20q-224 0 -358 95.5t-140 277.5h277q0 -85 63.5 -131.5
t159.5 -46.5q80 0 135.5 35t55.5 100q0 57 -71 91t-249 71q-185 38 -265.5 104.5t-80.5 180.5q0 168 118.5 253.5t342.5 85.5zM393 -102h297v-148q0 -110 -62.5 -152t-201.5 -42h-12v75q51 5 78.5 22t37.5 54h-137v191z" />
    <glyph glyph-name="uni021A" unicode="&#x21a;" horiz-adv-x="1251" 
d="M27 1462h1198v-270h-439v-1192h-321v1192h-438v270zM477 -102h297v-148q0 -110 -62.5 -152t-201.5 -42h-12v75q51 5 78.5 22t37.5 54h-137v191z" />
    <glyph glyph-name="uni021B" unicode="&#x21b;" horiz-adv-x="720" 
d="M188 1376h291v-317h213v-195h-213v-524q0 -74 24.5 -98.5t98.5 -24.5q57 0 90 8v-227q-61 -10 -172 -10q-171 0 -251.5 59t-80.5 197v620h-176v195h176v317zM289 -102h297v-148q0 -110 -62.5 -152t-201.5 -42h-13v75q51 5 79 22t38 54h-137v191z" />
    <glyph glyph-name="circumflex" unicode="&#x2c6;" horiz-adv-x="530" 
d="M133 1497h266l226 -291h-236l-127 166l-131 -166h-225z" />
    <glyph glyph-name="caron" unicode="&#x2c7;" horiz-adv-x="530" 
d="M-94 1497h235l127 -166l131 166h226l-228 -291h-266z" />
    <glyph glyph-name="uni02C9" unicode="&#x2c9;" horiz-adv-x="530" 
d="M-96 1421h723v-153h-723v153z" />
    <glyph glyph-name="breve" unicode="&#x2d8;" horiz-adv-x="530" 
d="M-80 1497h133q9 -63 66 -100t137 -37q189 0 225 137h129q-19 -143 -110.5 -217t-253.5 -74q-147 0 -230.5 75t-95.5 216z" />
    <glyph glyph-name="dotaccent" unicode="&#x2d9;" horiz-adv-x="530" 
d="M127 1464h276v-239h-276v239z" />
    <glyph glyph-name="ring" unicode="&#x2da;" horiz-adv-x="530" 
d="M266 1647q109 0 179.5 -70.5t70.5 -175.5t-73 -175.5t-179 -70.5q-111 0 -180.5 70.5t-69.5 175.5q0 104 72.5 175t179.5 71zM135 1401q0 -59 34 -98t95 -39q59 0 95 38t36 99q0 59 -34 98t-97 39q-56 0 -92.5 -37t-36.5 -100z" />
    <glyph glyph-name="ogonek" unicode="&#x2db;" horiz-adv-x="530" 
d="M238 0h131q-88 -96 -110 -130q-40 -59 -40 -112q0 -39 23 -59.5t53 -20.5q58 0 113 66l92 -53q-47 -72 -107 -103.5t-147 -31.5q-101 0 -162 46.5t-61 123.5q0 69 50.5 133t164.5 141z" />
    <glyph glyph-name="tilde" unicode="&#x2dc;" horiz-adv-x="530" 
d="M129 1477q61 0 154 -35q93 -37 139 -37q37 0 57 17t31 55h131q-24 -123 -81.5 -178.5t-147.5 -55.5q-68 0 -158 33q-98 37 -143 37q-70 0 -93 -86h-129q13 103 77.5 176.5t162.5 73.5z" />
    <glyph glyph-name="hungarumlaut" unicode="&#x2dd;" horiz-adv-x="530" 
d="M72 1497h321l-305 -291h-203zM496 1497h321l-305 -291h-203z" />
    <glyph glyph-name="uni0394" unicode="&#x394;" horiz-adv-x="1394" 
d="M537 1462h329l543 -1462h-1423zM700 1102h-4l-290 -832h577z" />
    <glyph glyph-name="uni03A9" unicode="&#x3a9;" horiz-adv-x="1585" 
d="M793 1497q157 0 290 -50t226.5 -140t145.5 -219.5t52 -282.5q0 -166 -73.5 -303.5t-212.5 -229.5v-10h288v-262h-624v242q161 110 231 236.5t70 307.5q0 211 -106 326t-287 115q-183 0 -288.5 -116t-105.5 -325q0 -169 66.5 -295.5t232.5 -248.5v-242h-626v262h280v10
q-131 82 -202.5 219.5t-71.5 313.5q0 147 54.5 276t149.5 220t227.5 143.5t283.5 52.5z" />
    <glyph glyph-name="uni03BC" unicode="&#x3bc;" horiz-adv-x="1214" 
d="M111 1059h290v-598q0 -134 43 -197t144 -63q119 0 172 71.5t53 229.5v557h291v-1059h-277v147h-6q-118 -176 -266 -176q-91 0 -154 49v-393h-290v1432z" />
    <glyph glyph-name="pi" unicode="&#x3c0;" horiz-adv-x="1417" 
d="M31 1059h1345v-219h-225v-555q0 -48 19 -70t65 -22q32 0 68 8v-189q-83 -41 -191 -41q-130 0 -191 58t-61 176v635h-325v-840h-291v840h-213v219z" />
    <glyph glyph-name="uni1E9E" unicode="&#x1e9e;" horiz-adv-x="1622" 
d="M1325 1456l-4 -239q-86 -2 -157.5 -18.5t-121 -54t-49.5 -91.5q0 -57 47.5 -97.5t182.5 -103.5q64 -31 111 -59.5t92.5 -68.5t73.5 -84.5t45.5 -105t17.5 -133.5q0 -109 -38 -193t-106 -136.5t-157.5 -79.5t-196.5 -27q-74 0 -142 14.5t-132 47.5t-110.5 81.5t-75.5 123
t-30 165.5h308q0 -93 51 -140.5t137 -47.5t133 44t47 128q0 83 -51 136.5t-188 113.5q-163 72 -243.5 158t-80.5 202q0 103 63 168t164 88q-27 6 -118 6q-55 0 -94.5 -3t-88.5 -17t-79 -38t-51 -69.5t-21 -109.5v-1016h-322v1012q0 111 30 195t83.5 139t135.5 89t177.5 48
t218.5 14q138 0 290 -12.5t249 -28.5z" />
    <glyph glyph-name="endash" unicode="&#x2013;" horiz-adv-x="1024" 
d="M0 684h1024v-250h-1024v250z" />
    <glyph glyph-name="emdash" unicode="&#x2014;" horiz-adv-x="2048" 
d="M266 684h1516v-250h-1516v250z" />
    <glyph glyph-name="quoteleft" unicode="&#x2018;" horiz-adv-x="569" 
d="M430 1462v-135q-70 -23 -102.5 -72t-32.5 -131v-4h135v-315h-291v325q0 130 82 222.5t209 109.5z" />
    <glyph glyph-name="quoteright" unicode="&#x2019;" horiz-adv-x="569" 
d="M139 1462h291v-325q0 -129 -81.5 -222t-209.5 -110v135q135 45 135 203v4h-135v315z" />
    <glyph glyph-name="quotesinglbase" unicode="&#x201a;" horiz-adv-x="569" 
d="M139 315h291v-327q0 -127 -82.5 -220t-208.5 -110v135q70 23 102.5 71.5t32.5 131.5v4h-135v315z" />
    <glyph glyph-name="quotedblleft" unicode="&#x201c;" horiz-adv-x="948" 
d="M401 1462v-135q-71 -25 -103 -73t-32 -134h135v-315h-290v328q0 126 81 219t209 110zM838 1462v-135q-72 -24 -104 -74t-32 -133h136v-315h-291v328q0 125 81.5 218.5t209.5 110.5z" />
    <glyph glyph-name="quotedblright" unicode="&#x201d;" horiz-adv-x="948" 
d="M111 1462h290v-329q0 -124 -81 -217.5t-209 -110.5v135q70 24 102.5 72t32.5 135h-135v315zM547 1462h291v-325q0 -128 -80.5 -220.5t-210.5 -111.5v135q70 24 102.5 72.5t32.5 134.5h-135v315z" />
    <glyph glyph-name="quotedblbase" unicode="&#x201e;" horiz-adv-x="948" 
d="M111 315h290v-329q0 -122 -80 -216t-210 -112v135q69 24 102 71.5t33 135.5h-135v315zM547 315h291v-327q0 -124 -80 -218t-211 -112v135q68 23 101.5 71t33.5 136h-135v315z" />
    <glyph glyph-name="dagger" unicode="&#x2020;" horiz-adv-x="1138" 
d="M430 1462h277v-403h383v-240h-383v-1159h-277v1159h-381v240h381v403z" />
    <glyph glyph-name="daggerdbl" unicode="&#x2021;" horiz-adv-x="1138" 
d="M430 1462h277v-403h383v-240h-383v-524h383v-240h-383v-395h-277v395h-381v240h381v524h-381v240h381v403z" />
    <glyph glyph-name="bullet" unicode="&#x2022;" horiz-adv-x="1026" 
d="M512 1096q151 0 259 -105.5t108 -259.5q0 -151 -107 -258.5t-260 -107.5q-151 0 -258 106.5t-107 259.5t107 259t258 106z" />
    <glyph glyph-name="ellipsis" unicode="&#x2026;" horiz-adv-x="2048" 
d="M180 315h322v-315h-322v315zM862 315h322v-315h-322v315zM1544 315h322v-315h-322v315z" />
    <glyph glyph-name="perthousand" unicode="&#x2030;" horiz-adv-x="2349" 
d="M1155 1479h174l-844 -1524h-178zM1202 676q147 0 222 -91.5t75 -267.5q0 -164 -77.5 -255t-221.5 -91q-138 0 -218.5 93.5t-80.5 252.5q0 164 78.5 261.5t222.5 97.5zM1085 332q0 -107 25.5 -167.5t89.5 -60.5q32 0 54 12.5t33.5 30t18 48.5t8 56.5t1.5 65.5
q0 43 -1.5 69.5t-7.5 59.5t-17 52t-32.5 32t-52.5 13q-34 0 -58 -14t-35.5 -31.5t-17.5 -51t-7 -54.5t-1 -60zM1911 676q147 0 222 -91.5t75 -267.5q0 -164 -77 -255t-222 -91q-139 0 -219 93.5t-80 252.5q0 163 78 261t223 98zM1794 336q0 -113 26 -172.5t89 -59.5
q33 0 55.5 13.5t33.5 31t17 50.5t7 55.5t1 62.5q0 37 -0.5 54.5t-3 50t-9.5 49.5t-19 36t-31.5 27.5t-46.5 8.5q-40 0 -65.5 -16t-36.5 -49.5t-14 -63t-3 -78.5zM442 1462q148 0 222.5 -91.5t74.5 -266.5q0 -154 -73.5 -250t-225.5 -96q-139 0 -219 94t-80 252
q0 157 75.5 257.5t225.5 100.5zM326 1122q0 -123 28 -177t86 -54q28 0 48.5 8.5t32.5 26.5t19.5 35t10.5 47t3.5 47.5t0.5 50.5q0 36 -0.5 54.5t-3.5 49.5t-10 48t-19 36t-31.5 27t-46.5 8q-28 0 -49 -8t-33.5 -25.5t-20 -34t-11 -45t-4 -46t-0.5 -48.5z" />
    <glyph glyph-name="guilsinglleft" unicode="&#x2039;" horiz-adv-x="493" 
d="M86 696l322 252v-246l-185 -145l185 -147v-246l-322 256v276z" />
    <glyph glyph-name="guilsinglright" unicode="&#x203a;" horiz-adv-x="493" 
d="M86 948l322 -252v-276l-322 -256v246l184 147l-184 145v246z" />
    <glyph glyph-name="fraction" unicode="&#x2044;" horiz-adv-x="342" 
d="M508 1479h174l-844 -1524h-178z" />
    <glyph glyph-name="Euro" unicode="&#x20ac;" horiz-adv-x="1138" 
d="M807 1479q172 0 373 -103l-125 -256q-145 92 -269 92q-215 0 -286 -280h499l-63 -148h-459q-2 -68 -2 -86h436l-63 -147h-356q65 -324 303 -324q151 0 315 129l-2 -309q-136 -82 -317 -82q-130 0 -235.5 43.5t-178.5 122.5t-120 184.5t-67 235.5h-157l63 147h82v27
q0 34 2 59h-149l63 148h105q21 109 67.5 204.5t119.5 173.5t181.5 123.5t239.5 45.5z" />
    <glyph glyph-name="uni20B9" unicode="&#x20b9;" horiz-adv-x="1138" 
d="M88 1284v150h1047v-150h-320q68 -59 84 -160h236v-149h-232q-12 -191 -124.5 -293t-309.5 -102h-27l492 -580h-375l-471 596v188h219q52 0 91.5 4.5t78 17t64.5 33t44.5 55t24.5 81.5h-522v149h518q-38 160 -270 160h-248z" />
    <glyph glyph-name="uni20BA" unicode="&#x20ba;" horiz-adv-x="1138" 
d="M817 754h287q0 -146 -21 -260t-70.5 -208.5t-129 -156.5t-198 -95.5t-275.5 -33.5h-222v596l-161 -78v164l161 78v139l-161 -78v164l161 78v371h277v-240l360 174v-164l-360 -174v-139l360 174v-164l-360 -174v-485q87 7 149.5 35t101 69.5t61 107t31 135t9.5 165.5z" />
    <glyph glyph-name="uni20BC" unicode="&#x20bc;" horiz-adv-x="1607" 
d="M942 946v-803h-276v803q-78 -23 -139 -95t-95.5 -163t-56.5 -206t-29.5 -210t-7.5 -188v-84h-289v131q0 144 19.5 280t66 270t115.5 238t176 177t240 94v244h276v-244q133 -21 240 -94t176 -177t115.5 -238t66 -270t19.5 -280v-131h-291v84q0 76 -5.5 154.5t-18 172.5
t-37 177.5t-59 158.5t-87.5 127.5t-119 71.5z" />
    <glyph glyph-name="ruble" unicode="&#x20bd;" horiz-adv-x="1138" 
d="M774 283h-287v-283h-276v283h-180v196h180v129h-180v197h180v620h393q496 0 496 -407q0 -109 -37.5 -189t-107 -128t-160 -70.5t-205.5 -22.5h-103v-129h287v-196zM487 805h88q117 0 174.5 47.5t57.5 157.5q0 108 -60 149t-180 41h-80v-395z" />
    <glyph glyph-name="afii61289" unicode="&#x2113;" horiz-adv-x="1024" 
d="M612 1477q139 0 224.5 -84.5t85.5 -223.5q0 -152 -95 -303t-299 -323v-230q0 -62 33.5 -98.5t91.5 -36.5q77 0 181 78h4l96 -147q-165 -138 -352 -138q-161 0 -248.5 85t-87.5 216v84l-113 -98h-4l-100 154l215 176v483q0 180 105.5 293t262.5 113zM528 1133v-351
q162 174 162 371q0 58 -22.5 96.5t-57.5 38.5q-36 0 -59 -46t-23 -109z" />
    <glyph glyph-name="trademark" unicode="&#x2122;" horiz-adv-x="2048" 
d="M127 1462h688v-164h-240v-680h-208v680h-240v164zM924 1462h278l211 -555l211 555h277v-844h-197v599h-4l-217 -599h-142l-217 599h-4v-599h-196v844z" />
    <glyph glyph-name="Omega" unicode="&#x2126;" horiz-adv-x="1585" 
d="M793 1497q157 0 290 -50t226.5 -140t145.5 -219.5t52 -282.5q0 -166 -73.5 -303.5t-212.5 -229.5v-10h288v-262h-624v242q161 110 231 236.5t70 307.5q0 211 -106 326t-287 115q-183 0 -288.5 -116t-105.5 -325q0 -169 66.5 -295.5t232.5 -248.5v-242h-626v262h280v10
q-131 82 -202.5 219.5t-71.5 313.5q0 147 54.5 276t149.5 220t227.5 143.5t283.5 52.5z" />
    <glyph glyph-name="estimated" unicode="&#x212e;" horiz-adv-x="1576" 
d="M786 1462q209 0 370 -98.5t246 -267.5t85 -381h-1092v-488q163 -159 391 -159q173 0 298 79.5t225 245.5l94 -57q-129 -200 -271 -282.5t-346 -82.5q-206 0 -366 99t-245 267.5t-85 377.5q0 154 48.5 290.5t136.5 237.5t220.5 160t290.5 59zM395 1206v-391h787v391
q-173 162 -400 162q-222 0 -387 -162z" />
    <glyph glyph-name="partialdiff" unicode="&#x2202;" horiz-adv-x="1171" 
d="M518 1477q143 0 253 -57t177.5 -159t101 -235t33.5 -293q0 -375 -135.5 -567.5t-392.5 -192.5q-209 0 -339 133.5t-130 342.5q0 197 126.5 327.5t324.5 130.5q146 0 274 -98v16q0 206 -73.5 325.5t-207.5 119.5q-65 0 -122.5 -25.5t-124.5 -83.5l-144 164
q100 86 190.5 119t188.5 33zM346 434q0 -114 57 -188t156 -74q78 0 136 53t86 135t28 177v59q-102 113 -231 113q-103 0 -167.5 -76.5t-64.5 -198.5z" />
    <glyph glyph-name="Delta" unicode="&#x2206;" horiz-adv-x="1394" 
d="M537 1462h329l543 -1462h-1423zM700 1102h-4l-290 -832h577z" />
    <glyph glyph-name="product" unicode="&#x220f;" horiz-adv-x="1533" 
d="M113 1610h1306v-2048h-270v1790h-764v-1790h-272v2048z" />
    <glyph glyph-name="summation" unicode="&#x2211;" horiz-adv-x="1378" 
d="M80 1610h1218v-258h-856l539 -752l-575 -780h917v-258h-1268v225l604 811l-579 786v226z" />
    <glyph glyph-name="minus" unicode="&#x2212;" horiz-adv-x="1228" 
d="M98 627h1035v-219h-1035v219z" />
    <glyph glyph-name="uni2215" unicode="&#x2215;" horiz-adv-x="342" 
d="M508 1479h174l-844 -1524h-178z" />
    <glyph glyph-name="uni2219" unicode="&#x2219;" horiz-adv-x="569" 
d="M287 762q70 0 121 -51.5t51 -122.5q0 -67 -51.5 -119.5t-118.5 -52.5q-71 0 -123.5 50.5t-52.5 121.5q0 72 52 123t122 51z" />
    <glyph glyph-name="radical" unicode="&#x221a;" horiz-adv-x="1167" 
d="M903 1610h285l-447 -2048h-249l-302 620l-108 -53l-100 215l350 160l239 -522z" />
    <glyph glyph-name="infinity" unicode="&#x221e;" horiz-adv-x="1736" 
d="M467 948q111 0 203 -56.5t198 -193.5q97 131 194 190.5t208 59.5q170 0 272.5 -112t102.5 -285q0 -180 -103.5 -295t-273.5 -115q-103 0 -199.5 55.5t-200.5 182.5q-113 -133 -201.5 -183.5t-191.5 -50.5q-172 0 -277.5 112t-105.5 292q0 176 102 287.5t273 111.5z
M1006 541q139 -164 262 -164q69 0 111 47t42 121q0 76 -44 123t-115 47q-111 0 -256 -174zM315 545q0 -73 43 -119.5t115 -46.5q128 0 256 162q-146 172 -260 172q-69 0 -111.5 -48.5t-42.5 -119.5z" />
    <glyph glyph-name="integral" unicode="&#x222b;" horiz-adv-x="1286" 
d="M819 1606q55 0 109 -17.5t94.5 -57.5t40.5 -93q0 -57 -35 -94t-90 -37q-50 0 -75 28t-42 84q-11 40 -21 53t-24 13q-39 0 -39 -74q0 -13 6.5 -163.5t6.5 -192.5v-979q0 -263 -82.5 -387.5t-259.5 -124.5q-93 0 -171.5 49.5t-78.5 132.5q0 54 39 85.5t90 31.5q45 0 71 -27
t41 -92q14 -59 41 -59q39 0 39 61q0 12 -6 155t-6 167v987q0 180 23 282t75 166q83 103 254 103z" />
    <glyph glyph-name="approxequal" unicode="&#x2248;" horiz-adv-x="1228" 
d="M399 891q78 0 224 -62q155 -67 221 -67q108 0 125 127h172q-15 -167 -95.5 -251.5t-218.5 -84.5q-85 0 -229 65q-75 34 -121 49t-92 15q-108 0 -125 -123h-172q14 162 93 247t218 85zM399 453q79 0 238 -68q140 -61 207 -61q108 0 125 127h172q-15 -166 -94.5 -251
t-219.5 -85q-85 0 -229 65q-138 64 -213 64q-108 0 -125 -123h-172q14 162 93 247t218 85z" />
    <glyph glyph-name="notequal" unicode="&#x2260;" horiz-adv-x="1228" 
d="M829 1120l179 -88l-103 -188h228v-213h-353l-112 -228h465v-213h-584l-146 -274l-178 88l101 186h-228v213h355l110 228h-465v213h584z" />
    <glyph glyph-name="lessequal" unicode="&#x2264;" horiz-adv-x="1228" 
d="M1133 1053v-232l-730 -170l730 -170v-231l-1035 291v221zM98 219h1035v-219h-1035v219z" />
    <glyph glyph-name="greaterequal" unicode="&#x2265;" horiz-adv-x="1228" 
d="M98 819v234l1035 -291v-221l-1035 -291v229l729 170zM98 219h1035v-219h-1035v219z" />
    <glyph glyph-name="lozenge" unicode="&#x25ca;" horiz-adv-x="1214" 
d="M485 1530h242l381 -801l-381 -801h-244l-377 801zM606 1264l-229 -535l229 -536l230 536z" />
    <glyph glyph-name="dotlessj" unicode="&#xe0d6;" horiz-adv-x="569" 
d="M137 1059h291v-1114q0 -170 -82 -244t-289 -74q-52 0 -96 8v240q21 -8 64 -8q61 0 86.5 23.5t25.5 72.5v1096z" />
    <glyph glyph-name="grave.cap" unicode="&#xe300;" horiz-adv-x="530" 
d="M-98 1886h321l197 -291h-203z" />
    <glyph glyph-name="acute.cap" unicode="&#xe301;" horiz-adv-x="530" 
d="M309 1886h322l-316 -291h-202z" />
    <glyph glyph-name="circumflex.cap" unicode="&#xe302;" horiz-adv-x="530" 
d="M133 1886h266l226 -291h-236l-127 166l-131 -166h-225z" />
    <glyph glyph-name="caron.cap" unicode="&#xe303;" horiz-adv-x="530" 
d="M-94 1886h235l127 -166l131 166h226l-228 -291h-266z" />
    <glyph glyph-name="tilde.cap" unicode="&#xe304;" horiz-adv-x="530" 
d="M129 1866q61 0 164 -39q87 -33 129 -33q36 0 57 16.5t31 55.5h131q-24 -122 -81 -178t-148 -56q-64 0 -158 33q-98 37 -143 37q-70 0 -93 -86h-129q13 104 78.5 177t161.5 73z" />
    <glyph glyph-name="dieresis.cap" unicode="&#xe305;" horiz-adv-x="530" 
d="M-84 1853h277v-239h-277v239zM338 1853h276v-239h-276v239z" />
    <glyph glyph-name="macron.cap" unicode="&#xe306;" horiz-adv-x="530" 
d="M-96 1810h723v-153h-723v153z" />
    <glyph glyph-name="breve.cap" unicode="&#xe307;" horiz-adv-x="530" 
d="M-80 1886h133q10 -67 68.5 -102t134.5 -35q191 0 225 137h129q-39 -291 -364 -291q-148 0 -231 75t-95 216z" />
    <glyph glyph-name="ring.cap" unicode="&#xe308;" horiz-adv-x="530" 
d="M266 1993q103 0 171.5 -68t68.5 -166q0 -97 -69.5 -165t-170.5 -68t-170 66.5t-69 166.5q0 98 69.5 166t169.5 68zM141 1759q0 -57 35 -93t90 -36q57 0 91 36t34 93q0 52 -32.5 90.5t-94.5 38.5q-53 0 -88 -34.5t-35 -94.5z" />
    <glyph glyph-name="hungarumlaut.cap" unicode="&#xe309;" horiz-adv-x="530" 
d="M72 1886h321l-305 -291h-203zM496 1886h321l-305 -291h-203z" />
    <glyph glyph-name="dotaccent.cap" unicode="&#xe30a;" horiz-adv-x="530" 
d="M127 1853h276v-239h-276v239z" />
    <glyph glyph-name="caron.alt" unicode="&#xe30b;" horiz-adv-x="530" 
d="M242 1462h303l-166 -291h-201z" />
    <glyph glyph-name="commaaccent" unicode="&#xe30c;" horiz-adv-x="569" 
d="M154 -102h297v-148q0 -110 -62.5 -152t-202.5 -42h-12v75q51 5 79 22t38 54h-137v191z" />
    <glyph glyph-name="commaaccent.alt" unicode="&#xe30d;" horiz-adv-x="569" 
d="M418 1614v-76q-99 -8 -117 -76h137v-190h-297v143q0 105 56.5 152t205.5 47h15z" />
    <glyph glyph-name="uniF8FF" unicode="&#xf8ff;" horiz-adv-x="1048" 
d="M0 1470h1049v-1470h-1049v1470zM102 102h844v1264h-844v-1264zM530 1247q110 0 182 -74.5t72 -193.5q0 -79 -30 -131t-101 -117t-84 -94q-14 -35 -14 -158h-94l-4 39q0 114 32 176q31 52 97 115q43 39 68.5 77t25.5 85q0 70 -47 122t-109 52q-69 0 -112.5 -49t-55.5 -146
l-102 17q13 137 84 208.5t192 71.5zM455 240v137h114v-137h-114z" />
    </font>
</defs>
</svg>
