<?xml version="1.0" standalone="no"?>
<!DOCTYPE svg PUBLIC "-//W3C//DTD SVG 1.1//EN" "http://www.w3.org/Graphics/SVG/1.1/DTD/svg11.dtd" >
<svg xmlns="http://www.w3.org/2000/svg" xmlns:xlink="http://www.w3.org/1999/xlink" version="1.1">
<metadata>
Created by FontForge 20170731 at Wed Mar 30 09:11:40 2022
 By Aleksey,,,
Copyright (c) 2014 - 2020 Monotype Imaging Inc. All rights reserved.
</metadata>
<defs>
<font id="HelveticaNeueLTPro-Md" horiz-adv-x="1138" >
  <font-face 
    font-family="Helvetica Neue LT Pro"
    font-weight="500"
    font-stretch="normal"
    units-per-em="2048"
    panose-1="2 11 6 4 2 2 2 2 2 4"
    ascent="1462"
    descent="-586"
    x-height="1059"
    cap-height="1462"
    bbox="-338 -457 2183 1960"
    underline-thickness="102"
    underline-position="-307"
    unicode-range="U+000D-FB02"
  />
<missing-glyph horiz-adv-x="1048" 
d="M0 1470h1049v-1470h-1049v1470zM102 102h844v1264h-844v-1264zM784 979q0 -79 -30 -131t-101 -117t-84 -94q-14 -35 -14 -158h-94l-4 39q0 114 32 176q31 52 97 115q43 39 68.5 77t25.5 85q0 70 -47 122t-109 52q-69 0 -112.5 -49t-55.5 -146l-102 17q13 137 84 208.5
t192 71.5q110 0 182 -74.5t72 -193.5zM455 240v137h114v-137h-114z" />
    <glyph glyph-name="IJ" unicode="IJ" horiz-adv-x="1652" 
d="M156 1462h256v-1462h-256v1462zM1241 1462h256v-1003q0 -262 -118 -378t-361 -116q-211 0 -324.5 119t-113.5 356v72h256v-92q0 -131 50 -188.5t150 -57.5q110 0 157.5 62t47.5 210v1016z" />
    <glyph glyph-name="ij" unicode="ij" horiz-adv-x="978" 
d="M129 1462h233v-221h-233v221zM129 1059h233v-1059h-233v1059zM614 1462h234v-221h-234v221zM614 1059h234v-1157q0 -163 -74.5 -242.5t-230.5 -79.5q-66 0 -103 8v185q50 -9 80 -9q52 0 73 29.5t21 114.5v1151z" />
    <glyph glyph-name="napostrophe" unicode="&#x22;n" horiz-adv-x="1419" 
d="M924 1087q180 0 276 -94.5t96 -257.5v-735h-233v662q0 241 -207 241q-117 0 -186.5 -81t-69.5 -191v-631h-233v1059h221v-156l4 -4q56 91 143 139.5t189 48.5zM29 1462h256v-282q0 -111 -69 -194t-187 -101v119q125 19 125 182h-125v276z" />
    <glyph glyph-name="fi" unicode="fi" 
d="M426 0h-233v885h-175v174h175v96q0 161 71.5 234t222.5 73q110 0 162 -14v-182q-37 12 -106 12q-59 0 -88 -27t-29 -73v-119h199v-174h-199v-885zM774 1462h234v-221h-234v221zM774 1059h234v-1059h-234v1059z" />
    <glyph glyph-name="fl" unicode="fl" 
d="M426 0h-233v885h-175v174h175v96q0 161 71.5 234t222.5 73q110 0 162 -14v-182q-37 12 -106 12q-59 0 -88 -27t-29 -73v-119h199v-174h-199v-885zM774 1462h234v-1462h-234v1462z" />
    <glyph glyph-name=".notdef" horiz-adv-x="1048" 
d="M0 1470h1049v-1470h-1049v1470zM102 102h844v1264h-844v-1264zM784 979q0 -79 -30 -131t-101 -117t-84 -94q-14 -35 -14 -158h-94l-4 39q0 114 32 176q31 52 97 115q43 39 68.5 77t25.5 85q0 70 -47 122t-109 52q-69 0 -112.5 -49t-55.5 -146l-102 17q13 137 84 208.5
t192 71.5q110 0 182 -74.5t72 -193.5zM455 240v137h114v-137h-114z" />
    <glyph glyph-name=".null" horiz-adv-x="0" 
 />
    <glyph glyph-name=".null" horiz-adv-x="0" 
 />
    <glyph glyph-name="nonmarkingreturn" horiz-adv-x="682" 
 />
    <glyph glyph-name="CR" unicode="&#xd;" horiz-adv-x="569" 
 />
    <glyph glyph-name="space" unicode=" " horiz-adv-x="569" 
 />
    <glyph glyph-name="exclam" unicode="!" horiz-adv-x="569" 
d="M158 1462h256v-422l-68 -632h-121l-67 632v422zM147 256h275v-256h-275v256z" />
    <glyph glyph-name="quotedbl" unicode="&#x22;" horiz-adv-x="909" 
d="M170 1462h209v-577h-209v577zM530 1462h209v-577h-209v577z" />
    <glyph glyph-name="numbersign" unicode="#" 
d="M401 1434h166l-61 -430h227l60 430h165l-61 -430h176v-154h-196l-37 -266h174v-154h-195l-61 -430h-164l59 430h-225l-61 -430h-164l59 430h-192v154h215l37 266h-193v154h213zM713 850h-228l-36 -266h227z" />
    <glyph glyph-name="dollar" unicode="$" 
d="M530 1497v160h88v-160q208 -1 328.5 -109t120.5 -290h-233q-6 110 -58 162.5t-153 52.5h-5v-432q271 -71 379 -179q107 -107 107 -276q0 -206 -127.5 -327.5t-358.5 -133.5v-160h-88v160q-234 9 -364.5 132t-130.5 331v16h233v-4q0 -281 262 -290v495q-246 63 -355 170
t-109 281q0 178 130.5 288.5t333.5 112.5zM299 1112q0 -79 56 -130t175 -79v410h-6q-107 0 -166 -49.5t-59 -151.5zM618 627v-477q252 16 252 241q0 93 -59.5 148.5t-192.5 87.5z" />
    <glyph glyph-name="percent" unicode="%" horiz-adv-x="2048" 
d="M1329 1483h156l-793 -1532h-160zM510 1462q161 0 251.5 -110t90.5 -297q0 -192 -89.5 -300t-252.5 -108q-164 0 -253 106.5t-89 301.5q0 187 91.5 297t250.5 110zM352 1055q0 -133 40.5 -204t115.5 -71q76 0 118 72t42 203t-41 202.5t-119 71.5q-156 0 -156 -274z
M1538 786q162 0 252 -110.5t90 -296.5q0 -193 -89.5 -300.5t-252.5 -107.5t-252.5 108t-89.5 300q0 186 90 296.5t252 110.5zM1380 379q0 -133 40.5 -204t115.5 -71q76 0 118 72t42 203t-41 202.5t-119 71.5q-156 0 -156 -274z" />
    <glyph glyph-name="ampersand" unicode="&#x26;" horiz-adv-x="1327" 
d="M612 1497q159 0 262 -94.5t103 -255.5q0 -226 -262 -371l225 -274q34 95 45 196h205q-26 -217 -115 -358l281 -340h-287l-131 162h-2q-82 -98 -181.5 -144.5t-228.5 -46.5q-206 0 -333 119t-127 316q0 128 83 231t252 192q-89 114 -118 181.5t-29 138.5q0 150 101 249
t257 99zM463 1161q0 -50 23 -95.5t110 -147.5q92 59 132 113.5t40 123.5q0 74 -42 121t-110 47q-65 0 -109 -46t-44 -116zM299 401q0 -113 63.5 -179t172.5 -66q91 0 155 37.5t121 125.5l-287 357q-153 -84 -188 -139q-37 -58 -37 -136z" />
    <glyph glyph-name="quotesingle" unicode="'" horiz-adv-x="569" 
d="M180 1462h209v-577h-209v577z" />
    <glyph glyph-name="parenleft" unicode="(" horiz-adv-x="569" 
d="M395 1497h191q-252 -451 -252 -944q0 -519 252 -944h-191q-163 266 -229 480.5t-66 463.5q0 489 295 944z" />
    <glyph glyph-name="parenright" unicode=")" horiz-adv-x="569" 
d="M-16 1497h190q152 -240 223.5 -467.5t71.5 -476.5q0 -496 -295 -944h-190q252 450 252 942q0 517 -252 946z" />
    <glyph glyph-name="asterisk" unicode="*" horiz-adv-x="757" 
d="M309 1462h140v-245l223 88l49 -134l-234 -77l144 -193l-109 -80l-145 201l-139 -201l-115 80l143 193l-227 77l45 134l225 -88v245z" />
    <glyph glyph-name="plus" unicode="+" horiz-adv-x="1228" 
d="M510 1036h209v-413h411v-209h-411v-414h-209v414h-412v209h412v413z" />
    <glyph glyph-name="comma" unicode="," horiz-adv-x="569" 
d="M141 276h285v-268q0 -126 -70.5 -214t-205.5 -118v125q62 18 97.5 68.5t35.5 130.5h-142v276z" />
    <glyph glyph-name="hyphen" unicode="-" horiz-adv-x="796" 
d="M100 668h596v-222h-596v222z" />
    <glyph glyph-name="period" unicode="." horiz-adv-x="569" 
d="M141 276h285v-276h-285v276z" />
    <glyph glyph-name="slash" unicode="/" horiz-adv-x="720" 
d="M543 1497h223l-588 -1532h-223z" />
    <glyph glyph-name="zero" unicode="0" 
d="M569 1462q245 0 370.5 -193t125.5 -552q0 -357 -127 -551.5t-369 -194.5t-368.5 194t-126.5 552q0 357 126 551t369 194zM307 717q0 -551 262 -551q131 0 196.5 135t65.5 416q0 551 -264 551q-260 0 -260 -551z" />
    <glyph glyph-name="one" unicode="1" 
d="M526 1434h191v-1434h-256v1012h-352v184q179 0 288 63t129 175z" />
    <glyph glyph-name="two" unicode="2" 
d="M600 1462q211 0 336 -122.5t125 -317.5q0 -142 -88 -272q-89 -123 -324 -271q-149 -94 -209 -151.5t-80 -118.5h699v-209h-979q0 330 328 551q107 71 217 151q202 148 202 314q0 120 -63.5 186t-177.5 66q-120 0 -180 -86.5t-66 -272.5h-234q4 259 137 406t357 147z" />
    <glyph glyph-name="three" unicode="3" 
d="M565 1462q89 0 170.5 -25.5t144.5 -72.5t100.5 -121t37.5 -164q0 -231 -203 -307v-4q123 -27 191.5 -123t68.5 -235q0 -134 -73 -236t-187 -152.5t-248 -50.5q-233 0 -364 127t-140 373h234v-18q0 -128 72 -207.5t198 -79.5q122 0 198.5 69.5t76.5 186.5q0 127 -80 185.5
t-260 58.5h-35v174h22q138 0 216.5 58t78.5 167q0 93 -63.5 148t-159.5 55q-104 0 -170.5 -79t-66.5 -196v-18h-234q10 223 141.5 355t333.5 132z" />
    <glyph glyph-name="four" unicode="4" 
d="M664 1434h221v-910h184v-184h-184v-340h-221v340h-615v231zM664 1155h-5l-430 -631h435v631z" />
    <glyph glyph-name="five" unicode="5" 
d="M252 1434h741v-209h-567l-74 -365l4 -4q48 52 120 80.5t147 28.5q200 0 323 -133t123 -347q0 -72 -17.5 -143t-56.5 -138.5t-95 -119t-140.5 -82.5t-186.5 -31q-219 0 -356.5 117.5t-144.5 319.5h233q10 -116 79.5 -179t184.5 -63q130 0 198.5 81t68.5 232q0 133 -73 217
t-200 84q-90 0 -149.5 -35t-81.5 -96h-234z" />
    <glyph glyph-name="six" unicode="6" 
d="M610 1462q172 0 299 -111t133 -280h-233q-8 90 -63.5 143.5t-145.5 53.5q-53 0 -96 -18.5t-71.5 -45.5t-51.5 -71.5t-35.5 -83t-22 -94.5t-13 -91.5t-7.5 -87.5l4 -4q46 83 128.5 126.5t180.5 43.5q206 0 329.5 -136.5t123.5 -344.5q0 -214 -133.5 -352t-343.5 -138
q-93 0 -169 22.5t-129.5 60.5t-94 95t-64.5 119.5t-39 140.5t-20.5 151t-5.5 159q0 88 12 173t37.5 170t68.5 156t101 126.5t140.5 86.5t180.5 31zM326 465q0 -124 69 -211.5t189 -87.5q119 0 185.5 88t66.5 211q0 124 -67 208.5t-187 84.5q-119 0 -187.5 -85.5
t-68.5 -207.5z" />
    <glyph glyph-name="seven" unicode="7" 
d="M72 1434h981v-195q-243 -270 -375 -573.5t-160 -663.5v-2h-256q24 321 169.5 638t383.5 587h-743v209z" />
    <glyph glyph-name="eight" unicode="8" 
d="M569 1462q211 0 329 -102.5t118 -288.5q0 -103 -51 -179.5t-152 -115.5v-4q123 -32 192.5 -124.5t69.5 -225.5q0 -204 -142 -327.5t-364 -123.5q-224 0 -365 124.5t-141 326.5q0 131 70 224.5t193 125.5v4q-99 37 -151 112.5t-52 182.5q0 187 118 289t328 102zM344 1059
q0 -97 61 -154t164 -57q105 0 165.5 59t60.5 152q0 99 -63.5 159t-164.5 60q-97 0 -160 -60t-63 -159zM297 422q0 -120 74 -193t198 -73q122 0 197.5 73t75.5 193q0 113 -77 182.5t-198 69.5q-119 0 -194.5 -69t-75.5 -183z" />
    <glyph glyph-name="nine" unicode="9" 
d="M563 1462q91 0 165 -23t126 -62t91 -97.5t62.5 -121t37.5 -140.5t19 -149t5 -154q0 -88 -12 -173.5t-37.5 -170.5t-69 -156t-101.5 -126.5t-140.5 -86.5t-180.5 -31q-174 0 -298.5 109.5t-133.5 281.5h234q8 -89 64.5 -142.5t144.5 -53.5q52 0 95 18t72 45.5t51.5 71.5
t35 83t22.5 94.5t13.5 91.5t7.5 87l-5 5q-45 -81 -129 -127t-180 -46q-209 0 -330.5 136.5t-121.5 347.5q0 220 136 354.5t357 134.5zM303 975q0 -123 65.5 -212t184.5 -89q123 0 191.5 87.5t68.5 213.5q0 124 -70.5 208.5t-191.5 84.5q-118 0 -183 -85.5t-65 -207.5z" />
    <glyph glyph-name="colon" unicode=":" horiz-adv-x="569" 
d="M141 1036h285v-276h-285v276zM141 276h285v-276h-285v276z" />
    <glyph glyph-name="semicolon" unicode=";" horiz-adv-x="569" 
d="M141 1036h285v-276h-285v276zM141 276h285v-276q0 -118 -71 -206t-205 -118v125q62 18 97.5 68t35.5 131h-142v276z" />
    <glyph glyph-name="less" unicode="&#x3c;" horiz-adv-x="1228" 
d="M1135 1053v-209l-766 -326l766 -325v-209l-1041 460v148z" />
    <glyph glyph-name="equal" unicode="=" horiz-adv-x="1228" 
d="M98 829h1032v-208h-1032v208zM98 416h1032v-209h-1032v209z" />
    <glyph glyph-name="greater" unicode="&#x3e;" horiz-adv-x="1228" 
d="M94 844v209l1041 -461v-148l-1041 -460v209l766 325z" />
    <glyph glyph-name="question" unicode="?" 
d="M592 1497q197 0 321.5 -114t124.5 -300q0 -110 -39 -184t-147 -162q-104 -84 -139 -155t-35 -185h-221v9q0 173 41 256q40 91 133 163q93 73 122 124.5t29 125.5q0 100 -62 164t-138 64q-118 0 -182 -77.5t-64 -228.5h-236q1 229 135 364.5t357 135.5zM426 256h274v-256
h-274v256z" />
    <glyph glyph-name="at" unicode="@" horiz-adv-x="1638" 
d="M852 1497q100 0 198 -25.5t186 -76.5t155.5 -122t107 -169t39.5 -209q0 -102 -25 -192t-66.5 -154.5t-93 -116t-106 -82.5t-103.5 -47t-89 -16q-53 0 -85.5 33t-35.5 86h-4q-50 -55 -110.5 -86t-119.5 -31q-127 0 -213 95t-86 226q0 95 32.5 189.5t89 170.5t142.5 123.5
t185 47.5q155 0 229 -148l37 117h144l-148 -539q-18 -65 -18 -94q0 -47 39 -47q102 0 184 131q82 139 82 311q0 153 -77.5 267t-200 169.5t-269.5 55.5q-120 0 -227.5 -44.5t-187.5 -123.5t-126.5 -195t-46.5 -251q0 -185 71 -331.5t210 -233.5t325 -87q135 0 255 53
t206 150h144q-100 -160 -261 -248t-352 -88q-158 0 -298.5 59.5t-242.5 163t-161.5 252t-59.5 318.5q0 150 59.5 287t160.5 236t240 157.5t292 58.5zM575 629q0 -83 45.5 -135t118.5 -52q79 0 146 61.5t101 144.5t34 159q0 71 -48.5 125.5t-115.5 54.5q-61 0 -115 -34.5
t-89.5 -87.5t-56 -115.5t-20.5 -120.5z" />
    <glyph glyph-name="A" unicode="A" horiz-adv-x="1366" 
d="M547 1462h272l563 -1462h-274l-137 387h-584l-137 -387h-264zM684 1210h-6l-221 -628h446z" />
    <glyph glyph-name="B" unicode="B" horiz-adv-x="1441" 
d="M156 1462h718q195 0 310.5 -93.5t115.5 -268.5q0 -216 -208 -312v-4q131 -29 202.5 -127.5t71.5 -248.5q0 -194 -141 -301t-387 -107h-682v1462zM412 850h422q91 0 150.5 54.5t59.5 150.5q0 101 -50.5 149.5t-155.5 48.5h-426v-403zM412 209h458q110 0 175 61t65 170
t-65.5 167.5t-174.5 58.5h-458v-457z" />
    <glyph glyph-name="C" unicode="C" horiz-adv-x="1478" 
d="M778 1497q256 0 426 -135t195 -365h-256q-76 291 -365 291q-206 0 -325 -154t-119 -403q0 -248 118.5 -402.5t325.5 -154.5q156 0 254.5 102.5t118.5 280.5h250q-21 -266 -188.5 -429t-434.5 -163q-307 0 -506 217q-194 218 -194 549q0 157 48 296t136 243.5t221.5 165.5
t294.5 61z" />
    <glyph glyph-name="D" unicode="D" horiz-adv-x="1478" 
d="M156 1462h616q292 0 463.5 -195t171.5 -536q0 -346 -171.5 -538.5t-467.5 -192.5h-612v1462zM412 209h262q247 0 362 126t115 396q0 94 -13 169t-45.5 142.5t-85.5 112.5t-136.5 71.5t-194.5 26.5h-264v-1044z" />
    <glyph glyph-name="E" unicode="E" horiz-adv-x="1290" 
d="M156 1462h1052v-221h-796v-383h737v-209h-737v-428h811v-221h-1067v1462z" />
    <glyph glyph-name="F" unicode="F" horiz-adv-x="1214" 
d="M156 1462h1009v-221h-753v-383h661v-209h-661v-649h-256v1462z" />
    <glyph glyph-name="G" unicode="G" horiz-adv-x="1554" 
d="M788 1497q119 0 224.5 -31.5t190.5 -92.5t141 -157.5t71 -218.5h-250q-21 139 -129 215t-248 76q-90 0 -165 -31.5t-126 -85.5t-86 -126t-51 -151t-16 -163q0 -111 26 -208.5t79 -177t142.5 -125.5t205.5 -46q189 0 292.5 106t108.5 295h-389v195h623v-770h-164l-39 172
q-95 -109 -197.5 -158t-243.5 -49q-159 0 -292.5 61t-221.5 166t-137 244t-49 295t49 295t137 244t221.5 166t292.5 61z" />
    <glyph glyph-name="H" unicode="H" horiz-adv-x="1478" 
d="M150 1462h256v-581h665v581h256v-1462h-256v659h-665v-659h-256v1462z" />
    <glyph glyph-name="I" unicode="I" horiz-adv-x="569" 
d="M156 1462h256v-1462h-256v1462z" />
    <glyph glyph-name="J" unicode="J" horiz-adv-x="1099" 
d="M688 1462h256v-1003q0 -262 -118 -378t-361 -116q-211 0 -324.5 119t-113.5 356v72h256v-92q0 -131 50 -188.5t150 -57.5q110 0 157.5 62t47.5 210v1016z" />
    <glyph glyph-name="K" unicode="K" horiz-adv-x="1402" 
d="M156 1462h256v-665l651 665h315l-583 -583l624 -879h-319l-479 698l-209 -206v-492h-256v1462z" />
    <glyph glyph-name="L" unicode="L" horiz-adv-x="1175" 
d="M156 1462h256v-1241h743v-221h-999v1462z" />
    <glyph glyph-name="M" unicode="M" horiz-adv-x="1820" 
d="M152 1462h360l403 -1145h5l393 1145h356v-1462h-244v1128h-4l-405 -1128h-211l-406 1128h-4v-1128h-243v1462z" />
    <glyph glyph-name="N" unicode="N" horiz-adv-x="1478" 
d="M145 1462h271l667 -1077h4v1077h244v-1462h-270l-666 1075h-6v-1075h-244v1462z" />
    <glyph glyph-name="O" unicode="O" horiz-adv-x="1556" 
d="M778 1497q159 0 292.5 -61t222 -166t137.5 -244t49 -295q0 -211 -83.5 -384t-245 -277.5t-372.5 -104.5q-160 0 -293.5 61t-221.5 165.5t-136.5 243.5t-48.5 296q0 156 49 295t137 244t221.5 166t292.5 61zM334 731q0 -85 16 -164t50.5 -151t85.5 -125.5t126 -85
t166 -31.5q92 0 167 31.5t126 84.5t86 124.5t50.5 151t15.5 165.5t-16 165.5t-51 151t-86 124.5t-126.5 84.5t-167.5 31.5t-167 -31.5t-125 -85t-84.5 -125.5t-50 -151t-15.5 -164z" />
    <glyph glyph-name="P" unicode="P" horiz-adv-x="1366" 
d="M156 1462h655q233 0 360 -119.5t127 -332.5q0 -214 -127.5 -331.5t-359.5 -117.5h-399v-561h-256v1462zM412 770h381q107 0 178 63.5t71 178.5q0 241 -243 241h-387v-483z" />
    <glyph glyph-name="Q" unicode="Q" horiz-adv-x="1556" 
d="M778 1497q159 0 292 -61.5t222 -166.5t138 -244t49 -294q0 -159 -51.5 -311.5t-155.5 -249.5l188 -164l-125 -139l-213 186q-147 -88 -344 -88q-160 0 -293.5 61t-221.5 165.5t-136.5 243.5t-48.5 296t49 296t137.5 243.5t221.5 165.5t292 61zM334 731q0 -109 26.5 -206
t78.5 -177t139.5 -127t199.5 -47q93 0 164 35l-147 129l123 141l176 -153h4q125 154 125 405q0 86 -16 165.5t-51 151t-86 124.5t-126.5 84.5t-167.5 31.5t-167 -31.5t-125 -85t-84.5 -125.5t-50 -151t-15.5 -164z" />
    <glyph glyph-name="R" unicode="R" horiz-adv-x="1441" 
d="M156 1462h708q223 0 348 -102t125 -293q0 -139 -61.5 -233.5t-179.5 -135.5v-4q105 -13 161 -95.5t56 -217.5q0 -288 80 -381h-275q-39 53 -39 217q0 237 -71 311t-211 74h-385v-602h-256v1462zM412 797h426q118 0 180.5 58t62.5 175q0 115 -58.5 169t-186.5 54h-424
v-456z" />
    <glyph glyph-name="S" unicode="S" horiz-adv-x="1327" 
d="M657 1497q160 0 286 -54.5t200.5 -161.5t75.5 -251h-256v2q-24 256 -316 256q-119 0 -193.5 -50t-74.5 -140q0 -144 186 -193l391 -102q51 -13 101 -42t97 -74t76.5 -113.5t29.5 -149.5q0 -214 -160 -336.5t-422 -122.5q-279 0 -442.5 136.5t-167.5 385.5h256
q1 -153 100 -233t270 -80q145 0 227.5 61t82.5 160q0 68 -31.5 114.5t-89.5 65.5q-103 34 -418 115q-342 84 -342 377q0 107 45.5 191.5t122 135.5t170 77t196.5 26z" />
    <glyph glyph-name="T" unicode="T" horiz-adv-x="1214" 
d="M16 1462h1184v-221h-465v-1241h-256v1241h-463v221z" />
    <glyph glyph-name="U" unicode="U" horiz-adv-x="1478" 
d="M139 1462h256v-864q0 -81 8.5 -141t31 -113t61 -86.5t99.5 -52.5t144 -19q82 0 142.5 18.5t99 51t61.5 84.5t32 112t9 140v870h256v-946q0 -179 -78 -305t-211 -186t-311 -60q-132 0 -241 35t-189.5 103t-125 173.5t-44.5 239.5v946z" />
    <glyph glyph-name="V" unicode="V" horiz-adv-x="1251" 
d="M-10 1462h266l367 -1157h4l374 1157h261l-500 -1462h-285z" />
    <glyph glyph-name="W" unicode="W" horiz-adv-x="1933" 
d="M12 1462h260l265 -1118h4l295 1118h262l286 -1118h5l272 1118h260l-403 -1462h-261l-292 1118h-4l-299 -1118h-265z" />
    <glyph glyph-name="X" unicode="X" horiz-adv-x="1327" 
d="M29 1462h305l332 -516l346 516h286l-483 -704l518 -758h-311l-365 559l-370 -559h-293l518 758z" />
    <glyph glyph-name="Y" unicode="Y" horiz-adv-x="1327" 
d="M-12 1462h297l387 -655l381 655h286l-546 -889v-573h-256v573z" />
    <glyph glyph-name="Z" unicode="Z" horiz-adv-x="1290" 
d="M113 1462h1112v-194l-852 -1047h872v-221h-1198v209l852 1032h-786v221z" />
    <glyph glyph-name="bracketleft" unicode="[" horiz-adv-x="606" 
d="M147 1497h457v-184h-235v-1520h235v-184h-457v1888z" />
    <glyph glyph-name="backslash" unicode="\" horiz-adv-x="720" 
d="M-45 1497h223l588 -1532h-223z" />
    <glyph glyph-name="bracketright" unicode="]" horiz-adv-x="606" 
d="M2 1497h457v-1888h-457v184h236v1520h-236v184z" />
    <glyph glyph-name="asciicircum" unicode="^" horiz-adv-x="1228" 
d="M541 1434h147l369 -748h-209l-234 506l-233 -506h-209z" />
    <glyph glyph-name="underscore" unicode="_" horiz-adv-x="1024" 
d="M0 -154h1024v-102h-1024v102z" />
    <glyph glyph-name="grave" unicode="`" horiz-adv-x="493" 
d="M-59 1499h274l186 -293h-170z" />
    <glyph glyph-name="a" unicode="a" 
d="M586 1087q192 0 308 -83t116 -218v-557q0 -42 12.5 -57.5t50.5 -15.5q33 0 49 4v-162q-100 -27 -147 -27q-157 0 -180 129q-61 -61 -163 -95t-204 -34q-160 0 -261 83.5t-101 226.5q0 140 71.5 211t202.5 98q83 17 266 39q105 12 145 40.5t40 90.5q0 69 -56 106t-164 37
q-106 0 -165.5 -44t-67.5 -124h-234q12 173 135.5 262.5t346.5 89.5zM299 301q0 -67 53.5 -106t147.5 -39q121 0 198.5 54t77.5 140v180q-11 -7 -19.5 -11.5t-20 -9t-18 -7.5t-22 -6t-23 -4.5t-29.5 -5t-33 -4.5t-42.5 -5t-48.5 -6q-114 -13 -167.5 -55t-53.5 -115z" />
    <glyph glyph-name="b" unicode="b" horiz-adv-x="1251" 
d="M129 1462h233v-540h5q51 76 136.5 120.5t178.5 44.5q121 0 216.5 -43t156 -119t92 -178t31.5 -223q0 -110 -28 -207.5t-82 -175.5t-143.5 -124t-203.5 -46q-270 0 -367 174h-4v-145h-221v1462zM354 528q0 -71 18 -135.5t52.5 -118.5t93 -86t133.5 -32q76 0 134.5 32
t92 85.5t50 118t16.5 136.5q0 69 -18 134t-53 120t-93 88t-131 33q-78 0 -137 -31.5t-92.5 -85.5t-49.5 -118.5t-16 -139.5z" />
    <glyph glyph-name="c" unicode="c" 
d="M594 1087q206 0 333 -100.5t144 -281.5h-233q-13 95 -76.5 146.5t-165.5 51.5q-138 0 -214.5 -98t-76.5 -287q0 -159 74 -260.5t207 -101.5q101 0 167.5 61.5t84.5 179.5h233q-34 -208 -158.5 -317t-326.5 -109q-233 0 -373.5 147.5t-140.5 399.5q0 258 138 413.5
t384 155.5z" />
    <glyph glyph-name="d" unicode="d" horiz-adv-x="1251" 
d="M887 1462h233v-1462h-221v143h-4q-46 -86 -132 -129t-196 -43q-228 0 -361.5 152t-133.5 414q0 256 128 403t330 147q115 0 210.5 -44.5t142.5 -120.5h4v540zM305 518q0 -157 79.5 -259.5t213.5 -102.5q136 0 216.5 106t80.5 268q0 173 -78 273t-217 100
q-137 0 -216 -106.5t-79 -278.5z" />
    <glyph glyph-name="e" unicode="e" 
d="M584 1087q146 0 262 -73.5t178.5 -196t62.5 -268.5q0 -26 -4 -80h-778q0 -136 75.5 -224.5t209.5 -88.5q196 0 258 176h221q-23 -111 -93 -193.5t-170 -125t-216 -42.5q-163 0 -281.5 72t-177.5 196.5t-59 286.5q0 153 61.5 280t179.5 204t271 77zM305 623h545
q-10 117 -81.5 198.5t-186.5 81.5q-120 0 -195.5 -80t-81.5 -200z" />
    <glyph glyph-name="f" unicode="f" horiz-adv-x="645" 
d="M426 0h-233v885h-175v174h175v96q0 161 71.5 234t222.5 73q110 0 162 -14v-182q-37 12 -106 12q-59 0 -88 -27t-29 -73v-119h199v-174h-199v-885z" />
    <glyph glyph-name="g" unicode="g" horiz-adv-x="1214" 
d="M551 1087q109 0 190.5 -44.5t122.5 -129.5h4v146h234v-1014q0 -224 -131 -344.5t-387 -120.5q-203 0 -332.5 87t-142.5 243h233q15 -79 74.5 -117.5t179.5 -38.5q135 0 203.5 67.5t68.5 196.5v168h-4q-53 -89 -135 -137.5t-182 -48.5q-224 0 -349.5 147t-125.5 408
q0 230 134 381t345 151zM305 535q0 -154 76 -252.5t203 -98.5q131 0 207.5 100.5t76.5 268.5q0 160 -76 255t-208 95q-130 0 -204.5 -100.5t-74.5 -267.5z" />
    <glyph glyph-name="h" unicode="h" horiz-adv-x="1175" 
d="M123 1462h233v-542h4q51 79 135.5 123t184.5 44q179 0 276 -95t97 -257v-735h-234v655q0 54 -9.5 96t-31.5 78t-64 55t-102 19q-116 0 -186 -81t-70 -191v-631h-233v1462z" />
    <glyph glyph-name="i" unicode="i" horiz-adv-x="493" 
d="M129 1462h233v-221h-233v221zM129 1059h233v-1059h-233v1059z" />
    <glyph glyph-name="j" unicode="j" horiz-adv-x="493" 
d="M129 1462h233v-221h-233v221zM129 1059h233v-1157q0 -163 -74.5 -242.5t-230.5 -79.5q-65 0 -102 8v185q49 -9 80 -9q52 0 73 29.5t21 114.5v1151z" />
    <glyph glyph-name="k" unicode="k" horiz-adv-x="1099" 
d="M129 1462h233v-831l422 428h287l-405 -389l444 -670h-285l-323 514l-140 -135v-379h-233v1462z" />
    <glyph glyph-name="l" unicode="l" horiz-adv-x="493" 
d="M129 1462h233v-1462h-233v1462z" />
    <glyph glyph-name="m" unicode="m" horiz-adv-x="1781" 
d="M676 1087q99 0 181.5 -44.5t115.5 -131.5q123 176 334 176q174 0 263 -87.5t89 -260.5v-739h-234v639q0 52 -3 86t-13.5 71t-31 58t-56.5 35t-88 14q-225 0 -225 -274v-629h-234v688q0 106 -41 160.5t-143 54.5q-105 0 -169.5 -80.5t-64.5 -187.5v-635h-233v1059h221
v-148h6q62 92 139.5 134t186.5 42z" />
    <glyph glyph-name="n" unicode="n" horiz-adv-x="1175" 
d="M680 1087q180 0 276.5 -94.5t96.5 -257.5v-735h-234v662q0 241 -207 241q-117 0 -186.5 -81t-69.5 -191v-631h-233v1059h221v-156l4 -4q56 91 143 139.5t189 48.5z" />
    <glyph glyph-name="o" unicode="o" horiz-adv-x="1214" 
d="M608 1087q245 0 390 -155t145 -402q0 -251 -144.5 -405t-390.5 -154t-390 153.5t-144 405.5q0 247 144.5 402t389.5 155zM307 530q0 -70 18.5 -135.5t54 -119.5t94.5 -86.5t134 -32.5t134 32t94.5 86t54 119.5t18.5 136.5q0 73 -18 138t-53.5 118.5t-95.5 85t-136 31.5
q-97 0 -166.5 -55.5t-101 -138t-31.5 -179.5z" />
    <glyph glyph-name="p" unicode="p" horiz-adv-x="1251" 
d="M682 1087q121 0 217 -44t156 -121.5t91.5 -178.5t31.5 -219q0 -85 -17 -164.5t-53 -150.5t-88.5 -123.5t-129.5 -83.5t-169 -31q-109 0 -206 41t-148 125h-5v-528h-233v1450h221v-144h4q49 88 135 130t193 42zM354 528q0 -71 18 -135.5t52.5 -118.5t93 -86t133.5 -32
q76 0 134.5 32t92 85.5t50 118t16.5 136.5q0 69 -17.5 133.5t-52 119.5t-93 88.5t-132.5 33.5q-78 0 -137 -31.5t-92.5 -85.5t-49.5 -118.5t-16 -139.5z" />
    <glyph glyph-name="q" unicode="q" horiz-adv-x="1251" 
d="M567 1087q117 0 201 -44.5t127 -127.5h4v144h221v-1450h-233v528h-4q-56 -82 -148 -124t-207 -42q-207 0 -331.5 153.5t-124.5 399.5q0 256 132 409.5t363 153.5zM305 528q0 -167 77.5 -269.5t215.5 -102.5q143 0 220 98t77 274q0 180 -76.5 277.5t-220.5 97.5
q-130 0 -211.5 -108t-81.5 -267z" />
    <glyph glyph-name="r" unicode="r" horiz-adv-x="720" 
d="M655 1087q53 0 88 -6v-225q-58 10 -100 10q-129 0 -208 -100t-79 -254v-512h-233v1059h219v-205h4q24 97 119.5 165t189.5 68z" />
    <glyph glyph-name="s" unicode="s" horiz-adv-x="1062" 
d="M530 1087q191 0 308.5 -84.5t134.5 -240.5h-244q-26 141 -215 141q-88 0 -140 -28t-52 -80q0 -56 58.5 -90.5t209.5 -63.5q121 -22 202.5 -52.5t129 -71.5t67 -89.5t19.5 -112.5q0 -161 -132 -252.5t-341 -91.5q-214 0 -339.5 95t-129.5 274h233q21 -184 240 -184
q111 0 173 33t62 100q0 30 -12.5 52.5t-47.5 45.5t-104.5 43t-177.5 39q-344 61 -344 315q0 144 124 223.5t318 79.5z" />
    <glyph glyph-name="t" unicode="t" horiz-adv-x="681" 
d="M193 1376h233v-317h211v-174h-211v-578q0 -81 24 -107t93 -26q78 0 94 8v-180q-110 -12 -152 -12q-166 0 -229 61.5t-63 222.5v611h-177v174h177v317z" />
    <glyph glyph-name="u" unicode="u" horiz-adv-x="1175" 
d="M123 1059h233v-658q0 -245 203 -245q129 0 194.5 73t65.5 207v623h234v-1059h-230v147h-4q-45 -81 -128 -128.5t-175 -47.5q-201 0 -297 101.5t-96 304.5v682z" />
    <glyph glyph-name="v" unicode="v" horiz-adv-x="1062" 
d="M18 1059h254l269 -813h4l258 813h241l-378 -1059h-263z" />
    <glyph glyph-name="w" unicode="w" horiz-adv-x="1593" 
d="M27 1059h247l207 -791h4l199 791h236l190 -791h4l215 791h238l-332 -1059h-240l-196 786h-4l-195 -786h-246z" />
    <glyph glyph-name="x" unicode="x" horiz-adv-x="1099" 
d="M41 1059h283l221 -326l231 326h271l-361 -490l406 -569h-281l-268 391l-260 -391h-275l400 557z" />
    <glyph glyph-name="y" unicode="y" horiz-adv-x="1062" 
d="M6 1059h256l277 -791h4l268 791h244l-408 -1106q-60 -168 -117 -246q-46 -68 -109.5 -97.5t-154.5 -29.5q-74 0 -160 12v197q4 0 43.5 -7t67.5 -7q110 0 145 96l46 133z" />
    <glyph glyph-name="z" unicode="z" horiz-adv-x="1024" 
d="M86 1059h860v-164l-606 -711h637v-184h-932v164l586 710h-545v185z" />
    <glyph glyph-name="braceleft" unicode="{" horiz-adv-x="606" 
d="M453 1497h180v-184h-117q-110 0 -110 -137v-410q0 -79 -55.5 -138.5t-155.5 -72.5v-4q101 -7 156 -66.5t55 -154.5v-400q0 -73 29 -105t85 -32h113v-184h-182q-105 0 -186 83t-81 187v420q0 68 -55.5 113.5t-136.5 48.5v184q85 3 138.5 44t53.5 102v438q0 101 81.5 184.5
t187.5 83.5z" />
    <glyph glyph-name="bar" unicode="|" horiz-adv-x="454" 
d="M123 1610h209v-2048h-209v2048z" />
    <glyph glyph-name="braceright" unicode="}" horiz-adv-x="606" 
d="M-27 1497h181q103 0 185.5 -82.5t82.5 -189.5v-418q0 -68 52.5 -113.5t139.5 -48.5v-184q-35 -1 -67.5 -9.5t-61.5 -26t-46 -48.5t-17 -72v-422q0 -103 -80.5 -188.5t-187.5 -85.5h-181v184h113q60 0 87.5 34t27.5 105v410q0 80 52.5 134.5t160.5 74.5v4
q-107 10 -160 67.5t-53 153.5v398q0 73 -29 106t-90 33h-109v184z" />
    <glyph glyph-name="asciitilde" unicode="~" horiz-adv-x="1228" 
d="M397 692q91 0 242 -74q79 -39 117 -52t73 -13q115 0 185 139l73 -172q-40 -85 -105.5 -130.5t-150.5 -45.5q-61 0 -118.5 18.5t-157.5 69.5q-96 51 -156 51q-59 0 -103 -33.5t-81 -105.5l-74 172q89 176 256 176z" />
    <glyph glyph-name="uni00A0" unicode="&#xa0;" horiz-adv-x="569" 
 />
    <glyph glyph-name="exclamdown" unicode="&#xa1;" horiz-adv-x="569" 
d="M147 1087h275v-256h-275v256zM158 43l67 637h121l68 -637v-418h-256v418z" />
    <glyph glyph-name="cent" unicode="&#xa2;" 
d="M549 1087v185h88v-185q181 -2 302 -107t134 -275h-233q-13 91 -68 144.5t-135 53.5v-747q187 34 211 241h233q-36 -205 -149.5 -315.5t-294.5 -110.5v-184h-88v184q-145 3 -253.5 77.5t-164 196.5t-55.5 273q0 252 131 410.5t342 158.5zM309 518q0 -145 63 -244.5
t177 -117.5v747q-111 -9 -175.5 -114t-64.5 -271z" />
    <glyph glyph-name="sterling" unicode="&#xa3;" 
d="M1090 991h-234q-17 312 -274 312q-102 0 -166 -67t-64 -173q0 -52 19 -111t75 -166h302v-133h-252q32 -66 32 -137q0 -93 -47.5 -171t-158.5 -165l4 -4q121 55 188 55q86 0 203 -49q58 -22 114 -22q115 0 199 78l105 -158q-78 -65 -151.5 -90t-174.5 -25q-102 0 -240 41
q-99 31 -180 31q-56 0 -114.5 -20t-92.5 -50l-108 166q98 69 159.5 162t61.5 172q0 99 -43 186h-189v133h130q-44 54 -70.5 135t-26.5 154q0 122 69 220t178 150t232 52q244 0 378 -129.5t137 -376.5z" />
    <glyph glyph-name="currency" unicode="&#xa4;" 
d="M854 1139l119 116l125 -125l-115 -118q96 -101 96 -293q0 -88 -26.5 -167.5t-71.5 -131.5l113 -121l-113 -113l-117 119q-108 -102 -293 -102q-186 0 -301 100l-4 -4l-110 -115l-115 115l117 125q-103 118 -103 291q0 95 27.5 171.5t75.5 123.5l-117 125l117 116
l116 -114q54 44 136 69t163 25q80 0 154.5 -25t126.5 -67zM276 715q0 -125 85.5 -214t209.5 -89q121 0 204 90.5t83 216.5q0 125 -82.5 214t-204.5 89t-208.5 -90t-86.5 -217z" />
    <glyph glyph-name="yen" unicode="&#xa5;" 
d="M-10 1462h260l319 -655l326 655h254l-385 -719h203v-133h-281v-139h281v-133h-281v-338h-233v338h-281v133h281v139h-281v133h201z" />
    <glyph glyph-name="brokenbar" unicode="&#xa6;" horiz-adv-x="454" 
d="M123 1354h209v-512h-209v512zM123 330h209v-512h-209v512z" />
    <glyph glyph-name="section" unicode="&#xa7;" 
d="M582 1497q177 0 293 -106t116 -281h-219q-5 91 -57.5 147t-134.5 56q-66 0 -117 -45t-51 -109q0 -68 61 -123.5t213 -128.5q257 -122 332 -215q78 -96 78 -205q0 -91 -61 -176t-156 -118q60 -52 86 -113.5t26 -149.5q0 -157 -116 -253.5t-289 -96.5q-193 0 -314.5 111.5
t-128.5 308.5h222q18 -236 215 -236q87 0 132.5 42.5t45.5 123.5q0 40 -20 77t-48 65t-82 62t-97.5 57.5t-119.5 61.5q-17 9 -26 13q-166 85 -243 174.5t-77 198.5q0 213 221 305q-49 53 -68.5 99.5t-19.5 107.5q0 98 57.5 178.5t149.5 124t197 43.5zM266 666
q0 -97 113 -160l373 -209q122 57 122 168q0 53 -29.5 88t-133.5 94l-322 182q-56 -17 -89.5 -61.5t-33.5 -101.5z" />
    <glyph glyph-name="dieresis" unicode="&#xa8;" horiz-adv-x="493" 
d="M-47 1454h233v-221h-233v221zM305 1454h234v-221h-234v221z" />
    <glyph glyph-name="copyright" unicode="&#xa9;" horiz-adv-x="1638" 
d="M821 1497q159 0 299 -60t238.5 -163t155.5 -244t57 -299q0 -212 -96.5 -387t-269 -277t-384.5 -102q-162 0 -302.5 58.5t-239.5 160.5t-155 243.5t-56 303.5q0 213 97 388t270 276.5t386 101.5zM231 731q0 -176 70.5 -319t206 -228.5t313.5 -85.5q130 0 241 51t186 137.5
t117 201.5t42 243q0 129 -42 244t-117 201.5t-186.5 137t-242.5 50.5t-242.5 -50.5t-186.5 -137t-117 -201.5t-42 -244zM842 1171q150 0 247.5 -83.5t116.5 -225.5h-139q-19 82 -79.5 129t-145.5 47q-119 0 -193 -85.5t-74 -221.5q0 -141 77 -235.5t194 -94.5q87 0 148 49
t73 134h141q-26 -145 -126.5 -230.5t-235.5 -85.5q-188 0 -311 130.5t-123 332.5q0 191 117.5 315.5t312.5 124.5z" />
    <glyph glyph-name="ordfeminine" unicode="&#xaa;" horiz-adv-x="778" 
d="M387 1462q130 0 210.5 -52t80.5 -136v-311q0 -29 7.5 -37t27.5 -8q24 0 32 2v-140q-5 -4 -40 -10t-58 -6q-55 0 -84 22t-41 78q-22 -37 -97 -68.5t-142 -31.5q-110 0 -180 51.5t-70 138.5q0 90 64 137t233 70q98 13 134 30t36 46q0 46 -26 69t-95 23q-140 0 -146 -86
h-174q9 105 94.5 162t233.5 57zM211 965q0 -36 27 -52t88 -16q174 0 174 109v90q-37 -17 -111 -27q-100 -13 -139 -37.5t-39 -66.5z" />
    <glyph glyph-name="guillemotleft" unicode="&#xab;" horiz-adv-x="948" 
d="M102 672l318 252v-211l-195 -156l195 -156v-211l-318 252v230zM508 672l317 252v-211l-194 -156l194 -156v-211l-317 252v230z" />
    <glyph glyph-name="logicalnot" unicode="&#xac;" horiz-adv-x="1228" 
d="M98 829h1032v-608h-208v400h-824v208z" />
    <glyph glyph-name="uni00AD" unicode="&#xad;" horiz-adv-x="796" 
d="M100 668h596v-222h-596v222z" />
    <glyph glyph-name="registered" unicode="&#xae;" horiz-adv-x="1638" 
d="M821 1497q159 0 299 -60t238.5 -163t155.5 -244t57 -299q0 -212 -96.5 -387t-269 -277t-384.5 -102q-162 0 -302.5 58.5t-239.5 160.5t-155 243.5t-56 303.5q0 213 97 388t270 276.5t386 101.5zM231 731q0 -176 70.5 -319t206 -228.5t313.5 -85.5q130 0 241 51t186 137.5
t117 201.5t42 243q0 129 -42 244t-117 201.5t-186.5 137t-242.5 50.5t-242.5 -50.5t-186.5 -137t-117 -201.5t-42 -244zM530 1141h330q152 0 226.5 -59.5t74.5 -184.5q0 -206 -221 -231l238 -373h-158l-219 362h-131v-362h-140v848zM670 774h164q108 0 148 31.5t40 101.5
q0 115 -174 115h-178v-248z" />
    <glyph glyph-name="macron" unicode="&#xaf;" horiz-adv-x="493" 
d="M-47 1411h590v-133h-590v133z" />
    <glyph glyph-name="degree" unicode="&#xb0;" horiz-adv-x="819" 
d="M410 1462q130 0 218.5 -91t88.5 -216q0 -126 -88.5 -216.5t-218.5 -90.5q-128 0 -218 90t-90 217q0 128 90.5 217.5t217.5 89.5zM217 1155q0 -82 57 -137t136 -55t135.5 55t56.5 137q0 79 -55.5 136t-136.5 57q-77 0 -135 -57t-58 -136z" />
    <glyph glyph-name="plusminus" unicode="&#xb1;" horiz-adv-x="1228" 
d="M510 1036h209v-256h411v-209h-411v-256h-209v256h-412v209h412v256zM98 209h1032v-209h-1032v209z" />
    <glyph glyph-name="twosuperior" unicode="&#xb2;" horiz-adv-x="798" 
d="M422 1698q144 0 225.5 -69.5t81.5 -190.5q0 -83 -47 -148t-164 -137l-70 -42.5t-58.5 -35.5t-40.5 -27t-34.5 -28.5t-21 -28t-17.5 -35.5h447v-143h-653q2 123 45 206t164 157l137 84q82 50 108.5 91t26.5 87q0 54 -35.5 85t-95.5 31q-144 0 -156 -170h-178
q1 145 92.5 229.5t243.5 84.5z" />
    <glyph glyph-name="threesuperior" unicode="&#xb3;" horiz-adv-x="798" 
d="M401 1698q133 0 215 -63.5t82 -168.5q0 -121 -131 -176q166 -54 166 -221q0 -119 -96 -196.5t-242 -77.5q-156 0 -245 76.5t-89 207.5h164q6 -72 48 -106.5t124 -34.5q79 0 125.5 37t46.5 102q0 69 -45.5 103t-161.5 34h-34v123h55q67 0 109.5 30t42.5 81t-38 81t-104 30
q-67 0 -107.5 -39t-41.5 -113h-164q6 136 92 213.5t229 77.5z" />
    <glyph glyph-name="acute" unicode="&#xb4;" horiz-adv-x="493" 
d="M276 1499h277l-291 -293h-170z" />
    <glyph glyph-name="mu" unicode="&#xb5;" horiz-adv-x="1175" 
d="M123 1059h233v-658q0 -245 203 -245q129 0 194.5 73t65.5 207v623h234v-1059h-230v147h-4q-108 -176 -291 -176q-111 0 -172 54v-416h-233v1450z" />
    <glyph glyph-name="paragraph" unicode="&#xb6;" horiz-adv-x="1228" 
d="M530 1462h541v-1790h-164v1657h-239v-1657h-164v1033q-201 1 -321 106t-120 266q0 188 121 286.5t346 98.5z" />
    <glyph glyph-name="periodcentered" unicode="&#xb7;" horiz-adv-x="569" 
d="M285 770q63 0 108 -46.5t45 -105.5q0 -61 -45 -108t-108 -47t-108.5 46.5t-45.5 108.5q0 59 45.5 105.5t108.5 46.5z" />
    <glyph glyph-name="cedilla" unicode="&#xb8;" horiz-adv-x="493" 
d="M94 -180l135 180h99l-95 -121l3 -2q36 8 65 8q74 0 125 -43t51 -110q0 -92 -71.5 -140.5t-178.5 -48.5q-128 0 -209 47l37 82q77 -32 140 -32q118 0 118 84q0 35 -26.5 56t-67.5 21q-47 0 -80 -20z" />
    <glyph glyph-name="onesuperior" unicode="&#xb9;" horiz-adv-x="798" 
d="M401 1679h144v-866h-178v604h-248v119q117 0 191 37t91 106z" />
    <glyph glyph-name="ordmasculine" unicode="&#xba;" horiz-adv-x="778" 
d="M395 1462q175 0 270 -93.5t95 -256.5t-95 -255.5t-270 -92.5q-172 0 -268 92t-96 256q0 166 96.5 258t267.5 92zM209 1112q0 -90 50.5 -152.5t135.5 -62.5q63 0 107.5 35.5t62 83t17.5 98.5q0 91 -52 153t-137 62q-81 0 -132.5 -62t-51.5 -155z" />
    <glyph glyph-name="guillemotright" unicode="&#xbb;" horiz-adv-x="948" 
d="M123 713v211l317 -252v-230l-317 -252v211l194 156zM528 924l318 -252v-230l-318 -252v211l195 156l-195 156v211z" />
    <glyph glyph-name="onequarter" unicode="&#xbc;" horiz-adv-x="1708" 
d="M1167 1483h160l-856 -1532h-162zM356 1444h144v-866h-178v604h-248v118q118 0 192.5 38t89.5 106zM1305 866h159v-538h119v-140h-119v-188h-170v188h-395v156zM1294 328v325l-254 -325h254z" />
    <glyph glyph-name="onehalf" unicode="&#xbd;" horiz-adv-x="1708" 
d="M1126 1483h160l-856 -1532h-162zM356 1444h144v-866h-178v604h-248v118q118 0 192.5 38t89.5 106zM1319 885q144 0 225.5 -69.5t81.5 -190.5q0 -156 -182 -267l-174 -106q-81 -52 -96 -109h446v-143h-653q2 123 45 205.5t164 156.5l137 84q80 49 107.5 89.5t27.5 89.5
q0 54 -35.5 85t-95.5 31q-144 0 -156 -170h-178q0 142 92 228t244 86z" />
    <glyph glyph-name="threequarters" unicode="&#xbe;" horiz-adv-x="1708" 
d="M1270 1483h160l-859 -1532h-159zM416 1458q131 0 214 -63.5t83 -167.5q0 -120 -131 -176q166 -51 166 -222q0 -116 -97 -195t-239 -79q-156 0 -245 76t-91 209h164q12 -142 172 -142q78 0 125 38.5t47 101.5q0 69 -47 103t-162 34h-33v123h41q83 0 124.5 29.5t41.5 80.5
q0 54 -36 82.5t-105 28.5q-70 0 -110 -40.5t-40 -111.5h-164q7 139 93.5 215t228.5 76zM1323 866h162v-538h119v-140h-119v-188h-170v188h-395v156zM1315 328v325l-254 -325h254z" />
    <glyph glyph-name="questiondown" unicode="&#xbf;" 
d="M430 1087h275v-256h-275v256zM461 680h221q0 -167 -37 -258t-135 -168q-95 -75 -124.5 -126t-29.5 -126q0 -94 61.5 -155.5t139.5 -61.5q117 0 182.5 75.5t65.5 219.5h233q0 -221 -135.5 -355.5t-355.5 -134.5q-195 0 -321 112t-126 292q0 108 37.5 182.5t143.5 157.5
q107 83 143.5 155t36.5 191z" />
    <glyph glyph-name="Agrave" unicode="&#xc0;" horiz-adv-x="1366" 
d="M547 1462h272l563 -1462h-274l-137 387h-584l-137 -387h-264zM684 1210h-6l-221 -628h446zM342 1896h274l187 -292h-170z" />
    <glyph glyph-name="Aacute" unicode="&#xc1;" horiz-adv-x="1366" 
d="M547 1462h272l563 -1462h-274l-137 387h-584l-137 -387h-264zM684 1210h-6l-221 -628h446zM750 1896h276l-291 -292h-170z" />
    <glyph glyph-name="Acircumflex" unicode="&#xc2;" horiz-adv-x="1366" 
d="M547 1462h272l563 -1462h-274l-137 387h-584l-137 -387h-264zM684 1210h-6l-221 -628h446zM571 1896h228l221 -292h-191l-145 184l-143 -184h-189z" />
    <glyph glyph-name="Atilde" unicode="&#xc3;" horiz-adv-x="1366" 
d="M547 1462h272l563 -1462h-274l-137 387h-584l-137 -387h-264zM684 1210h-6l-221 -628h446zM932 1872h115q-13 -113 -73 -174.5t-153 -61.5q-60 0 -149 39q-84 37 -144 37q-73 0 -88 -84h-116q20 102 76.5 167t138.5 65q66 0 153 -37q11 -4 33.5 -13.5t34.5 -14t31.5 -9
t37.5 -4.5q79 0 103 90z" />
    <glyph glyph-name="Adieresis" unicode="&#xc4;" horiz-adv-x="1366" 
d="M547 1462h272l563 -1462h-274l-137 387h-584l-137 -387h-264zM684 1210h-6l-221 -628h446zM391 1851h234v-221h-234v221zM743 1851h234v-221h-234v221z" />
    <glyph glyph-name="Aring" unicode="&#xc5;" horiz-adv-x="1366" 
d="M547 1462h272l563 -1462h-274l-137 387h-584l-137 -387h-264zM684 1210h-6l-221 -628h446zM684 1960q91 0 152 -59.5t61 -151.5q0 -89 -61 -150t-152 -61q-90 0 -151.5 60t-61.5 151q0 92 62.5 151.5t150.5 59.5zM561 1749q0 -53 35.5 -89t87.5 -36q53 0 88 36t35 89
t-34 89t-89 36q-53 0 -88 -35.5t-35 -89.5z" />
    <glyph glyph-name="AE" unicode="&#xc6;" horiz-adv-x="1972" 
d="M713 1462h1179v-221h-712v-383h667v-209h-667v-428h725v-221h-969v375h-490l-176 -375h-284zM862 1241l-321 -672h395v672h-74z" />
    <glyph glyph-name="Ccedilla" unicode="&#xc7;" horiz-adv-x="1478" 
d="M778 1497q256 0 426 -135t195 -365h-256q-76 291 -365 291q-206 0 -325 -154t-119 -403q0 -248 118.5 -402.5t325.5 -154.5q159 0 255.5 101.5t117.5 281.5h250q-20 -264 -183.5 -424.5t-426.5 -167.5l-66 -86l2 -2q29 8 68 8q73 0 123.5 -43t50.5 -110
q0 -90 -69.5 -139.5t-178.5 -49.5q-127 0 -211 47l37 82q78 -32 139 -32q119 0 119 84q0 33 -26.5 55t-67.5 22q-47 0 -80 -20l-45 39l112 151q-189 22 -330.5 126.5t-215.5 268.5t-74 365q0 154 48 292.5t136 244t221.5 167.5t294.5 62z" />
    <glyph glyph-name="Egrave" unicode="&#xc8;" horiz-adv-x="1290" 
d="M156 1462h1052v-221h-796v-383h737v-209h-737v-428h811v-221h-1067v1462zM313 1896h275l186 -292h-170z" />
    <glyph glyph-name="Eacute" unicode="&#xc9;" horiz-adv-x="1290" 
d="M156 1462h1052v-221h-796v-383h737v-209h-737v-428h811v-221h-1067v1462zM762 1896h276l-290 -292h-170z" />
    <glyph glyph-name="Ecircumflex" unicode="&#xca;" horiz-adv-x="1290" 
d="M156 1462h1052v-221h-796v-383h737v-209h-737v-428h811v-221h-1067v1462zM563 1896h228l221 -292h-191l-145 184l-144 -184h-188z" />
    <glyph glyph-name="Edieresis" unicode="&#xcb;" horiz-adv-x="1290" 
d="M156 1462h1052v-221h-796v-383h737v-209h-737v-428h811v-221h-1067v1462zM383 1851h233v-221h-233v221zM735 1851h234v-221h-234v221z" />
    <glyph glyph-name="Igrave" unicode="&#xcc;" horiz-adv-x="569" 
d="M156 1462h256v-1462h-256v1462zM-57 1896h274l186 -292h-170z" />
    <glyph glyph-name="Iacute" unicode="&#xcd;" horiz-adv-x="569" 
d="M156 1462h256v-1462h-256v1462zM350 1896h277l-291 -292h-170z" />
    <glyph glyph-name="Icircumflex" unicode="&#xce;" horiz-adv-x="569" 
d="M156 1462h256v-1462h-256v1462zM172 1896h227l222 -292h-191l-145 184l-144 -184h-188z" />
    <glyph glyph-name="Idieresis" unicode="&#xcf;" horiz-adv-x="569" 
d="M156 1462h256v-1462h-256v1462zM-8 1851h233v-221h-233v221zM344 1851h234v-221h-234v221z" />
    <glyph glyph-name="Eth" unicode="&#xd0;" horiz-adv-x="1478" 
d="M156 1462h616q292 0 463.5 -195t171.5 -536q0 -348 -171.5 -539.5t-463.5 -191.5h-616v676h-150v160h150v626zM412 836h399v-160h-399v-467h264q238 0 356.5 121t118.5 401q0 128 -24 221t-78.5 162.5t-148 104t-226.5 34.5h-262v-417z" />
    <glyph glyph-name="Ntilde" unicode="&#xd1;" horiz-adv-x="1478" 
d="M145 1462h271l667 -1077h4v1077h244v-1462h-270l-666 1075h-6v-1075h-244v1462zM983 1872h115q-13 -113 -73 -174.5t-153 -61.5q-60 0 -149 39q-84 37 -143 37q-73 0 -88 -84h-117q20 102 76.5 167t138.5 65q66 0 153 -37q10 -4 33 -13.5t35.5 -14t32 -9t37.5 -4.5
q78 0 102 90z" />
    <glyph glyph-name="Ograve" unicode="&#xd2;" horiz-adv-x="1556" 
d="M778 1497q159 0 292.5 -61t222 -166t137.5 -244t49 -295q0 -211 -83.5 -384t-245 -277.5t-372.5 -104.5q-160 0 -293.5 61t-221.5 165.5t-136.5 243.5t-48.5 296q0 156 49 295t137 244t221.5 166t292.5 61zM334 731q0 -85 16 -164t50.5 -151t85.5 -125.5t126 -85
t166 -31.5q92 0 167 31.5t126 84.5t86 124.5t50.5 151t15.5 165.5t-16 165.5t-51 151t-86 124.5t-126.5 84.5t-167.5 31.5t-167 -31.5t-125 -85t-84.5 -125.5t-50 -151t-15.5 -164zM418 1896h274l187 -292h-170z" />
    <glyph glyph-name="Oacute" unicode="&#xd3;" horiz-adv-x="1556" 
d="M778 1497q159 0 292.5 -61t222 -166t137.5 -244t49 -295q0 -211 -83.5 -384t-245 -277.5t-372.5 -104.5q-160 0 -293.5 61t-221.5 165.5t-136.5 243.5t-48.5 296q0 156 49 295t137 244t221.5 166t292.5 61zM334 731q0 -85 16 -164t50.5 -151t85.5 -125.5t126 -85
t166 -31.5q92 0 167 31.5t126 84.5t86 124.5t50.5 151t15.5 165.5t-16 165.5t-51 151t-86 124.5t-126.5 84.5t-167.5 31.5t-167 -31.5t-125 -85t-84.5 -125.5t-50 -151t-15.5 -164zM866 1896h277l-291 -292h-170z" />
    <glyph glyph-name="Ocircumflex" unicode="&#xd4;" horiz-adv-x="1556" 
d="M778 1497q159 0 292.5 -61t222 -166t137.5 -244t49 -295q0 -211 -83.5 -384t-245 -277.5t-372.5 -104.5q-160 0 -293.5 61t-221.5 165.5t-136.5 243.5t-48.5 296q0 156 49 295t137 244t221.5 166t292.5 61zM334 731q0 -85 16 -164t50.5 -151t85.5 -125.5t126 -85
t166 -31.5q92 0 167 31.5t126 84.5t86 124.5t50.5 151t15.5 165.5t-16 165.5t-51 151t-86 124.5t-126.5 84.5t-167.5 31.5t-167 -31.5t-125 -85t-84.5 -125.5t-50 -151t-15.5 -164zM668 1896h227l221 -292h-190l-146 184l-143 -184h-188z" />
    <glyph glyph-name="Otilde" unicode="&#xd5;" horiz-adv-x="1556" 
d="M778 1497q159 0 292.5 -61t222 -166t137.5 -244t49 -295q0 -211 -83.5 -384t-245 -277.5t-372.5 -104.5q-160 0 -293.5 61t-221.5 165.5t-136.5 243.5t-48.5 296q0 156 49 295t137 244t221.5 166t292.5 61zM334 731q0 -85 16 -164t50.5 -151t85.5 -125.5t126 -85
t166 -31.5q92 0 167 31.5t126 84.5t86 124.5t50.5 151t15.5 165.5t-16 165.5t-51 151t-86 124.5t-126.5 84.5t-167.5 31.5t-167 -31.5t-125 -85t-84.5 -125.5t-50 -151t-15.5 -164zM1028 1872h115q-13 -113 -72.5 -174.5t-152.5 -61.5q-61 0 -150 39q-84 37 -143 37
q-73 0 -88 -84h-117q20 102 76.5 167t138.5 65q66 0 153 -37q10 -4 33 -13.5t35.5 -14t32 -9t37.5 -4.5q78 0 102 90z" />
    <glyph glyph-name="Odieresis" unicode="&#xd6;" horiz-adv-x="1556" 
d="M778 1497q159 0 292.5 -61t222 -166t137.5 -244t49 -295q0 -211 -83.5 -384t-245 -277.5t-372.5 -104.5q-160 0 -293.5 61t-221.5 165.5t-136.5 243.5t-48.5 296q0 156 49 295t137 244t221.5 166t292.5 61zM334 731q0 -85 16 -164t50.5 -151t85.5 -125.5t126 -85
t166 -31.5q92 0 167 31.5t126 84.5t86 124.5t50.5 151t15.5 165.5t-16 165.5t-51 151t-86 124.5t-126.5 84.5t-167.5 31.5t-167 -31.5t-125 -85t-84.5 -125.5t-50 -151t-15.5 -164zM487 1851h234v-221h-234v221zM840 1851h233v-221h-233v221z" />
    <glyph glyph-name="multiply" unicode="&#xd7;" horiz-adv-x="1228" 
d="M113 874l163 146l336 -356l340 356l164 -146l-358 -356l356 -356l-164 -146l-336 357l-340 -357l-163 146l358 356z" />
    <glyph glyph-name="Oslash" unicode="&#xd8;" horiz-adv-x="1556" 
d="M1233 1331l153 172l89 -73l-162 -183q166 -214 166 -516q0 -222 -89.5 -397t-249.5 -272t-362 -97q-268 0 -454 168l-156 -174l-86 74l162 184q-166 216 -166 514q0 225 91.5 400.5t251 270.5t357.5 95q274 0 455 -166zM334 731q0 -191 74 -330l673 758
q-107 129 -305 129q-202 0 -322 -152.5t-120 -404.5zM1147 1061l-672 -758q118 -129 303 -129q91 0 166 30.5t126 83t86 124.5t51 151.5t16 167.5q0 208 -76 330z" />
    <glyph glyph-name="Ugrave" unicode="&#xd9;" horiz-adv-x="1478" 
d="M139 1462h256v-864q0 -81 8.5 -141t31 -113t61 -86.5t99.5 -52.5t144 -19q82 0 142.5 18.5t99 51t61.5 84.5t32 112t9 140v870h256v-946q0 -179 -78 -305t-211 -186t-311 -60q-132 0 -241 35t-189.5 103t-125 173.5t-44.5 239.5v946zM377 1896h274l187 -292h-170z" />
    <glyph glyph-name="Uacute" unicode="&#xda;" horiz-adv-x="1478" 
d="M139 1462h256v-864q0 -81 8.5 -141t31 -113t61 -86.5t99.5 -52.5t144 -19q82 0 142.5 18.5t99 51t61.5 84.5t32 112t9 140v870h256v-946q0 -179 -78 -305t-211 -186t-311 -60q-132 0 -241 35t-189.5 103t-125 173.5t-44.5 239.5v946zM825 1896h277l-291 -292h-170z" />
    <glyph glyph-name="Ucircumflex" unicode="&#xdb;" horiz-adv-x="1478" 
d="M139 1462h256v-864q0 -81 8.5 -141t31 -113t61 -86.5t99.5 -52.5t144 -19q82 0 142.5 18.5t99 51t61.5 84.5t32 112t9 140v870h256v-946q0 -179 -78 -305t-211 -186t-311 -60q-132 0 -241 35t-189.5 103t-125 173.5t-44.5 239.5v946zM627 1896h227l221 -292h-190
l-146 184l-143 -184h-188z" />
    <glyph glyph-name="Udieresis" unicode="&#xdc;" horiz-adv-x="1478" 
d="M139 1462h256v-864q0 -81 8.5 -141t31 -113t61 -86.5t99.5 -52.5t144 -19q82 0 142.5 18.5t99 51t61.5 84.5t32 112t9 140v870h256v-946q0 -179 -78 -305t-211 -186t-311 -60q-132 0 -241 35t-189.5 103t-125 173.5t-44.5 239.5v946zM446 1851h234v-221h-234v221z
M799 1851h233v-221h-233v221z" />
    <glyph glyph-name="Yacute" unicode="&#xdd;" horiz-adv-x="1327" 
d="M-12 1462h297l387 -655l381 655h286l-546 -889v-573h-256v573zM762 1896h276l-290 -292h-170z" />
    <glyph glyph-name="Thorn" unicode="&#xde;" horiz-adv-x="1366" 
d="M156 1462h256v-221h399q228 0 357.5 -120t129.5 -333q0 -212 -127.5 -330t-359.5 -118h-399v-340h-256v1462zM412 549h381q107 0 178 63.5t71 178.5q0 241 -243 241h-387v-483z" />
    <glyph glyph-name="germandbls" unicode="&#xdf;" horiz-adv-x="1175" 
d="M578 1497q186 0 311 -103.5t125 -265.5q0 -111 -53 -193t-156 -116v-4q122 -13 198 -115t76 -235q0 -219 -130 -356.5t-341 -137.5q-48 0 -112 6v185q25 -6 67 -6q151 0 217 77t66 240q0 123 -89.5 188.5t-248.5 65.5h-10v154q146 0 214 62t68 163q0 207 -207 207
q-100 0 -155.5 -69t-55.5 -189v-1055h-233v1079q0 187 124 302.5t325 115.5z" />
    <glyph glyph-name="agrave" unicode="&#xe0;" 
d="M586 1087q192 0 308 -83t116 -218v-557q0 -42 12.5 -57.5t50.5 -15.5q33 0 49 4v-162q-100 -27 -147 -27q-157 0 -180 129q-61 -61 -163 -95t-204 -34q-160 0 -261 83.5t-101 226.5q0 140 71.5 211t202.5 98q83 17 266 39q105 12 145 40.5t40 90.5q0 69 -56 106t-164 37
q-106 0 -165.5 -44t-67.5 -124h-234q12 173 135.5 262.5t346.5 89.5zM299 301q0 -67 53.5 -106t147.5 -39q121 0 198.5 54t77.5 140v180q-11 -7 -19.5 -11.5t-20 -9t-18 -7.5t-22 -6t-23 -4.5t-29.5 -5t-33 -4.5t-42.5 -5t-48.5 -6q-114 -13 -167.5 -55t-53.5 -115z
M229 1499h275l186 -293h-170z" />
    <glyph glyph-name="aacute" unicode="&#xe1;" 
d="M586 1087q192 0 308 -83t116 -218v-557q0 -42 12.5 -57.5t50.5 -15.5q33 0 49 4v-162q-100 -27 -147 -27q-157 0 -180 129q-61 -61 -163 -95t-204 -34q-160 0 -261 83.5t-101 226.5q0 140 71.5 211t202.5 98q83 17 266 39q105 12 145 40.5t40 90.5q0 69 -56 106t-164 37
q-106 0 -165.5 -44t-67.5 -124h-234q12 173 135.5 262.5t346.5 89.5zM299 301q0 -67 53.5 -106t147.5 -39q121 0 198.5 54t77.5 140v180q-11 -7 -19.5 -11.5t-20 -9t-18 -7.5t-22 -6t-23 -4.5t-29.5 -5t-33 -4.5t-42.5 -5t-48.5 -6q-114 -13 -167.5 -55t-53.5 -115z
M657 1499h277l-291 -293h-170z" />
    <glyph glyph-name="acircumflex" unicode="&#xe2;" 
d="M586 1087q192 0 308 -83t116 -218v-557q0 -42 12.5 -57.5t50.5 -15.5q33 0 49 4v-162q-100 -27 -147 -27q-157 0 -180 129q-61 -61 -163 -95t-204 -34q-160 0 -261 83.5t-101 226.5q0 140 71.5 211t202.5 98q83 17 266 39q105 12 145 40.5t40 90.5q0 69 -56 106t-164 37
q-106 0 -165.5 -44t-67.5 -124h-234q12 173 135.5 262.5t346.5 89.5zM299 301q0 -67 53.5 -106t147.5 -39q121 0 198.5 54t77.5 140v180q-11 -7 -19.5 -11.5t-20 -9t-18 -7.5t-22 -6t-23 -4.5t-29.5 -5t-33 -4.5t-42.5 -5t-48.5 -6q-114 -13 -167.5 -55t-53.5 -115z
M469 1499h227l222 -293h-191l-145 185l-144 -185h-188z" />
    <glyph glyph-name="atilde" unicode="&#xe3;" 
d="M586 1087q192 0 308 -83t116 -218v-557q0 -42 12.5 -57.5t50.5 -15.5q33 0 49 4v-162q-100 -27 -147 -27q-157 0 -180 129q-61 -61 -163 -95t-204 -34q-160 0 -261 83.5t-101 226.5q0 140 71.5 211t202.5 98q83 17 266 39q105 12 145 40.5t40 90.5q0 69 -56 106t-164 37
q-106 0 -165.5 -44t-67.5 -124h-234q12 173 135.5 262.5t346.5 89.5zM299 301q0 -67 53.5 -106t147.5 -39q121 0 198.5 54t77.5 140v180q-11 -7 -19.5 -11.5t-20 -9t-18 -7.5t-22 -6t-23 -4.5t-29.5 -5t-33 -4.5t-42.5 -5t-48.5 -6q-114 -13 -167.5 -55t-53.5 -115z
M829 1475h115q-15 -112 -74 -174t-151 -62q-66 0 -150 37q-89 39 -143 39q-73 0 -88 -84h-117q20 102 76.5 166.5t138.5 64.5q67 0 154 -37q11 -4 33.5 -13.5t34.5 -14t31.5 -9t37.5 -4.5q78 0 102 91z" />
    <glyph glyph-name="adieresis" unicode="&#xe4;" 
d="M586 1087q192 0 308 -83t116 -218v-557q0 -42 12.5 -57.5t50.5 -15.5q33 0 49 4v-162q-100 -27 -147 -27q-157 0 -180 129q-61 -61 -163 -95t-204 -34q-160 0 -261 83.5t-101 226.5q0 140 71.5 211t202.5 98q83 17 266 39q105 12 145 40.5t40 90.5q0 69 -56 106t-164 37
q-106 0 -165.5 -44t-67.5 -124h-234q12 173 135.5 262.5t346.5 89.5zM299 301q0 -67 53.5 -106t147.5 -39q121 0 198.5 54t77.5 140v180q-11 -7 -19.5 -11.5t-20 -9t-18 -7.5t-22 -6t-23 -4.5t-29.5 -5t-33 -4.5t-42.5 -5t-48.5 -6q-114 -13 -167.5 -55t-53.5 -115z
M289 1454h233v-221h-233v221zM641 1454h233v-221h-233v221z" />
    <glyph glyph-name="aring" unicode="&#xe5;" 
d="M586 1087q192 0 308 -83t116 -218v-557q0 -42 12.5 -57.5t50.5 -15.5q33 0 49 4v-162q-100 -27 -147 -27q-157 0 -180 129q-61 -61 -163 -95t-204 -34q-160 0 -261 83.5t-101 226.5q0 140 71.5 211t202.5 98q83 17 266 39q105 12 145 40.5t40 90.5q0 69 -56 106t-164 37
q-106 0 -165.5 -44t-67.5 -124h-234q12 173 135.5 262.5t346.5 89.5zM299 301q0 -67 53.5 -106t147.5 -39q121 0 198.5 54t77.5 140v180q-11 -7 -19.5 -11.5t-20 -9t-18 -7.5t-22 -6t-23 -4.5t-29.5 -5t-33 -4.5t-42.5 -5t-48.5 -6q-114 -13 -167.5 -55t-53.5 -115z
M580 1591q93 0 153 -60.5t60 -150.5t-60.5 -150.5t-152.5 -60.5q-91 0 -152 60t-61 151q0 87 59.5 149t153.5 62zM457 1380q0 -53 36.5 -89t86.5 -36q53 0 87.5 34.5t34.5 90.5q0 54 -33 89.5t-89 35.5q-53 0 -88 -36t-35 -89z" />
    <glyph glyph-name="ae" unicode="&#xe6;" horiz-adv-x="1820" 
d="M580 1087q138 0 223.5 -36t134.5 -107q112 143 336 143q234 0 363.5 -145.5t129.5 -400.5v-43q0 -8 -1 -18t-1 -11h-768q0 -142 74.5 -227.5t202.5 -85.5q188 0 250 178h233q-45 -170 -174 -266.5t-305 -96.5q-136 0 -236 49t-153 146q-63 -96 -177.5 -145.5
t-260.5 -49.5q-176 0 -280.5 83.5t-104.5 228.5q0 53 12.5 96.5t30.5 73.5t47.5 54.5t54.5 38t61.5 25.5t57.5 16.5t53 10.5l240 35q49 7 80.5 18.5t47 27.5t21 32.5t6.5 40.5q1 44 -13.5 74.5t-44 46.5t-65.5 23t-84 7q-106 0 -165.5 -44t-67.5 -124h-234q12 172 135 262
t341 90zM997 623h535q0 133 -71.5 206.5t-196.5 73.5q-113 0 -185 -75t-82 -205zM299 293q0 -66 56.5 -101.5t156.5 -35.5q110 0 187 60t77 149v161q-24 -35 -176 -47q-134 -11 -189 -31q-112 -42 -112 -155z" />
    <glyph glyph-name="ccedilla" unicode="&#xe7;" 
d="M594 1087q202 0 331 -101.5t146 -280.5h-233q-13 95 -76.5 146.5t-165.5 51.5q-137 0 -214 -100t-77 -285q0 -159 74 -260.5t207 -101.5q101 0 167.5 61.5t84.5 179.5h233q-31 -192 -141.5 -300.5t-290.5 -123.5h-2l-72 -94l2 -2q29 8 68 8q72 0 123 -43.5t51 -109.5
q0 -89 -70 -139t-180 -50q-128 0 -209 47l37 82q77 -32 139 -32q119 0 119 84q0 34 -27.5 55.5t-66.5 21.5q-47 0 -80 -20l-45 39l115 153q-115 7 -205.5 53t-147.5 121t-86.5 169.5t-29.5 201.5q0 258 138 413.5t384 155.5z" />
    <glyph glyph-name="egrave" unicode="&#xe8;" 
d="M584 1087q146 0 262 -73.5t178.5 -196t62.5 -268.5q0 -26 -4 -80h-778q0 -136 75.5 -224.5t209.5 -88.5q196 0 258 176h221q-23 -111 -93 -193.5t-170 -125t-216 -42.5q-163 0 -281.5 72t-177.5 196.5t-59 286.5q0 153 61.5 280t179.5 204t271 77zM305 623h545
q-10 117 -81.5 198.5t-186.5 81.5q-120 0 -195.5 -80t-81.5 -200zM240 1499h274l186 -293h-170z" />
    <glyph glyph-name="eacute" unicode="&#xe9;" 
d="M584 1087q146 0 262 -73.5t178.5 -196t62.5 -268.5q0 -26 -4 -80h-778q0 -136 75.5 -224.5t209.5 -88.5q196 0 258 176h221q-23 -111 -93 -193.5t-170 -125t-216 -42.5q-163 0 -281.5 72t-177.5 196.5t-59 286.5q0 153 61.5 280t179.5 204t271 77zM305 623h545
q-10 117 -81.5 198.5t-186.5 81.5q-120 0 -195.5 -80t-81.5 -200zM668 1499h276l-291 -293h-170z" />
    <glyph glyph-name="ecircumflex" unicode="&#xea;" 
d="M584 1087q146 0 262 -73.5t178.5 -196t62.5 -268.5q0 -26 -4 -80h-778q0 -136 75.5 -224.5t209.5 -88.5q196 0 258 176h221q-23 -111 -93 -193.5t-170 -125t-216 -42.5q-163 0 -281.5 72t-177.5 196.5t-59 286.5q0 153 61.5 280t179.5 204t271 77zM305 623h545
q-10 117 -81.5 198.5t-186.5 81.5q-120 0 -195.5 -80t-81.5 -200zM479 1499h228l221 -293h-191l-145 185l-143 -185h-189z" />
    <glyph glyph-name="edieresis" unicode="&#xeb;" 
d="M584 1087q146 0 262 -73.5t178.5 -196t62.5 -268.5q0 -26 -4 -80h-778q0 -136 75.5 -224.5t209.5 -88.5q196 0 258 176h221q-23 -111 -93 -193.5t-170 -125t-216 -42.5q-163 0 -281.5 72t-177.5 196.5t-59 286.5q0 153 61.5 280t179.5 204t271 77zM305 623h545
q-10 117 -81.5 198.5t-186.5 81.5q-120 0 -195.5 -80t-81.5 -200zM299 1454h233v-221h-233v221zM651 1454h234v-221h-234v221z" />
    <glyph glyph-name="igrave" unicode="&#xec;" horiz-adv-x="493" 
d="M129 1059h233v-1059h-233v1059zM-84 1499h274l187 -293h-170z" />
    <glyph glyph-name="iacute" unicode="&#xed;" horiz-adv-x="493" 
d="M129 1059h233v-1059h-233v1059zM303 1499h277l-291 -293h-170z" />
    <glyph glyph-name="icircumflex" unicode="&#xee;" horiz-adv-x="493" 
d="M129 1059h233v-1059h-233v1059zM135 1499h227l222 -293h-191l-145 185l-144 -185h-188z" />
    <glyph glyph-name="idieresis" unicode="&#xef;" horiz-adv-x="493" 
d="M129 1059h233v-1059h-233v1059zM-45 1454h233v-221h-233v221zM307 1454h234v-221h-234v221z" />
    <glyph glyph-name="eth" unicode="&#xf0;" horiz-adv-x="1214" 
d="M348 1364l141 125q118 -40 218 -103l215 103l79 -92l-190 -92q153 -128 233 -303.5t80 -374.5q0 -314 -140 -485t-402 -171q-224 0 -360 148.5t-136 396.5q0 106 34 200.5t95 165.5t151.5 112.5t196.5 41.5q92 0 159.5 -29.5t129.5 -95.5h4q-34 82 -87.5 153t-145.5 150
l-226 -106l-82 92l193 90h4q-31 21 -83.5 44.5t-80.5 29.5zM319 502q0 -155 74.5 -250.5t202.5 -95.5q129 0 213 102t84 244q0 153 -75 251.5t-208 98.5q-139 0 -215 -92t-76 -258z" />
    <glyph glyph-name="ntilde" unicode="&#xf1;" horiz-adv-x="1175" 
d="M680 1087q180 0 276.5 -94.5t96.5 -257.5v-735h-234v662q0 241 -207 241q-117 0 -186.5 -81t-69.5 -191v-631h-233v1059h221v-156l4 -4q56 91 143 139.5t189 48.5zM838 1475h114q-15 -112 -74 -174t-151 -62q-65 0 -149 37q-89 39 -144 39q-73 0 -88 -84h-117
q20 102 76.5 166.5t138.5 64.5q67 0 154 -37q11 -4 33.5 -13.5t34.5 -14t31.5 -9t37.5 -4.5q79 0 103 91z" />
    <glyph glyph-name="ograve" unicode="&#xf2;" horiz-adv-x="1214" 
d="M608 1087q245 0 390 -155t145 -402q0 -251 -144.5 -405t-390.5 -154t-390 153.5t-144 405.5q0 247 144.5 402t389.5 155zM307 530q0 -70 18.5 -135.5t54 -119.5t94.5 -86.5t134 -32.5t134 32t94.5 86t54 119.5t18.5 136.5q0 73 -18 138t-53.5 118.5t-95.5 85t-136 31.5
q-97 0 -166.5 -55.5t-101 -138t-31.5 -179.5zM260 1499h275l186 -293h-170z" />
    <glyph glyph-name="oacute" unicode="&#xf3;" horiz-adv-x="1214" 
d="M608 1087q245 0 390 -155t145 -402q0 -251 -144.5 -405t-390.5 -154t-390 153.5t-144 405.5q0 247 144.5 402t389.5 155zM307 530q0 -70 18.5 -135.5t54 -119.5t94.5 -86.5t134 -32.5t134 32t94.5 86t54 119.5t18.5 136.5q0 73 -18 138t-53.5 118.5t-95.5 85t-136 31.5
q-97 0 -166.5 -55.5t-101 -138t-31.5 -179.5zM688 1499h277l-291 -293h-170z" />
    <glyph glyph-name="ocircumflex" unicode="&#xf4;" horiz-adv-x="1214" 
d="M608 1087q245 0 390 -155t145 -402q0 -251 -144.5 -405t-390.5 -154t-390 153.5t-144 405.5q0 247 144.5 402t389.5 155zM307 530q0 -70 18.5 -135.5t54 -119.5t94.5 -86.5t134 -32.5t134 32t94.5 86t54 119.5t18.5 136.5q0 73 -18 138t-53.5 118.5t-95.5 85t-136 31.5
q-97 0 -166.5 -55.5t-101 -138t-31.5 -179.5zM500 1499h227l221 -293h-190l-146 185l-143 -185h-188z" />
    <glyph glyph-name="otilde" unicode="&#xf5;" horiz-adv-x="1214" 
d="M608 1087q245 0 390 -155t145 -402q0 -251 -144.5 -405t-390.5 -154t-390 153.5t-144 405.5q0 247 144.5 402t389.5 155zM307 530q0 -70 18.5 -135.5t54 -119.5t94.5 -86.5t134 -32.5t134 32t94.5 86t54 119.5t18.5 136.5q0 73 -18 138t-53.5 118.5t-95.5 85t-136 31.5
q-97 0 -166.5 -55.5t-101 -138t-31.5 -179.5zM860 1475h115q-15 -112 -74 -174t-151 -62q-66 0 -150 37q-89 39 -143 39q-73 0 -88 -84h-117q20 102 76.5 166.5t138.5 64.5q67 0 154 -37q11 -4 33.5 -13.5t34.5 -14t31.5 -9t37.5 -4.5q78 0 102 91z" />
    <glyph glyph-name="odieresis" unicode="&#xf6;" horiz-adv-x="1214" 
d="M608 1087q245 0 390 -155t145 -402q0 -251 -144.5 -405t-390.5 -154t-390 153.5t-144 405.5q0 247 144.5 402t389.5 155zM307 530q0 -70 18.5 -135.5t54 -119.5t94.5 -86.5t134 -32.5t134 32t94.5 86t54 119.5t18.5 136.5q0 73 -18 138t-53.5 118.5t-95.5 85t-136 31.5
q-97 0 -166.5 -55.5t-101 -138t-31.5 -179.5zM319 1454h234v-221h-234v221zM672 1454h233v-221h-233v221z" />
    <glyph glyph-name="divide" unicode="&#xf7;" horiz-adv-x="1228" 
d="M614 1087q60 0 104 -44t44 -103q0 -55 -44.5 -101t-101.5 -46q-60 0 -104.5 44t-44.5 103q0 60 43 103.5t104 43.5zM98 623h1032v-209h-1032v209zM614 244q58 0 103 -45t45 -103q0 -54 -45 -100.5t-101 -46.5q-58 0 -103.5 44t-45.5 103q0 61 42.5 104.5t104.5 43.5z" />
    <glyph glyph-name="oslash" unicode="&#xf8;" horiz-adv-x="1214" 
d="M956 975l129 141l66 -57l-133 -146q125 -152 125 -383q0 -255 -145.5 -407t-389.5 -152q-215 0 -346 115l-131 -143l-65 57l133 145h2q-127 154 -127 385q0 253 145.5 405t388.5 152q210 0 348 -112zM307 530q0 -122 47 -213l457 500q-73 86 -205 86q-133 0 -216 -106
t-83 -267zM862 741l-456 -499q77 -86 202 -86q136 0 218.5 104.5t82.5 269.5q0 119 -47 211z" />
    <glyph glyph-name="ugrave" unicode="&#xf9;" horiz-adv-x="1175" 
d="M123 1059h233v-658q0 -245 203 -245q129 0 194.5 73t65.5 207v623h234v-1059h-230v147h-4q-45 -81 -128 -128.5t-175 -47.5q-201 0 -297 101.5t-96 304.5v682zM242 1499h274l186 -293h-170z" />
    <glyph glyph-name="uacute" unicode="&#xfa;" horiz-adv-x="1175" 
d="M123 1059h233v-658q0 -245 203 -245q129 0 194.5 73t65.5 207v623h234v-1059h-230v147h-4q-45 -81 -128 -128.5t-175 -47.5q-201 0 -297 101.5t-96 304.5v682zM670 1499h276l-291 -293h-170z" />
    <glyph glyph-name="ucircumflex" unicode="&#xfb;" horiz-adv-x="1175" 
d="M123 1059h233v-658q0 -245 203 -245q129 0 194.5 73t65.5 207v623h234v-1059h-230v147h-4q-45 -81 -128 -128.5t-175 -47.5q-201 0 -297 101.5t-96 304.5v682zM481 1499h228l221 -293h-191l-145 185l-143 -185h-189z" />
    <glyph glyph-name="udieresis" unicode="&#xfc;" horiz-adv-x="1175" 
d="M123 1059h233v-658q0 -245 203 -245q129 0 194.5 73t65.5 207v623h234v-1059h-230v147h-4q-45 -81 -128 -128.5t-175 -47.5q-201 0 -297 101.5t-96 304.5v682zM301 1454h234v-221h-234v221zM653 1454h234v-221h-234v221z" />
    <glyph glyph-name="yacute" unicode="&#xfd;" horiz-adv-x="1062" 
d="M6 1059h256l277 -791h4l268 791h244l-408 -1106q-60 -168 -117 -246q-46 -68 -109.5 -97.5t-154.5 -29.5q-74 0 -160 12v197q4 0 43.5 -7t67.5 -7q110 0 145 96l46 133zM621 1499h276l-291 -293h-170z" />
    <glyph glyph-name="thorn" unicode="&#xfe;" horiz-adv-x="1251" 
d="M129 1462h233v-540h5q50 75 137 120t178 45q231 0 363.5 -155.5t132.5 -407.5q0 -85 -17 -164.5t-53.5 -150.5t-89 -123.5t-129 -83.5t-168.5 -31q-114 0 -211.5 44.5t-142.5 121.5h-5v-528h-233v1853zM354 528q0 -166 81 -269t216 -103q138 0 215.5 102.5t77.5 269.5
q0 158 -81.5 266.5t-213.5 108.5q-139 0 -217 -98.5t-78 -276.5z" />
    <glyph glyph-name="ydieresis" unicode="&#xff;" horiz-adv-x="1062" 
d="M6 1059h256l277 -791h4l268 791h244l-408 -1106q-60 -168 -117 -246q-46 -68 -109.5 -97.5t-154.5 -29.5q-74 0 -160 12v197q4 0 43.5 -7t67.5 -7q110 0 145 96l46 133zM252 1454h233v-221h-233v221zM604 1454h234v-221h-234v221z" />
    <glyph glyph-name="Amacron" unicode="&#x100;" horiz-adv-x="1366" 
d="M547 1462h272l563 -1462h-274l-137 387h-584l-137 -387h-264zM684 1210h-6l-221 -628h446zM389 1808h590v-133h-590v133z" />
    <glyph glyph-name="amacron" unicode="&#x101;" 
d="M586 1087q192 0 308 -83t116 -218v-557q0 -42 12.5 -57.5t50.5 -15.5q33 0 49 4v-162q-100 -27 -147 -27q-157 0 -180 129q-61 -61 -163 -95t-204 -34q-160 0 -261 83.5t-101 226.5q0 140 71.5 211t202.5 98q83 17 266 39q105 12 145 40.5t40 90.5q0 69 -56 106t-164 37
q-106 0 -165.5 -44t-67.5 -124h-234q12 173 135.5 262.5t346.5 89.5zM299 301q0 -67 53.5 -106t147.5 -39q121 0 198.5 54t77.5 140v180q-11 -7 -19.5 -11.5t-20 -9t-18 -7.5t-22 -6t-23 -4.5t-29.5 -5t-33 -4.5t-42.5 -5t-48.5 -6q-114 -13 -167.5 -55t-53.5 -115z
M287 1411h590v-133h-590v133z" />
    <glyph glyph-name="Abreve" unicode="&#x102;" horiz-adv-x="1366" 
d="M547 1462h272l563 -1462h-274l-137 387h-584l-137 -387h-264zM684 1210h-6l-221 -628h446zM354 1894h119q14 -74 69 -114.5t150 -40.5q83 0 136.5 40t70.5 115h117q-15 -139 -102.5 -213.5t-237.5 -74.5q-144 0 -227 74.5t-95 213.5z" />
    <glyph glyph-name="abreve" unicode="&#x103;" 
d="M586 1087q192 0 308 -83t116 -218v-557q0 -42 12.5 -57.5t50.5 -15.5q33 0 49 4v-162q-100 -27 -147 -27q-157 0 -180 129q-61 -61 -163 -95t-204 -34q-160 0 -261 83.5t-101 226.5q0 140 71.5 211t202.5 98q83 17 266 39q105 12 145 40.5t40 90.5q0 69 -56 106t-164 37
q-106 0 -165.5 -44t-67.5 -124h-234q12 173 135.5 262.5t346.5 89.5zM299 301q0 -67 53.5 -106t147.5 -39q121 0 198.5 54t77.5 140v180q-11 -7 -19.5 -11.5t-20 -9t-18 -7.5t-22 -6t-23 -4.5t-29.5 -5t-33 -4.5t-42.5 -5t-48.5 -6q-114 -13 -167.5 -55t-53.5 -115z
M252 1497h119q30 -156 219 -156q79 0 134.5 39.5t72.5 116.5h116q-15 -139 -104 -214t-236 -75q-141 0 -225 75t-96 214z" />
    <glyph glyph-name="Aogonek" unicode="&#x104;" horiz-adv-x="1366" 
d="M547 1462h272l563 -1462h-163q-116 -94 -154.5 -146t-38.5 -116q0 -40 23 -66t59 -26q60 0 104 69l84 -18q-21 -75 -77.5 -114.5t-137.5 -39.5q-91 0 -149 48t-58 128q0 141 234 281l-137 387h-584l-137 -387h-264zM684 1210h-6l-221 -628h446z" />
    <glyph glyph-name="aogonek" unicode="&#x105;" 
d="M586 1087q192 0 308 -83t116 -218v-557q0 -42 12.5 -57.5t50.5 -15.5q33 0 49 4v-162q-85 -25 -149 -27q-73 -59 -114.5 -115t-41.5 -118q0 -38 23 -65t57 -27t57 15.5t50 53.5l83 -18q-22 -76 -77 -115t-138 -39q-90 0 -148 48t-58 137q0 133 213 260q-70 29 -84 112
q-61 -61 -163 -95t-204 -34q-160 0 -261 83.5t-101 226.5q0 47 9 86.5t24 69.5t40 54.5t52 42t65 31.5t73 22.5t83 16.5t88.5 13t95.5 11h3.5t3 0.5t3.5 0.5q106 12 145.5 40t39.5 91q0 69 -56 106t-164 37q-106 0 -165.5 -44t-67.5 -124h-234q12 172 136.5 262t345.5 90z
M299 301q0 -67 53.5 -106t147.5 -39q121 0 198.5 54t77.5 140v180q-11 -7 -19.5 -11.5t-20 -9t-18 -7.5t-22 -6t-23 -4.5t-29.5 -5t-33 -4.5t-42.5 -5t-48.5 -6q-114 -13 -167.5 -55t-53.5 -115z" />
    <glyph glyph-name="Cacute" unicode="&#x106;" horiz-adv-x="1478" 
d="M778 1497q256 0 426 -135t195 -365h-256q-76 291 -365 291q-206 0 -325 -154t-119 -403q0 -248 118.5 -402.5t325.5 -154.5q156 0 254.5 102.5t118.5 280.5h250q-21 -266 -188.5 -429t-434.5 -163q-307 0 -506 217q-194 218 -194 549q0 157 48 296t136 243.5t221.5 165.5
t294.5 61zM862 1896h277l-291 -292h-170z" />
    <glyph glyph-name="cacute" unicode="&#x107;" 
d="M594 1087q206 0 333 -100.5t144 -281.5h-233q-13 95 -76.5 146.5t-165.5 51.5q-138 0 -214.5 -98t-76.5 -287q0 -159 74 -260.5t207 -101.5q101 0 167.5 61.5t84.5 179.5h233q-34 -208 -158.5 -317t-326.5 -109q-233 0 -373.5 147.5t-140.5 399.5q0 258 138 413.5
t384 155.5zM676 1499h276l-290 -293h-170z" />
    <glyph glyph-name="Ccircumflex" unicode="&#x108;" horiz-adv-x="1478" 
d="M778 1497q256 0 426 -135t195 -365h-256q-76 291 -365 291q-206 0 -325 -154t-119 -403q0 -248 118.5 -402.5t325.5 -154.5q156 0 254.5 102.5t118.5 280.5h250q-21 -266 -188.5 -429t-434.5 -163q-307 0 -506 217q-194 218 -194 549q0 157 48 296t136 243.5t221.5 165.5
t294.5 61zM664 1896h227l221 -292h-190l-146 184l-143 -184h-189z" />
    <glyph glyph-name="ccircumflex" unicode="&#x109;" 
d="M594 1087q206 0 333 -100.5t144 -281.5h-233q-13 95 -76.5 146.5t-165.5 51.5q-138 0 -214.5 -98t-76.5 -287q0 -159 74 -260.5t207 -101.5q101 0 167.5 61.5t84.5 179.5h233q-34 -208 -158.5 -317t-326.5 -109q-233 0 -373.5 147.5t-140.5 399.5q0 258 138 413.5
t384 155.5zM487 1499h228l221 -293h-191l-145 185l-143 -185h-189z" />
    <glyph glyph-name="Cdotaccent" unicode="&#x10a;" horiz-adv-x="1478" 
d="M778 1497q256 0 426 -135t195 -365h-256q-76 291 -365 291q-206 0 -325 -154t-119 -403q0 -248 118.5 -402.5t325.5 -154.5q156 0 254.5 102.5t118.5 280.5h250q-21 -266 -188.5 -429t-434.5 -163q-307 0 -506 217q-194 218 -194 549q0 157 48 296t136 243.5t221.5 165.5
t294.5 61zM659 1851h234v-221h-234v221z" />
    <glyph glyph-name="cdotaccent" unicode="&#x10b;" 
d="M594 1087q206 0 333 -100.5t144 -281.5h-233q-13 95 -76.5 146.5t-165.5 51.5q-138 0 -214.5 -98t-76.5 -287q0 -159 74 -260.5t207 -101.5q101 0 167.5 61.5t84.5 179.5h233q-34 -208 -158.5 -317t-326.5 -109q-233 0 -373.5 147.5t-140.5 399.5q0 258 138 413.5
t384 155.5zM483 1454h234v-221h-234v221z" />
    <glyph glyph-name="Ccaron" unicode="&#x10c;" horiz-adv-x="1478" 
d="M778 1497q256 0 426 -135t195 -365h-256q-76 291 -365 291q-206 0 -325 -154t-119 -403q0 -248 118.5 -402.5t325.5 -154.5q156 0 254.5 102.5t118.5 280.5h250q-21 -266 -188.5 -429t-434.5 -163q-307 0 -506 217q-194 218 -194 549q0 157 48 296t136 243.5t221.5 165.5
t294.5 61zM442 1896h189l143 -182l146 182h190l-221 -292h-227z" />
    <glyph glyph-name="ccaron" unicode="&#x10d;" 
d="M594 1087q206 0 333 -100.5t144 -281.5h-233q-13 95 -76.5 146.5t-165.5 51.5q-138 0 -214.5 -98t-76.5 -287q0 -159 74 -260.5t207 -101.5q101 0 167.5 61.5t84.5 179.5h233q-34 -208 -158.5 -317t-326.5 -109q-233 0 -373.5 147.5t-140.5 399.5q0 258 138 413.5
t384 155.5zM266 1499h189l143 -182l145 182h191l-221 -293h-228z" />
    <glyph glyph-name="Dcaron" unicode="&#x10e;" horiz-adv-x="1478" 
d="M156 1462h616q292 0 463.5 -195t171.5 -536q0 -346 -171.5 -538.5t-467.5 -192.5h-612v1462zM412 209h262q247 0 362 126t115 396q0 94 -13 169t-45.5 142.5t-85.5 112.5t-136.5 71.5t-194.5 26.5h-264v-1044zM336 1896h188l144 -182l145 182h191l-222 -292h-227z" />
    <glyph glyph-name="dcaron" unicode="&#x10f;" horiz-adv-x="1251" 
d="M887 1462h233v-1462h-221v143h-4q-46 -86 -132 -129t-196 -43q-228 0 -361.5 152t-133.5 414q0 256 128 403t330 147q115 0 210.5 -44.5t142.5 -120.5h4v540zM305 518q0 -157 79.5 -259.5t213.5 -102.5q136 0 216.5 106t80.5 268q0 173 -78 273t-217 100
q-137 0 -216 -106.5t-79 -278.5zM1286 1462h256l-166 -293h-155z" />
    <glyph glyph-name="Dcroat" unicode="&#x110;" horiz-adv-x="1478" 
d="M156 1462h616q292 0 463.5 -195t171.5 -536q0 -348 -171.5 -539.5t-463.5 -191.5h-616v676h-150v160h150v626zM412 836h399v-160h-399v-467h264q238 0 356.5 121t118.5 401q0 128 -24 221t-78.5 162.5t-148 104t-226.5 34.5h-262v-417z" />
    <glyph glyph-name="dcroat" unicode="&#x111;" horiz-adv-x="1259" 
d="M887 1462h233v-135h164v-129h-164v-1198h-221v143h-4q-46 -86 -132 -129t-196 -43q-228 0 -361.5 152t-133.5 414q0 130 35 235.5t97 173.5t145.5 104.5t180.5 36.5q115 0 210.5 -44.5t142.5 -120.5h4v276h-346v129h346v135zM305 518q0 -157 79.5 -259.5t213.5 -102.5
q136 0 216.5 106t80.5 268q0 173 -78 273t-217 100q-137 0 -216 -106.5t-79 -278.5z" />
    <glyph glyph-name="Emacron" unicode="&#x112;" horiz-adv-x="1290" 
d="M156 1462h1052v-221h-796v-383h737v-209h-737v-428h811v-221h-1067v1462zM381 1808h590v-133h-590v133z" />
    <glyph glyph-name="emacron" unicode="&#x113;" 
d="M584 1087q146 0 262 -73.5t178.5 -196t62.5 -268.5q0 -26 -4 -80h-778q0 -136 75.5 -224.5t209.5 -88.5q196 0 258 176h221q-23 -111 -93 -193.5t-170 -125t-216 -42.5q-163 0 -281.5 72t-177.5 196.5t-59 286.5q0 153 61.5 280t179.5 204t271 77zM305 623h545
q-10 117 -81.5 198.5t-186.5 81.5q-120 0 -195.5 -80t-81.5 -200zM297 1411h590v-133h-590v133z" />
    <glyph glyph-name="Ebreve" unicode="&#x114;" horiz-adv-x="1290" 
d="M156 1462h1052v-221h-796v-383h737v-209h-737v-428h811v-221h-1067v1462zM346 1894h119q14 -74 69 -114.5t150 -40.5q83 0 136.5 40t70.5 115h117q-15 -139 -102.5 -213.5t-237.5 -74.5q-144 0 -227 74.5t-95 213.5z" />
    <glyph glyph-name="ebreve" unicode="&#x115;" 
d="M584 1087q146 0 262 -73.5t178.5 -196t62.5 -268.5q0 -26 -4 -80h-778q0 -136 75.5 -224.5t209.5 -88.5q196 0 258 176h221q-23 -111 -93 -193.5t-170 -125t-216 -42.5q-163 0 -281.5 72t-177.5 196.5t-59 286.5q0 153 61.5 280t179.5 204t271 77zM305 623h545
q-10 117 -81.5 198.5t-186.5 81.5q-120 0 -195.5 -80t-81.5 -200zM262 1497h119q30 -156 219 -156q79 0 134.5 39.5t72.5 116.5h117q-15 -139 -104 -214t-236 -75q-142 0 -226 75t-96 214z" />
    <glyph glyph-name="Edotaccent" unicode="&#x116;" horiz-adv-x="1290" 
d="M156 1462h1052v-221h-796v-383h737v-209h-737v-428h811v-221h-1067v1462zM561 1851h234v-221h-234v221z" />
    <glyph glyph-name="edotaccent" unicode="&#x117;" 
d="M584 1087q146 0 262 -73.5t178.5 -196t62.5 -268.5q0 -26 -4 -80h-778q0 -136 75.5 -224.5t209.5 -88.5q196 0 258 176h221q-23 -111 -93 -193.5t-170 -125t-216 -42.5q-163 0 -281.5 72t-177.5 196.5t-59 286.5q0 153 61.5 280t179.5 204t271 77zM305 623h545
q-10 117 -81.5 198.5t-186.5 81.5q-120 0 -195.5 -80t-81.5 -200zM475 1454h234v-221h-234v221z" />
    <glyph glyph-name="Eogonek" unicode="&#x118;" horiz-adv-x="1290" 
d="M156 1462h1052v-221h-796v-383h737v-209h-737v-428h811v-221h-78q-104 -81 -148.5 -139.5t-44.5 -124.5q0 -39 23 -64.5t59 -25.5q61 0 105 69l84 -18q-20 -74 -77 -114t-138 -40q-89 0 -148 47.5t-59 128.5q0 147 233 281h-878v1462z" />
    <glyph glyph-name="eogonek" unicode="&#x119;" 
d="M584 1087q146 0 262.5 -74t178.5 -196t62 -268q0 -26 -4 -80h-778q0 -139 75.5 -226t209.5 -87q196 0 258 176h221q-33 -148 -133.5 -237.5t-251.5 -114.5q-39 -32 -60.5 -51.5t-50 -52t-42 -67t-13.5 -73.5q0 -38 22.5 -64t59.5 -26q61 0 105 69l83 -18
q-21 -75 -78.5 -114.5t-136.5 -39.5q-85 0 -145.5 46.5t-60.5 129.5q0 132 188 254q-156 9 -266 83t-163.5 194t-53.5 276q0 153 60.5 279.5t178.5 204t273 77.5zM305 623h545q-10 118 -80 199t-188 81q-120 0 -195.5 -80.5t-81.5 -199.5z" />
    <glyph glyph-name="Ecaron" unicode="&#x11a;" horiz-adv-x="1290" 
d="M156 1462h1052v-221h-796v-383h737v-209h-737v-428h811v-221h-1067v1462zM344 1896h188l144 -182l145 182h191l-221 -292h-228z" />
    <glyph glyph-name="ecaron" unicode="&#x11b;" 
d="M584 1087q146 0 262 -73.5t178.5 -196t62.5 -268.5q0 -26 -4 -80h-778q0 -136 75.5 -224.5t209.5 -88.5q196 0 258 176h221q-23 -111 -93 -193.5t-170 -125t-216 -42.5q-163 0 -281.5 72t-177.5 196.5t-59 286.5q0 153 61.5 280t179.5 204t271 77zM305 623h545
q-10 117 -81.5 198.5t-186.5 81.5q-120 0 -195.5 -80t-81.5 -200zM256 1499h188l144 -182l145 182h191l-222 -293h-227z" />
    <glyph glyph-name="Gcircumflex" unicode="&#x11c;" horiz-adv-x="1554" 
d="M788 1497q119 0 224.5 -31.5t190.5 -92.5t141 -157.5t71 -218.5h-250q-21 139 -129 215t-248 76q-90 0 -165 -31.5t-126 -85.5t-86 -126t-51 -151t-16 -163q0 -111 26 -208.5t79 -177t142.5 -125.5t205.5 -46q189 0 292.5 106t108.5 295h-389v195h623v-770h-164l-39 172
q-95 -109 -197.5 -158t-243.5 -49q-159 0 -292.5 61t-221.5 166t-137 244t-49 295t49 295t137 244t221.5 166t292.5 61zM680 1896h227l221 -292h-190l-145 184l-144 -184h-188z" />
    <glyph glyph-name="gcircumflex" unicode="&#x11d;" horiz-adv-x="1214" 
d="M551 1087q109 0 190.5 -44.5t122.5 -129.5h4v146h234v-1014q0 -224 -131 -344.5t-387 -120.5q-203 0 -332.5 87t-142.5 243h233q15 -79 74.5 -117.5t179.5 -38.5q135 0 203.5 67.5t68.5 196.5v168h-4q-53 -89 -135 -137.5t-182 -48.5q-224 0 -349.5 147t-125.5 408
q0 230 134 381t345 151zM305 535q0 -154 76 -252.5t203 -98.5q131 0 207.5 100.5t76.5 268.5q0 160 -76 255t-208 95q-130 0 -204.5 -100.5t-74.5 -267.5zM502 1499h227l221 -293h-190l-146 185l-143 -185h-188z" />
    <glyph glyph-name="Gbreve" unicode="&#x11e;" horiz-adv-x="1554" 
d="M788 1497q119 0 224.5 -31.5t190.5 -92.5t141 -157.5t71 -218.5h-250q-21 139 -129 215t-248 76q-90 0 -165 -31.5t-126 -85.5t-86 -126t-51 -151t-16 -163q0 -111 26 -208.5t79 -177t142.5 -125.5t205.5 -46q189 0 292.5 106t108.5 295h-389v195h623v-770h-164l-39 172
q-95 -109 -197.5 -158t-243.5 -49q-159 0 -292.5 61t-221.5 166t-137 244t-49 295t49 295t137 244t221.5 166t292.5 61zM463 1894h119q14 -74 69 -114.5t150 -40.5q83 0 136.5 40t70.5 115h116q-15 -139 -102.5 -213.5t-237.5 -74.5q-144 0 -226.5 74.5t-94.5 213.5z" />
    <glyph glyph-name="gbreve" unicode="&#x11f;" horiz-adv-x="1214" 
d="M551 1087q109 0 190.5 -44.5t122.5 -129.5h4v146h234v-1014q0 -224 -131 -344.5t-387 -120.5q-203 0 -332.5 87t-142.5 243h233q15 -79 74.5 -117.5t179.5 -38.5q135 0 203.5 67.5t68.5 196.5v168h-4q-53 -89 -135 -137.5t-182 -48.5q-224 0 -349.5 147t-125.5 408
q0 230 134 381t345 151zM305 535q0 -154 76 -252.5t203 -98.5q131 0 207.5 100.5t76.5 268.5q0 160 -76 255t-208 95q-130 0 -204.5 -100.5t-74.5 -267.5zM283 1497h118q15 -77 71.5 -116.5t148.5 -39.5q79 0 134 39.5t72 116.5h117q-15 -139 -104 -214t-236 -75
q-141 0 -225 75t-96 214z" />
    <glyph glyph-name="Gdotaccent" unicode="&#x120;" horiz-adv-x="1554" 
d="M788 1497q119 0 224.5 -31.5t190.5 -92.5t141 -157.5t71 -218.5h-250q-21 139 -129 215t-248 76q-90 0 -165 -31.5t-126 -85.5t-86 -126t-51 -151t-16 -163q0 -111 26 -208.5t79 -177t142.5 -125.5t205.5 -46q189 0 292.5 106t108.5 295h-389v195h623v-770h-164l-39 172
q-95 -109 -197.5 -158t-243.5 -49q-159 0 -292.5 61t-221.5 166t-137 244t-49 295t49 295t137 244t221.5 166t292.5 61zM674 1851h233v-221h-233v221z" />
    <glyph glyph-name="gdotaccent" unicode="&#x121;" horiz-adv-x="1214" 
d="M551 1087q109 0 190.5 -44.5t122.5 -129.5h4v146h234v-1014q0 -224 -131 -344.5t-387 -120.5q-203 0 -332.5 87t-142.5 243h233q15 -79 74.5 -117.5t179.5 -38.5q135 0 203.5 67.5t68.5 196.5v168h-4q-53 -89 -135 -137.5t-182 -48.5q-224 0 -349.5 147t-125.5 408
q0 230 134 381t345 151zM305 535q0 -154 76 -252.5t203 -98.5q131 0 207.5 100.5t76.5 268.5q0 160 -76 255t-208 95q-130 0 -204.5 -100.5t-74.5 -267.5zM496 1454h233v-221h-233v221z" />
    <glyph glyph-name="Gcommaaccent" unicode="&#x122;" horiz-adv-x="1554" 
d="M788 1497q119 0 224.5 -31.5t190.5 -92.5t141 -157.5t71 -218.5h-250q-21 139 -129 215t-248 76q-90 0 -165 -31.5t-126 -85.5t-86 -126t-51 -151t-16 -163q0 -111 26 -208.5t79 -177t142.5 -125.5t205.5 -46q189 0 292.5 106t108.5 295h-389v195h623v-770h-164l-39 172
q-95 -109 -197.5 -158t-243.5 -49q-159 0 -292.5 61t-221.5 166t-137 244t-49 295t49 295t137 244t221.5 166t292.5 61zM647 -102h268v-185q0 -162 -237 -170v78q44 6 65 22.5t27 51.5h-123v203z" />
    <glyph glyph-name="gcommaaccent" unicode="&#x123;" horiz-adv-x="1214" 
d="M551 1087q109 0 190.5 -44.5t122.5 -129.5h4v146h234v-1014q0 -224 -131 -344.5t-387 -120.5q-203 0 -332.5 87t-142.5 243h233q15 -79 74.5 -117.5t179.5 -38.5q135 0 203.5 67.5t68.5 196.5v168h-4q-53 -89 -135 -137.5t-182 -48.5q-224 0 -349.5 147t-125.5 408
q0 230 134 381t345 151zM305 535q0 -154 76 -252.5t203 -98.5q131 0 207.5 100.5t76.5 268.5q0 160 -76 255t-208 95q-130 0 -204.5 -100.5t-74.5 -267.5zM717 1614v-78q-43 -6 -64.5 -23t-27.5 -51h123v-202h-269v188q0 158 238 166z" />
    <glyph glyph-name="Hcircumflex" unicode="&#x124;" horiz-adv-x="1478" 
d="M150 1462h256v-581h665v581h256v-1462h-256v659h-665v-659h-256v1462zM627 1896h227l221 -292h-190l-146 184l-143 -184h-188z" />
    <glyph glyph-name="hcircumflex" unicode="&#x125;" horiz-adv-x="1175" 
d="M123 1462h233v-542h4q51 79 135.5 123t184.5 44q179 0 276 -95t97 -257v-735h-234v655q0 54 -9.5 96t-31.5 78t-64 55t-102 19q-116 0 -186 -81t-70 -191v-631h-233v1462zM455 1896h227l221 -292h-190l-146 184l-143 -184h-188z" />
    <glyph glyph-name="Hbar" unicode="&#x126;" horiz-adv-x="1478" 
d="M150 1462h256v-266h665v266h256v-1462h-256v588h-665v-588h-256v1462zM406 801h665v254h-665v-254z" />
    <glyph glyph-name="hbar" unicode="&#x127;" horiz-adv-x="1183" 
d="M131 1462h234v-135h346v-129h-346v-278h4q47 78 131.5 122.5t185.5 44.5q180 0 277.5 -95.5t97.5 -256.5v-735h-234v668q0 235 -206 235q-112 0 -184 -79.5t-72 -192.5v-631h-234v1198h-164v129h164v135z" />
    <glyph glyph-name="Itilde" unicode="&#x128;" horiz-adv-x="569" 
d="M156 1462h256v-1462h-256v1462zM532 1872h115q-13 -113 -72.5 -174.5t-152.5 -61.5q-61 0 -150 39q-84 37 -143 37q-73 0 -88 -84h-117q20 102 76.5 167t138.5 65q67 0 154 -37q11 -4 33.5 -13.5t34.5 -14t31.5 -9t37.5 -4.5q78 0 102 90z" />
    <glyph glyph-name="itilde" unicode="&#x129;" horiz-adv-x="493" 
d="M129 1059h233v-1059h-233v1059zM496 1475h114q-15 -112 -74 -174t-151 -62q-65 0 -149 37q-89 39 -144 39q-73 0 -88 -84h-117q20 102 76.5 166.5t138.5 64.5q67 0 154 -37q11 -4 33.5 -13.5t34.5 -14t31.5 -9t37.5 -4.5q79 0 103 91z" />
    <glyph glyph-name="Imacron" unicode="&#x12a;" horiz-adv-x="569" 
d="M156 1462h256v-1462h-256v1462zM-12 1808h590v-133h-590v133z" />
    <glyph glyph-name="imacron" unicode="&#x12b;" horiz-adv-x="493" 
d="M129 1059h233v-1059h-233v1059zM-49 1411h590v-133h-590v133z" />
    <glyph glyph-name="Iogonek" unicode="&#x12e;" horiz-adv-x="569" 
d="M156 1462h256v-1462q-85 -72 -128.5 -134t-43.5 -130q0 -40 20 -65t51 -25q30 0 52 15.5t45 53.5l75 -18q-20 -74 -70.5 -114t-123.5 -40q-82 0 -134.5 49t-52.5 125q0 77 52.5 145.5t158.5 137.5h-157v1462z" />
    <glyph glyph-name="iogonek" unicode="&#x12f;" horiz-adv-x="493" 
d="M129 1462h233v-221h-233v221zM129 1059h233v-1059q-91 -78 -131.5 -138t-40.5 -126q0 -38 20.5 -64t51.5 -26q30 0 52 16t44 53l76 -18q-44 -154 -194 -154q-83 0 -135 47t-52 127q0 77 52.5 145.5t158.5 137.5h-135v1059z" />
    <glyph glyph-name="Idotaccent" unicode="&#x130;" horiz-adv-x="569" 
d="M156 1462h256v-1462h-256v1462zM168 1851h233v-221h-233v221z" />
    <glyph glyph-name="dotlessi" unicode="&#x131;" horiz-adv-x="493" 
d="M129 1059h233v-1059h-233v1059z" />
    <glyph glyph-name="Jcircumflex" unicode="&#x134;" horiz-adv-x="1099" 
d="M688 1462h256v-1003q0 -262 -118 -378t-361 -116q-211 0 -324.5 119t-113.5 356v72h256v-92q0 -131 50 -188.5t150 -57.5q110 0 157.5 62t47.5 210v1016zM692 1896h228l221 -292h-191l-145 184l-143 -184h-189z" />
    <glyph glyph-name="jcircumflex" unicode="&#x135;" horiz-adv-x="493" 
d="M129 1059h233v-1157q0 -163 -75.5 -242.5t-229.5 -79.5q-65 0 -102 8v185q49 -9 80 -9q52 0 73 29.5t21 114.5v1151zM131 1499h227l222 -293h-191l-145 185l-144 -185h-188z" />
    <glyph glyph-name="Kcommaaccent" unicode="&#x136;" horiz-adv-x="1402" 
d="M156 1462h256v-665l651 665h315l-583 -583l624 -879h-319l-479 698l-209 -206v-492h-256v1462zM584 -102h268v-185q0 -162 -238 -170v78q44 6 65.5 22.5t27.5 51.5h-123v203z" />
    <glyph glyph-name="kcommaaccent" unicode="&#x137;" horiz-adv-x="1099" 
d="M129 1462h233v-831l422 428h287l-405 -389l444 -670h-285l-323 514l-140 -135v-379h-233v1462zM438 -102h269v-185q0 -162 -238 -170v78q44 6 65 22.5t27 51.5h-123v203z" />
    <glyph glyph-name="Lacute" unicode="&#x139;" horiz-adv-x="1175" 
d="M156 1462h256v-1241h743v-221h-999v1462zM381 1896h276l-290 -292h-170z" />
    <glyph glyph-name="lacute" unicode="&#x13a;" horiz-adv-x="493" 
d="M129 1462h233v-1462h-233v1462zM315 1896h277l-291 -292h-170z" />
    <glyph glyph-name="Lcommaaccent" unicode="&#x13b;" horiz-adv-x="1175" 
d="M156 1462h256v-1241h743v-221h-999v1462zM524 -102h269v-185q0 -162 -238 -170v78q44 6 65 22.5t27 51.5h-123v203z" />
    <glyph glyph-name="lcommaaccent" unicode="&#x13c;" horiz-adv-x="493" 
d="M129 1462h233v-1462h-233v1462zM111 -102h268v-185q0 -162 -238 -170v78q44 6 65 22.5t27 51.5h-122v203z" />
    <glyph glyph-name="Lcaron" unicode="&#x13d;" horiz-adv-x="1175" 
d="M156 1462h256v-1241h743v-221h-999v1462zM651 1462h256l-166 -293h-155z" />
    <glyph glyph-name="lcaron" unicode="&#x13e;" horiz-adv-x="493" 
d="M129 1462h233v-1462h-233v1462zM528 1462h256l-166 -293h-155z" />
    <glyph glyph-name="Ldot" unicode="&#x13f;" horiz-adv-x="1175" 
d="M156 1462h256v-1241h743v-221h-999v1462zM662 909h233v-221h-233v221z" />
    <glyph glyph-name="ldot" unicode="&#x140;" horiz-adv-x="755" 
d="M129 1462h233v-1462h-233v1462zM498 909h233v-221h-233v221z" />
    <glyph glyph-name="Lslash" unicode="&#x141;" horiz-adv-x="1175" 
d="M156 1462h256v-626l409 290v-190l-409 -291v-424h743v-221h-999v465l-156 -111v185l154 108h2v815z" />
    <glyph glyph-name="lslash" unicode="&#x142;" horiz-adv-x="493" 
d="M129 1462h233v-481l140 111v-148l-140 -110v-834h-233v653l-139 -108v145l139 109v663z" />
    <glyph glyph-name="Nacute" unicode="&#x143;" horiz-adv-x="1478" 
d="M145 1462h271l667 -1077h4v1077h244v-1462h-270l-666 1075h-6v-1075h-244v1462zM821 1896h277l-291 -292h-170z" />
    <glyph glyph-name="nacute" unicode="&#x144;" horiz-adv-x="1175" 
d="M680 1087q180 0 276.5 -94.5t96.5 -257.5v-735h-234v662q0 241 -207 241q-117 0 -186.5 -81t-69.5 -191v-631h-233v1059h221v-156l4 -4q56 91 143 139.5t189 48.5zM666 1499h276l-291 -293h-170z" />
    <glyph glyph-name="Ncommaaccent" unicode="&#x145;" horiz-adv-x="1478" 
d="M145 1462h271l667 -1077h4v1077h244v-1462h-270l-666 1075h-6v-1075h-244v1462zM602 -102h268v-185q0 -162 -237 -170v78q44 6 65 22.5t27 51.5h-123v203z" />
    <glyph glyph-name="ncommaaccent" unicode="&#x146;" horiz-adv-x="1175" 
d="M680 1087q180 0 276.5 -94.5t96.5 -257.5v-735h-234v662q0 241 -207 241q-117 0 -186.5 -81t-69.5 -191v-631h-233v1059h221v-156l4 -4q56 91 143 139.5t189 48.5zM451 -102h268v-185q0 -162 -238 -170v78q44 6 65 22.5t27 51.5h-122v203z" />
    <glyph glyph-name="Ncaron" unicode="&#x147;" horiz-adv-x="1478" 
d="M145 1462h271l667 -1077h4v1077h244v-1462h-270l-666 1075h-6v-1075h-244v1462zM403 1896h189l143 -182l146 182h190l-221 -292h-227z" />
    <glyph glyph-name="ncaron" unicode="&#x148;" horiz-adv-x="1175" 
d="M680 1087q180 0 276.5 -94.5t96.5 -257.5v-735h-234v662q0 241 -207 241q-117 0 -186.5 -81t-69.5 -191v-631h-233v1059h221v-156l4 -4q56 91 143 139.5t189 48.5zM258 1499h188l144 -182l145 182h191l-221 -293h-228z" />
    <glyph glyph-name="Omacron" unicode="&#x14c;" horiz-adv-x="1556" 
d="M778 1497q159 0 292.5 -61t222 -166t137.5 -244t49 -295q0 -211 -83.5 -384t-245 -277.5t-372.5 -104.5q-160 0 -293.5 61t-221.5 165.5t-136.5 243.5t-48.5 296q0 156 49 295t137 244t221.5 166t292.5 61zM334 731q0 -85 16 -164t50.5 -151t85.5 -125.5t126 -85
t166 -31.5q92 0 167 31.5t126 84.5t86 124.5t50.5 151t15.5 165.5t-16 165.5t-51 151t-86 124.5t-126.5 84.5t-167.5 31.5t-167 -31.5t-125 -85t-84.5 -125.5t-50 -151t-15.5 -164zM485 1808h590v-133h-590v133z" />
    <glyph glyph-name="omacron" unicode="&#x14d;" horiz-adv-x="1214" 
d="M608 1087q245 0 390 -155t145 -402q0 -251 -144.5 -405t-390.5 -154t-390 153.5t-144 405.5q0 247 144.5 402t389.5 155zM307 530q0 -70 18.5 -135.5t54 -119.5t94.5 -86.5t134 -32.5t134 32t94.5 86t54 119.5t18.5 136.5q0 73 -18 138t-53.5 118.5t-95.5 85t-136 31.5
q-97 0 -166.5 -55.5t-101 -138t-31.5 -179.5zM317 1411h590v-133h-590v133z" />
    <glyph glyph-name="Obreve" unicode="&#x14e;" horiz-adv-x="1556" 
d="M778 1497q159 0 292.5 -61t222 -166t137.5 -244t49 -295q0 -211 -83.5 -384t-245 -277.5t-372.5 -104.5q-160 0 -293.5 61t-221.5 165.5t-136.5 243.5t-48.5 296q0 156 49 295t137 244t221.5 166t292.5 61zM334 731q0 -85 16 -164t50.5 -151t85.5 -125.5t126 -85
t166 -31.5q92 0 167 31.5t126 84.5t86 124.5t50.5 151t15.5 165.5t-16 165.5t-51 151t-86 124.5t-126.5 84.5t-167.5 31.5t-167 -31.5t-125 -85t-84.5 -125.5t-50 -151t-15.5 -164zM451 1894h118q14 -74 69 -114.5t150 -40.5q83 0 136.5 40t70.5 115h117
q-15 -139 -102.5 -213.5t-237.5 -74.5q-144 0 -226.5 74.5t-94.5 213.5z" />
    <glyph glyph-name="obreve" unicode="&#x14f;" horiz-adv-x="1214" 
d="M608 1087q245 0 390 -155t145 -402q0 -251 -144.5 -405t-390.5 -154t-390 153.5t-144 405.5q0 247 144.5 402t389.5 155zM307 530q0 -70 18.5 -135.5t54 -119.5t94.5 -86.5t134 -32.5t134 32t94.5 86t54 119.5t18.5 136.5q0 73 -18 138t-53.5 118.5t-95.5 85t-136 31.5
q-97 0 -166.5 -55.5t-101 -138t-31.5 -179.5zM283 1497h118q15 -77 71.5 -116.5t148.5 -39.5q79 0 134 39.5t72 116.5h117q-15 -139 -104 -214t-236 -75q-141 0 -225 75t-96 214z" />
    <glyph glyph-name="Ohungarumlaut" unicode="&#x150;" horiz-adv-x="1556" 
d="M778 1497q159 0 292.5 -61t222 -166t137.5 -244t49 -295q0 -211 -83.5 -384t-245 -277.5t-372.5 -104.5q-160 0 -293.5 61t-221.5 165.5t-136.5 243.5t-48.5 296q0 156 49 295t137 244t221.5 166t292.5 61zM334 731q0 -85 16 -164t50.5 -151t85.5 -125.5t126 -85
t166 -31.5q92 0 167 31.5t126 84.5t86 124.5t50.5 151t15.5 165.5t-16 165.5t-51 151t-86 124.5t-126.5 84.5t-167.5 31.5t-167 -31.5t-125 -85t-84.5 -125.5t-50 -151t-15.5 -164zM659 1896h279l-295 -292h-168zM1067 1896h279l-295 -292h-168z" />
    <glyph glyph-name="ohungarumlaut" unicode="&#x151;" horiz-adv-x="1214" 
d="M608 1087q245 0 390 -155t145 -402q0 -251 -144.5 -405t-390.5 -154t-390 153.5t-144 405.5q0 247 144.5 402t389.5 155zM307 530q0 -70 18.5 -135.5t54 -119.5t94.5 -86.5t134 -32.5t134 32t94.5 86t54 119.5t18.5 136.5q0 73 -18 138t-53.5 118.5t-95.5 85t-136 31.5
q-97 0 -166.5 -55.5t-101 -138t-31.5 -179.5zM492 1499h278l-295 -293h-168zM899 1499h279l-295 -293h-168z" />
    <glyph glyph-name="OE" unicode="&#x152;" horiz-adv-x="2238" 
d="M772 1497q124 0 212.5 -36.5t156.5 -114.5v116h999v-221h-766v-383h703v-209h-703v-428h780v-221h-1013v131q-141 -166 -385 -166q-195 0 -348.5 96.5t-238.5 270t-85 393.5q0 122 29 236t87 211.5t139.5 170t192.5 113.5t240 41zM340 729q0 -159 52 -284t153 -198
t235 -73q57 0 114.5 16.5t109 47.5t86.5 85t40 121v555q0 125 -96 207t-256 82q-132 0 -232.5 -73.5t-153 -199.5t-52.5 -286z" />
    <glyph glyph-name="oe" unicode="&#x153;" horiz-adv-x="1857" 
d="M578 1087q271 0 370 -178q54 85 151 131.5t222 46.5q237 0 362 -159.5t125 -458.5h-774q0 -142 74.5 -227.5t202.5 -85.5q94 0 163 47t89 133h233q-43 -176 -168.5 -270.5t-312.5 -94.5q-279 0 -379 195q-57 -101 -148 -148t-229 -47q-224 0 -355.5 155t-131.5 406
q0 114 34 214t97 176t160 120.5t215 44.5zM305 537q0 -181 68.5 -281t201.5 -100t202 100t69 281q0 158 -70.5 262t-202.5 104q-125 0 -196.5 -103.5t-71.5 -262.5zM1034 623h541q-18 280 -277 280q-105 0 -179.5 -75t-84.5 -205z" />
    <glyph glyph-name="Racute" unicode="&#x154;" horiz-adv-x="1441" 
d="M156 1462h708q223 0 348 -102t125 -293q0 -139 -61.5 -233.5t-179.5 -135.5v-4q105 -13 161 -95.5t56 -217.5q0 -288 80 -381h-275q-39 53 -39 217q0 237 -71 311t-211 74h-385v-602h-256v1462zM412 797h426q118 0 180.5 58t62.5 175q0 115 -58.5 169t-186.5 54h-424
v-456zM784 1896h277l-291 -292h-170z" />
    <glyph glyph-name="racute" unicode="&#x155;" horiz-adv-x="720" 
d="M655 1087q53 0 88 -6v-225q-58 10 -100 10q-129 0 -208 -100t-79 -254v-512h-233v1059h219v-205h4q24 97 119.5 165t189.5 68zM506 1499h276l-290 -293h-170z" />
    <glyph glyph-name="Rcommaaccent" unicode="&#x156;" horiz-adv-x="1441" 
d="M156 1462h708q223 0 348 -102t125 -293q0 -139 -61.5 -233.5t-179.5 -135.5v-4q105 -13 161 -95.5t56 -217.5q0 -288 80 -381h-275q-39 53 -39 217q0 237 -71 311t-211 74h-385v-602h-256v1462zM412 797h426q118 0 180.5 58t62.5 175q0 115 -58.5 169t-186.5 54h-424
v-456zM596 -102h268v-185q0 -162 -237 -170v78q44 6 65 22.5t27 51.5h-123v203z" />
    <glyph glyph-name="rcommaaccent" unicode="&#x157;" horiz-adv-x="720" 
d="M655 1087q53 0 88 -6v-225q-58 10 -100 10q-129 0 -208 -100t-79 -254v-512h-233v1059h219v-205h4q24 97 119.5 165t189.5 68zM104 -102h269v-185q0 -162 -238 -170v78q44 6 65 22.5t27 51.5h-123v203z" />
    <glyph glyph-name="Rcaron" unicode="&#x158;" horiz-adv-x="1441" 
d="M156 1462h708q223 0 348 -102t125 -293q0 -139 -61.5 -233.5t-179.5 -135.5v-4q105 -13 161 -95.5t56 -217.5q0 -288 80 -381h-275q-39 53 -39 217q0 237 -71 311t-211 74h-385v-602h-256v1462zM412 797h426q118 0 180.5 58t62.5 175q0 115 -58.5 169t-186.5 54h-424
v-456zM365 1896h188l143 -182l146 182h190l-221 -292h-227z" />
    <glyph glyph-name="rcaron" unicode="&#x159;" horiz-adv-x="720" 
d="M655 1087q53 0 88 -6v-225q-58 10 -100 10q-129 0 -208 -100t-79 -254v-512h-233v1059h219v-205h4q24 97 119.5 165t189.5 68zM98 1499h189l143 -182l145 182h191l-221 -293h-228z" />
    <glyph glyph-name="Sacute" unicode="&#x15a;" horiz-adv-x="1327" 
d="M657 1497q160 0 286 -54.5t200.5 -161.5t75.5 -251h-256v2q-24 256 -316 256q-119 0 -193.5 -50t-74.5 -140q0 -144 186 -193l391 -102q51 -13 101 -42t97 -74t76.5 -113.5t29.5 -149.5q0 -214 -160 -336.5t-422 -122.5q-279 0 -442.5 136.5t-167.5 385.5h256
q1 -153 100 -233t270 -80q145 0 227.5 61t82.5 160q0 68 -31.5 114.5t-89.5 65.5q-103 34 -418 115q-342 84 -342 377q0 107 45.5 191.5t122 135.5t170 77t196.5 26zM762 1896h276l-290 -292h-170z" />
    <glyph glyph-name="sacute" unicode="&#x15b;" horiz-adv-x="1062" 
d="M530 1087q191 0 308.5 -84.5t134.5 -240.5h-244q-26 141 -215 141q-88 0 -140 -28t-52 -80q0 -56 58.5 -90.5t209.5 -63.5q121 -22 202.5 -52.5t129 -71.5t67 -89.5t19.5 -112.5q0 -161 -132 -252.5t-341 -91.5q-214 0 -339.5 95t-129.5 274h233q21 -184 240 -184
q111 0 173 33t62 100q0 30 -12.5 52.5t-47.5 45.5t-104.5 43t-177.5 39q-344 61 -344 315q0 144 124 223.5t318 79.5zM616 1499h277l-291 -293h-170z" />
    <glyph glyph-name="Scircumflex" unicode="&#x15c;" horiz-adv-x="1327" 
d="M657 1497q160 0 286 -54.5t200.5 -161.5t75.5 -251h-256v2q-24 256 -316 256q-119 0 -193.5 -50t-74.5 -140q0 -144 186 -193l391 -102q51 -13 101 -42t97 -74t76.5 -113.5t29.5 -149.5q0 -214 -160 -336.5t-422 -122.5q-279 0 -442.5 136.5t-167.5 385.5h256
q1 -153 100 -233t270 -80q145 0 227.5 61t82.5 160q0 68 -31.5 114.5t-89.5 65.5q-103 34 -418 115q-342 84 -342 377q0 107 45.5 191.5t122 135.5t170 77t196.5 26zM563 1896h228l221 -292h-191l-145 184l-144 -184h-188z" />
    <glyph glyph-name="scircumflex" unicode="&#x15d;" horiz-adv-x="1062" 
d="M530 1087q191 0 308.5 -84.5t134.5 -240.5h-244q-26 141 -215 141q-88 0 -140 -28t-52 -80q0 -56 58.5 -90.5t209.5 -63.5q121 -22 202.5 -52.5t129 -71.5t67 -89.5t19.5 -112.5q0 -161 -132 -252.5t-341 -91.5q-214 0 -339.5 95t-129.5 274h233q21 -184 240 -184
q111 0 173 33t62 100q0 30 -12.5 52.5t-47.5 45.5t-104.5 43t-177.5 39q-344 61 -344 315q0 144 124 223.5t318 79.5zM428 1499h227l222 -293h-191l-145 185l-144 -185h-188z" />
    <glyph glyph-name="Scedilla" unicode="&#x15e;" horiz-adv-x="1327" 
d="M657 1497q159 0 284.5 -54.5t200 -161.5t77.5 -251h-256v2q-24 256 -316 256q-119 0 -193.5 -50t-74.5 -140q0 -144 186 -193q90 -23 161.5 -41.5t95 -24t50.5 -13t44.5 -12.5t60.5 -19q130 -41 206.5 -142t76.5 -229q0 -203 -149 -327.5t-421 -131.5l-65 -86l2 -2
q39 8 65 8q72 0 124 -42t52 -111q0 -89 -70 -139t-177 -50q-131 0 -211 47l36 82q77 -32 140 -32q119 0 119 84q0 33 -27.5 55t-67.5 22q-47 0 -80 -20l-45 39l111 149q-249 23 -386.5 156t-141.5 362h256q1 -153 100 -233t270 -80q145 0 227.5 61t82.5 160q0 140 -134 187
q-72 25 -133 41t-140.5 34.5t-152.5 38.5q-155 42 -238 135t-83 236q0 106 46 190.5t123 135.5t170.5 77.5t194.5 26.5z" />
    <glyph glyph-name="scedilla" unicode="&#x15f;" horiz-adv-x="1062" 
d="M530 1087q194 0 308.5 -83.5t134.5 -241.5h-244q-26 141 -215 141q-88 0 -140 -28t-52 -80q0 -60 57 -92.5t211 -61.5q161 -29 253.5 -74.5t128.5 -104.5t36 -147q0 -148 -116.5 -239t-320.5 -103l-71 -94l2 -2q39 8 65 8q72 0 124 -42t52 -111q0 -89 -70 -139t-177 -50
q-131 0 -211 47l37 82q78 -32 139 -32q119 0 119 84q0 33 -27 55t-68 22q-46 0 -79 -20l-46 39l115 153h-2q-190 15 -296.5 109t-110.5 258h233q21 -184 240 -184q111 0 173 33t62 100q0 42 -21.5 70.5t-82.5 53.5t-172 46q-160 32 -224 58q-162 67 -183 218q-3 23 -3 49
q0 143 123 223t319 80z" />
    <glyph glyph-name="Scaron" unicode="&#x160;" horiz-adv-x="1327" 
d="M657 1497q160 0 286 -54.5t200.5 -161.5t75.5 -251h-256v2q-24 256 -316 256q-119 0 -193.5 -50t-74.5 -140q0 -144 186 -193l391 -102q51 -13 101 -42t97 -74t76.5 -113.5t29.5 -149.5q0 -214 -160 -336.5t-422 -122.5q-279 0 -442.5 136.5t-167.5 385.5h256
q1 -153 100 -233t270 -80q145 0 227.5 61t82.5 160q0 68 -31.5 114.5t-89.5 65.5q-103 34 -418 115q-342 84 -342 377q0 107 45.5 191.5t122 135.5t170 77t196.5 26zM342 1896h188l144 -182l145 182h191l-222 -292h-227z" />
    <glyph glyph-name="scaron" unicode="&#x161;" horiz-adv-x="1062" 
d="M530 1087q191 0 308.5 -84.5t134.5 -240.5h-244q-26 141 -215 141q-88 0 -140 -28t-52 -80q0 -56 58.5 -90.5t209.5 -63.5q121 -22 202.5 -52.5t129 -71.5t67 -89.5t19.5 -112.5q0 -161 -132 -252.5t-341 -91.5q-214 0 -339.5 95t-129.5 274h233q21 -184 240 -184
q111 0 173 33t62 100q0 30 -12.5 52.5t-47.5 45.5t-104.5 43t-177.5 39q-344 61 -344 315q0 144 124 223.5t318 79.5zM209 1499h188l144 -182l145 182h191l-222 -293h-227z" />
    <glyph glyph-name="Tcommaaccent" unicode="&#x162;" horiz-adv-x="1214" 
d="M16 1462h1184v-221h-465v-1241h-256v1241h-463v221zM471 -102h268v-185q0 -162 -237 -170v78q44 6 65 22.5t27 51.5h-123v203z" />
    <glyph glyph-name="tcommaaccent" unicode="&#x163;" horiz-adv-x="681" 
d="M193 1376h233v-317h211v-174h-211v-578q0 -81 24 -107t93 -26q78 0 94 8v-180q-110 -12 -152 -12q-166 0 -229 61.5t-63 222.5v611h-177v174h177v317zM285 -102h268v-185q0 -162 -238 -170v78q44 6 65.5 22.5t27.5 51.5h-123v203z" />
    <glyph glyph-name="Tcaron" unicode="&#x164;" horiz-adv-x="1214" 
d="M16 1462h1184v-221h-465v-1241h-256v1241h-463v221zM276 1896h189l143 -182l146 182h190l-221 -292h-227z" />
    <glyph glyph-name="tcaron" unicode="&#x165;" horiz-adv-x="681" 
d="M193 1376h233v-317h211v-174h-211v-578q0 -81 24 -107t93 -26q78 0 94 8v-180q-110 -12 -152 -12q-166 0 -229 61.5t-63 222.5v611h-177v174h177v317zM606 1462h256l-166 -293h-155z" />
    <glyph glyph-name="Tbar" unicode="&#x166;" horiz-adv-x="1214" 
d="M16 1462h1184v-221h-465v-276h314v-152h-314v-813h-256v813h-311v152h311v276h-463v221z" />
    <glyph glyph-name="tbar" unicode="&#x167;" horiz-adv-x="681" 
d="M193 1376h233v-317h211v-174h-211v-193h192v-129h-192v-256q0 -83 24 -108t101 -25q70 0 86 8v-180q-110 -12 -154 -12q-158 0 -224 57.5t-66 204.5v311h-164v129h164v193h-177v174h177v317z" />
    <glyph glyph-name="Utilde" unicode="&#x168;" horiz-adv-x="1478" 
d="M139 1462h256v-864q0 -81 8.5 -141t31 -113t61 -86.5t99.5 -52.5t144 -19q82 0 142.5 18.5t99 51t61.5 84.5t32 112t9 140v870h256v-946q0 -179 -78 -305t-211 -186t-311 -60q-132 0 -241 35t-189.5 103t-125 173.5t-44.5 239.5v946zM987 1872h115q-13 -113 -72.5 -174.5
t-152.5 -61.5q-61 0 -150 39q-84 37 -143 37q-73 0 -88 -84h-117q20 102 76.5 167t138.5 65q67 0 154 -37q11 -4 33.5 -13.5t34.5 -14t31.5 -9t37.5 -4.5q78 0 102 90z" />
    <glyph glyph-name="utilde" unicode="&#x169;" horiz-adv-x="1175" 
d="M123 1059h233v-658q0 -245 203 -245q129 0 194.5 73t65.5 207v623h234v-1059h-230v147h-4q-45 -81 -128 -128.5t-175 -47.5q-201 0 -297 101.5t-96 304.5v682zM842 1475h114q-15 -112 -74 -174t-151 -62q-65 0 -149 37q-89 39 -144 39q-73 0 -88 -84h-117
q19 102 76.5 166.5t139.5 64.5q66 0 153 -37q11 -4 33.5 -13.5t34.5 -14t31.5 -9t37.5 -4.5q79 0 103 91z" />
    <glyph glyph-name="Umacron" unicode="&#x16a;" horiz-adv-x="1478" 
d="M139 1462h256v-864q0 -81 8.5 -141t31 -113t61 -86.5t99.5 -52.5t144 -19q82 0 142.5 18.5t99 51t61.5 84.5t32 112t9 140v870h256v-946q0 -179 -78 -305t-211 -186t-311 -60q-132 0 -241 35t-189.5 103t-125 173.5t-44.5 239.5v946zM444 1808h590v-133h-590v133z" />
    <glyph glyph-name="umacron" unicode="&#x16b;" horiz-adv-x="1175" 
d="M123 1059h233v-658q0 -245 203 -245q129 0 194.5 73t65.5 207v623h234v-1059h-230v147h-4q-45 -81 -128 -128.5t-175 -47.5q-201 0 -297 101.5t-96 304.5v682zM299 1411h590v-133h-590v133z" />
    <glyph glyph-name="Ubreve" unicode="&#x16c;" horiz-adv-x="1478" 
d="M139 1462h256v-864q0 -81 8.5 -141t31 -113t61 -86.5t99.5 -52.5t144 -19q82 0 142.5 18.5t99 51t61.5 84.5t32 112t9 140v870h256v-946q0 -179 -78 -305t-211 -186t-311 -60q-132 0 -241 35t-189.5 103t-125 173.5t-44.5 239.5v946zM410 1894h118q14 -74 69.5 -114.5
t150.5 -40.5q83 0 136 40t70 115h117q-15 -139 -102.5 -213.5t-237.5 -74.5q-144 0 -226.5 74.5t-94.5 213.5z" />
    <glyph glyph-name="ubreve" unicode="&#x16d;" horiz-adv-x="1175" 
d="M123 1059h233v-658q0 -245 203 -245q129 0 194.5 73t65.5 207v623h234v-1059h-230v147h-4q-45 -81 -128 -128.5t-175 -47.5q-201 0 -297 101.5t-96 304.5v682zM264 1497h119q30 -156 219 -156q79 0 134.5 39.5t72.5 116.5h117q-15 -139 -104 -214t-236 -75
q-142 0 -226 75t-96 214z" />
    <glyph glyph-name="Uring" unicode="&#x16e;" horiz-adv-x="1478" 
d="M139 1462h256v-864q0 -81 8.5 -141t31 -113t61 -86.5t99.5 -52.5t144 -19q82 0 142.5 18.5t99 51t61.5 84.5t32 112t9 140v870h256v-946q0 -179 -78 -305t-211 -186t-311 -60q-132 0 -241 35t-189.5 103t-125 173.5t-44.5 239.5v946zM741 1960q91 0 152 -59.5t61 -151.5
q0 -89 -61 -150t-152 -61q-90 0 -151.5 60t-61.5 151q0 92 62.5 151.5t150.5 59.5zM618 1749q0 -53 35.5 -89t87.5 -36q53 0 88 36t35 89t-34 89t-89 36q-53 0 -88 -35.5t-35 -89.5z" />
    <glyph glyph-name="uring" unicode="&#x16f;" horiz-adv-x="1175" 
d="M123 1059h233v-658q0 -245 203 -245q129 0 194.5 73t65.5 207v623h234v-1059h-230v147h-4q-45 -81 -128 -128.5t-175 -47.5q-201 0 -297 101.5t-96 304.5v682zM598 1591q93 0 153 -60.5t60 -150.5t-60.5 -150.5t-152.5 -60.5q-91 0 -152 60t-61 151q0 87 59.5 149
t153.5 62zM475 1380q0 -53 36.5 -89t86.5 -36q53 0 88 34.5t35 90.5q0 54 -33.5 89.5t-89.5 35.5q-53 0 -88 -36t-35 -89z" />
    <glyph glyph-name="Uhungarumlaut" unicode="&#x170;" horiz-adv-x="1478" 
d="M139 1462h256v-864q0 -81 8.5 -141t31 -113t61 -86.5t99.5 -52.5t144 -19q82 0 142.5 18.5t99 51t61.5 84.5t32 112t9 140v870h256v-946q0 -179 -78 -305t-211 -186t-311 -60q-132 0 -241 35t-189.5 103t-125 173.5t-44.5 239.5v946zM618 1896h279l-295 -292h-168z
M1026 1896h279l-295 -292h-168z" />
    <glyph glyph-name="uhungarumlaut" unicode="&#x171;" horiz-adv-x="1175" 
d="M123 1059h233v-658q0 -245 203 -245q129 0 194.5 73t65.5 207v623h234v-1059h-230v147h-4q-45 -81 -128 -128.5t-175 -47.5q-201 0 -297 101.5t-96 304.5v682zM473 1499h279l-295 -293h-168zM881 1499h278l-295 -293h-168z" />
    <glyph glyph-name="Uogonek" unicode="&#x172;" horiz-adv-x="1478" 
d="M139 1462h256v-864q0 -48 1.5 -80.5t9 -79.5t20.5 -78.5t38.5 -67t61 -57t90 -35.5t123.5 -14q65 0 117.5 12t88 32t61.5 51.5t40.5 64t23 76.5t11 82.5t2.5 87.5v870h256v-946q0 -232 -133.5 -378t-380.5 -169q-81 -68 -117 -119t-36 -112q0 -40 23 -66t59 -26
q33 0 56.5 16t47.5 53l84 -18q-21 -75 -77.5 -114.5t-137.5 -39.5q-90 0 -148.5 47.5t-58.5 128.5q0 125 178 248q-269 12 -414 155.5t-145 393.5v946z" />
    <glyph glyph-name="uogonek" unicode="&#x173;" horiz-adv-x="1175" 
d="M123 1059h233v-658q0 -245 203 -245q129 0 194.5 73t65.5 207v623h234v-1059h-119q-97 -79 -141.5 -137t-44.5 -125q0 -42 22.5 -67t58.5 -25q60 0 105 69l84 -18q-21 -75 -77.5 -114.5t-137.5 -39.5q-90 0 -148.5 47.5t-58.5 128.5q0 142 227 281v147h-4
q-45 -81 -129.5 -128.5t-173.5 -47.5q-201 0 -297 101.5t-96 304.5v682z" />
    <glyph glyph-name="Wcircumflex" unicode="&#x174;" horiz-adv-x="1933" 
d="M12 1462h260l265 -1118h4l295 1118h262l286 -1118h5l272 1118h260l-403 -1462h-261l-292 1118h-4l-299 -1118h-265zM854 1896h227l222 -292h-191l-145 184l-144 -184h-188z" />
    <glyph glyph-name="wcircumflex" unicode="&#x175;" horiz-adv-x="1593" 
d="M27 1059h247l207 -791h4l199 791h236l190 -791h4l215 791h238l-332 -1059h-240l-196 786h-4l-195 -786h-246zM694 1499h228l221 -293h-191l-145 185l-143 -185h-189z" />
    <glyph glyph-name="Ycircumflex" unicode="&#x176;" horiz-adv-x="1327" 
d="M-12 1462h297l387 -655l381 655h286l-546 -889v-573h-256v573zM563 1896h228l221 -292h-191l-145 184l-144 -184h-188z" />
    <glyph glyph-name="ycircumflex" unicode="&#x177;" horiz-adv-x="1062" 
d="M6 1059h256l277 -791h4l268 791h244l-408 -1106q-60 -168 -117 -246q-46 -68 -109.5 -97.5t-154.5 -29.5q-74 0 -160 12v197q4 0 43.5 -7t67.5 -7q110 0 145 96l46 133zM432 1499h227l222 -293h-191l-145 185l-144 -185h-188z" />
    <glyph glyph-name="Ydieresis" unicode="&#x178;" horiz-adv-x="1327" 
d="M-12 1462h297l387 -655l381 655h286l-546 -889v-573h-256v573zM383 1851h233v-221h-233v221zM735 1851h234v-221h-234v221z" />
    <glyph glyph-name="Zacute" unicode="&#x179;" horiz-adv-x="1290" 
d="M113 1462h1112v-194l-852 -1047h872v-221h-1198v209l852 1032h-786v221zM748 1896h276l-291 -292h-170z" />
    <glyph glyph-name="zacute" unicode="&#x17a;" horiz-adv-x="1024" 
d="M86 1059h860v-164l-606 -711h637v-184h-932v164l586 710h-545v185zM590 1499h276l-291 -293h-169z" />
    <glyph glyph-name="Zdotaccent" unicode="&#x17b;" horiz-adv-x="1290" 
d="M113 1462h1112v-194l-852 -1047h872v-221h-1198v209l852 1032h-786v221zM545 1851h233v-221h-233v221z" />
    <glyph glyph-name="zdotaccent" unicode="&#x17c;" horiz-adv-x="1024" 
d="M86 1059h860v-164l-606 -711h637v-184h-932v164l586 710h-545v185zM397 1454h234v-221h-234v221z" />
    <glyph glyph-name="Zcaron" unicode="&#x17d;" horiz-adv-x="1290" 
d="M113 1462h1112v-194l-852 -1047h872v-221h-1198v209l852 1032h-786v221zM330 1896h188l144 -182l145 182h190l-221 -292h-227z" />
    <glyph glyph-name="zcaron" unicode="&#x17e;" horiz-adv-x="1024" 
d="M86 1059h860v-164l-606 -711h637v-184h-932v164l586 710h-545v185zM182 1499h189l143 -182l145 182h191l-221 -293h-228z" />
    <glyph glyph-name="florin" unicode="&#x192;" 
d="M885 1497q57 0 147 -10l-35 -184q-49 10 -84 10q-81 0 -116.5 -32.5t-55.5 -131.5l-49 -252h209l-31 -174h-208l-150 -776q-22 -120 -123 -207.5t-231 -87.5q-53 0 -158 10l31 184q56 -10 98 -10q65 0 97 27t44 88l154 772h-186l30 174h189l61 326q25 131 118 202.5
t249 71.5z" />
    <glyph glyph-name="Scommaaccent" unicode="&#x218;" horiz-adv-x="1327" 
d="M657 1497q160 0 286 -54.5t200.5 -161.5t75.5 -251h-256v2q-24 256 -316 256q-119 0 -193.5 -50t-74.5 -140q0 -144 186 -193l391 -102q51 -13 101 -42t97 -74t76.5 -113.5t29.5 -149.5q0 -214 -160 -336.5t-422 -122.5q-279 0 -442.5 136.5t-167.5 385.5h256
q1 -153 100 -233t270 -80q145 0 227.5 61t82.5 160q0 68 -31.5 114.5t-89.5 65.5q-103 34 -418 115q-342 84 -342 377q0 107 45.5 191.5t122 135.5t170 77t196.5 26zM522 -102h269v-185q0 -162 -238 -170v78q44 6 65 22.5t27 51.5h-123v203z" />
    <glyph glyph-name="scommaaccent" unicode="&#x219;" horiz-adv-x="1062" 
d="M530 1087q191 0 308.5 -84.5t134.5 -240.5h-244q-26 141 -215 141q-88 0 -140 -28t-52 -80q0 -56 58.5 -90.5t209.5 -63.5q121 -22 202.5 -52.5t129 -71.5t67 -89.5t19.5 -112.5q0 -161 -132 -252.5t-341 -91.5q-214 0 -339.5 95t-129.5 274h233q21 -184 240 -184
q111 0 173 33t62 100q0 30 -12.5 52.5t-47.5 45.5t-104.5 43t-177.5 39q-344 61 -344 315q0 144 124 223.5t318 79.5zM397 -102h269v-185q0 -162 -238 -170v78q44 6 65 22.5t27 51.5h-123v203z" />
    <glyph glyph-name="uni021A" unicode="&#x21a;" horiz-adv-x="1214" 
d="M16 1462h1184v-221h-465v-1241h-256v1241h-463v221zM471 -102h268v-185q0 -162 -237 -170v78q44 6 65 22.5t27 51.5h-123v203z" />
    <glyph glyph-name="uni021B" unicode="&#x21b;" horiz-adv-x="681" 
d="M193 1376h233v-317h211v-174h-211v-578q0 -81 24 -107t93 -26q78 0 94 8v-180q-110 -12 -152 -12q-166 0 -229 61.5t-63 222.5v611h-177v174h177v317zM285 -102h268v-185q0 -162 -238 -170v78q44 6 65.5 22.5t27.5 51.5h-123v203z" />
    <glyph glyph-name="circumflex" unicode="&#x2c6;" horiz-adv-x="493" 
d="M133 1499h227l222 -293h-191l-145 185l-144 -185h-188z" />
    <glyph glyph-name="caron" unicode="&#x2c7;" horiz-adv-x="493" 
d="M-88 1499h188l144 -182l145 182h191l-222 -293h-227z" />
    <glyph glyph-name="uni02C9" unicode="&#x2c9;" horiz-adv-x="493" 
d="M-47 1411h590v-133h-590v133z" />
    <glyph glyph-name="breve" unicode="&#x2d8;" horiz-adv-x="493" 
d="M-84 1497h119q30 -156 219 -156q79 0 134.5 39.5t72.5 116.5h117q-15 -139 -104 -214t-236 -75q-142 0 -226 75t-96 214z" />
    <glyph glyph-name="dotaccent" unicode="&#x2d9;" horiz-adv-x="493" 
d="M131 1454h234v-221h-234v221z" />
    <glyph glyph-name="ring" unicode="&#x2da;" horiz-adv-x="493" 
d="M248 1591q93 0 153 -60.5t60 -150.5t-60.5 -150.5t-152.5 -60.5q-91 0 -152 60t-61 151q0 87 59.5 149t153.5 62zM125 1380q0 -53 36.5 -89t86.5 -36q53 0 88 34.5t35 90.5q0 54 -33.5 89.5t-89.5 35.5q-53 0 -88 -36t-35 -89z" />
    <glyph glyph-name="ogonek" unicode="&#x2db;" horiz-adv-x="493" 
d="M332 0h110q-104 -84 -148 -140t-44 -122q0 -40 23 -66t59 -26q33 0 56.5 16t47.5 53l84 -18q-20 -75 -77 -114.5t-138 -39.5q-91 0 -149 48t-58 128q0 72 56.5 140t177.5 141z" />
    <glyph glyph-name="tilde" unicode="&#x2dc;" horiz-adv-x="493" 
d="M494 1475h114q-15 -112 -74 -174t-151 -62q-66 0 -150 37q-89 39 -143 39q-73 0 -88 -84h-117q20 102 76.5 166.5t138.5 64.5q67 0 154 -37q11 -4 33.5 -13.5t34.5 -14t31.5 -9t37.5 -4.5q79 0 103 91z" />
    <glyph glyph-name="hungarumlaut" unicode="&#x2dd;" horiz-adv-x="493" 
d="M113 1499h278l-295 -293h-168zM520 1499h279l-295 -293h-168z" />
    <glyph glyph-name="uni0394" unicode="&#x394;" horiz-adv-x="1345" 
d="M537 1462h272l553 -1462h-1376zM670 1202l-342 -987h684z" />
    <glyph glyph-name="uni03A9" unicode="&#x3a9;" horiz-adv-x="1570" 
d="M791 1497q157 0 289.5 -55.5t220.5 -148.5t137 -216t49 -258q0 -371 -307 -594v-10h329v-215h-606v195q328 193 328 624q0 205 -121.5 337t-318.5 132q-201 0 -326 -134.5t-125 -352.5q0 -408 336 -606v-195h-608v215h307v10q-150 105 -220.5 246t-70.5 328
q0 201 90.5 360t252 248.5t364.5 89.5z" />
    <glyph glyph-name="uni03BC" unicode="&#x3bc;" horiz-adv-x="1175" 
d="M123 1059h233v-658q0 -245 203 -245q129 0 194.5 73t65.5 207v623h234v-1059h-230v147h-4q-108 -176 -291 -176q-111 0 -172 54v-416h-233v1450z" />
    <glyph glyph-name="pi" unicode="&#x3c0;" horiz-adv-x="1415" 
d="M51 1059h1303v-185h-219v-622q0 -94 88 -94q31 0 73 10v-162q-78 -35 -170 -35q-223 0 -223 215v688h-418v-874h-233v874h-201v185z" />
    <glyph glyph-name="uni1E9E" unicode="&#x1e9e;" horiz-adv-x="1554" 
d="M1260 1450l-3 -203q-91 -2 -171 -22.5t-136.5 -65t-56.5 -104.5q0 -67 54 -112.5t190 -108.5q82 -38 142 -77.5t109 -92t74 -120.5t25 -151q0 -139 -66.5 -237.5t-174 -144.5t-242.5 -46q-69 0 -133.5 13.5t-126 45t-107 78.5t-73.5 119.5t-29 161.5h243
q0 -103 64.5 -159t167.5 -56q106 0 165.5 55.5t59.5 153.5q0 96 -53.5 153.5t-202.5 122.5q-167 73 -253.5 158.5t-86.5 206.5q0 110 73.5 179.5t190.5 92.5q-54 8 -133 8q-39 0 -67 -1t-64 -4.5t-61 -11t-53 -19.5t-47 -30.5t-35 -43.5t-23.5 -60.5t-7.5 -78.5v-1049h-256
v1067q0 226 146.5 328t457.5 102q131 0 273 -13.5t227 -33.5z" />
    <glyph glyph-name="endash" unicode="&#x2013;" horiz-adv-x="1024" 
d="M0 668h1024v-222h-1024v222z" />
    <glyph glyph-name="emdash" unicode="&#x2014;" horiz-adv-x="2048" 
d="M266 668h1516v-222h-1516v222z" />
    <glyph glyph-name="quoteleft" unicode="&#x2018;" horiz-adv-x="569" 
d="M414 1462v-119q-61 -22 -93 -69t-32 -113h125v-276h-256v282q0 100 69 179t187 116z" />
    <glyph glyph-name="quoteright" unicode="&#x2019;" horiz-adv-x="569" 
d="M158 1462h256v-282q0 -111 -69 -194t-187 -101v119q125 19 125 182h-125v276z" />
    <glyph glyph-name="quotesinglbase" unicode="&#x201a;" horiz-adv-x="569" 
d="M158 276h256v-282q0 -97 -70 -181t-186 -114v119q125 43 125 182h-125v276z" />
    <glyph glyph-name="quotedblleft" unicode="&#x201c;" horiz-adv-x="909" 
d="M379 1462v-119q-61 -22 -93 -69t-32 -113h125v-276h-256v282q0 100 69 179t187 116zM786 1462v-119q-124 -46 -124 -182h124v-276h-256v282q0 97 69 178.5t187 116.5z" />
    <glyph glyph-name="quotedblright" unicode="&#x201d;" horiz-adv-x="909" 
d="M123 1462h256v-280q0 -99 -66.5 -181t-187.5 -116h-2v119q125 46 125 182h-125v276zM530 1462h256v-282q0 -99 -69 -180.5t-185 -114.5h-2v119q125 45 125 182h-125v276z" />
    <glyph glyph-name="quotedblbase" unicode="&#x201e;" horiz-adv-x="909" 
d="M123 276h256v-282q0 -98 -69.5 -181.5t-186.5 -113.5v119q125 46 125 182h-125v276zM530 276h256v-282q0 -97 -69 -179.5t-185 -115.5h-2v119q125 45 125 182h-125v276z" />
    <glyph glyph-name="dagger" unicode="&#x2020;" 
d="M453 1462h233v-403h391v-195h-391v-1192h-233v1192h-392v195h392v403z" />
    <glyph glyph-name="daggerdbl" unicode="&#x2021;" 
d="M453 1462h233v-403h391v-195h-391v-594h391v-194h-391v-404h-233v404h-392v194h392v594h-392v195h392v403z" />
    <glyph glyph-name="bullet" unicode="&#x2022;" horiz-adv-x="1024" 
d="M512 1096q152 0 259.5 -105.5t107.5 -259.5q0 -149 -105.5 -257.5t-261.5 -108.5q-155 0 -260 108q-105 111 -105 258q0 150 106 257.5t259 107.5z" />
    <glyph glyph-name="ellipsis" unicode="&#x2026;" horiz-adv-x="2048" 
d="M199 276h284v-276h-284v276zM881 276h284v-276h-284v276zM1563 276h284v-276h-284v276z" />
    <glyph glyph-name="perthousand" unicode="&#x2030;" horiz-adv-x="2351" 
d="M1153 1483h150l-820 -1532h-145l813 1530zM473 1462q141 0 223 -98.5t82 -265.5q0 -154 -82 -246t-223 -92q-146 0 -225.5 92t-79.5 244q0 168 82 267t223 99zM342 1092q0 -209 131 -209q66 0 98.5 50.5t32.5 158.5q0 247 -133 247q-129 0 -129 -247zM1180 674
q141 0 223 -97.5t82 -261.5q0 -155 -83 -249.5t-222 -94.5q-140 0 -223 94.5t-83 249.5q0 163 81.5 261t224.5 98zM1878 674q144 0 224.5 -96.5t80.5 -262.5q0 -154 -81 -249t-224 -95q-144 0 -224.5 94.5t-80.5 249.5q0 167 80.5 263t224.5 96zM1049 309q0 -215 131 -215
t131 217q0 126 -33 183t-98 57q-63 0 -97 -55.5t-34 -186.5zM1747 311q0 -217 131 -217t131 217q0 240 -131 240t-131 -240z" />
    <glyph glyph-name="guilsinglleft" unicode="&#x2039;" horiz-adv-x="530" 
d="M102 672l318 252v-211l-195 -156l195 -156v-211l-318 252v230z" />
    <glyph glyph-name="guilsinglright" unicode="&#x203a;" horiz-adv-x="530" 
d="M111 713v211l317 -252v-230l-317 -252v211l194 156z" />
    <glyph glyph-name="fraction" unicode="&#x2044;" horiz-adv-x="342" 
d="M520 1483h160l-856 -1532h-162z" />
    <glyph glyph-name="Euro" unicode="&#x20ac;" 
d="M797 1462q175 0 364 -127l-94 -186q-131 131 -287 131q-126 0 -214 -92t-120 -256h541l-53 -131h-502q-2 -25 -2 -70q0 -46 2 -69h473l-51 -130h-412q25 -175 117.5 -275.5t239.5 -100.5q100 0 159 27.5t148 107.5v-228q-140 -90 -309 -90q-253 0 -403.5 143.5
t-190.5 415.5h-158l55 130h93q-5 58 -5 69q0 7 5 70h-148l53 131h109q60 260 211.5 395t378.5 135z" />
    <glyph glyph-name="uni20B9" unicode="&#x20b9;" 
d="M100 1305v129h1045v-129h-346q76 -67 94 -187h252v-129h-248q-12 -186 -130 -288.5t-310 -102.5h-70l557 -598h-299l-545 612v162h236q71 0 124 9.5t98.5 32.5t72 66.5t33.5 106.5h-564v129h559q-38 187 -292 187h-267z" />
    <glyph glyph-name="uni20BA" unicode="&#x20ba;" 
d="M10 989l183 86v359h221v-252l395 190v-143l-395 -191v-153l395 190v-143l-395 -191v-546q129 1 232.5 71.5t161.5 183.5t66 246h230q-19 -200 -105.5 -356.5t-238 -248t-346.5 -91.5h-221v635l-183 -86v143l183 86v154l-183 -86v143z" />
    <glyph glyph-name="uni20BC" unicode="&#x20bc;" horiz-adv-x="1536" 
d="M879 993v-850h-222v850q-87 -18 -155.5 -89.5t-109 -166.5t-67 -214.5t-36.5 -224t-10 -204.5v-94h-232v133q0 141 19.5 277.5t65.5 272t114 240t174 177t237 88.5v246h222v-246q131 -16 237 -88.5t174 -177t114 -240t65.5 -272t19.5 -277.5v-133h-234v94
q0 100 -9.5 204.5t-36 224t-67 214.5t-108.5 166.5t-155 89.5z" />
    <glyph glyph-name="ruble" unicode="&#x20bd;" 
d="M786 330h-360v-330h-221v330h-180v164h180v133h-180v164h180v636h436q471 0 471 -389q0 -210 -131 -310.5t-360 -100.5h-195v-133h360v-164zM426 791h190q132 0 197.5 55t65.5 180q0 118 -67 163.5t-200 45.5h-186v-444z" />
    <glyph glyph-name="afii61289" unicode="&#x2113;" horiz-adv-x="1024" 
d="M604 1477q123 0 199 -81t76 -210q0 -298 -375 -635v-262q0 -71 37 -110.5t98 -39.5q83 0 180 78h4l78 -119q-144 -127 -317 -127q-143 0 -225.5 78t-82.5 201v149l-116 -108h-4l-80 123l198 174v512q0 158 94.5 267.5t235.5 109.5zM504 1143v-398q188 207 188 424
q0 68 -26 111t-66 43q-42 0 -69 -52.5t-27 -127.5z" />
    <glyph glyph-name="trademark" unicode="&#x2122;" horiz-adv-x="2027" 
d="M121 1462h680v-133h-258v-711h-164v711h-258v133zM973 1462h237l232 -598l229 598h236v-844h-154v660h-4l-252 -660h-115l-252 660h-4v-660h-153v844z" />
    <glyph glyph-name="Omega" unicode="&#x2126;" horiz-adv-x="1570" 
d="M791 1497q157 0 289.5 -55.5t220.5 -148.5t137 -216t49 -258q0 -371 -307 -594v-10h329v-215h-606v195q328 193 328 624q0 205 -121.5 337t-318.5 132q-201 0 -326 -134.5t-125 -352.5q0 -408 336 -606v-195h-608v215h307v10q-150 105 -220.5 246t-70.5 328
q0 201 90.5 360t252 248.5t364.5 89.5z" />
    <glyph glyph-name="estimated" unicode="&#x212e;" horiz-adv-x="1576" 
d="M395 715v-488q159 -159 391 -159q178 0 303 82t220 243l94 -57q-83 -128 -165 -205t-193.5 -118.5t-258.5 -41.5q-208 0 -368 100.5t-244 269t-84 374.5q0 154 49 290.5t137.5 237.5t220.5 160t289 59q212 0 372.5 -100t243.5 -268.5t85 -378.5h-1092zM395 815h787v391
q-173 162 -400 162q-219 0 -387 -162v-391z" />
    <glyph glyph-name="partialdiff" unicode="&#x2202;" horiz-adv-x="1122" 
d="M487 1477q262 0 406.5 -200t144.5 -544q0 -365 -131.5 -561.5t-384.5 -196.5q-194 0 -318 131.5t-124 333.5q0 195 122 322t312 127q163 0 301 -119l2 78q3 127 -35 231t-113 166t-173 62q-114 0 -242 -99l-117 135q95 75 173.5 104.5t176.5 29.5zM291 428
q0 -128 65 -208.5t174 -80.5q127 0 203 119q80 121 80 268l-2 62q-63 72 -125.5 104.5t-138.5 32.5q-116 0 -186 -83.5t-70 -213.5z" />
    <glyph glyph-name="Delta" unicode="&#x2206;" horiz-adv-x="1345" 
d="M537 1462h272l553 -1462h-1376zM670 1202l-342 -987h684z" />
    <glyph glyph-name="product" unicode="&#x220f;" horiz-adv-x="1509" 
d="M129 1610h1251v-2048h-221v1847h-811v-1847h-219v2048z" />
    <glyph glyph-name="summation" unicode="&#x2211;" horiz-adv-x="1316" 
d="M78 1610h1161v-201h-868l571 -811l-608 -838h932v-198h-1215v176l627 858l-600 842v172z" />
    <glyph glyph-name="minus" unicode="&#x2212;" horiz-adv-x="1228" 
d="M98 623h1032v-209h-1032v209z" />
    <glyph glyph-name="uni2215" unicode="&#x2215;" horiz-adv-x="342" 
d="M520 1483h160l-856 -1532h-162z" />
    <glyph glyph-name="uni2219" unicode="&#x2219;" horiz-adv-x="569" 
d="M285 770q63 0 108 -46.5t45 -105.5q0 -61 -45 -108t-108 -47t-108.5 46.5t-45.5 108.5q0 59 45.5 105.5t108.5 46.5z" />
    <glyph glyph-name="radical" unicode="&#x221a;" horiz-adv-x="1087" 
d="M889 1610h223l-432 -2048h-207l-313 653l-103 -47l-82 174l293 133l273 -575z" />
    <glyph glyph-name="infinity" unicode="&#x221e;" horiz-adv-x="1650" 
d="M1223 895q148 0 242 -101.5t94 -256.5q0 -159 -92 -263t-246 -104q-99 0 -191.5 52.5t-204.5 176.5q-130 -134 -210 -179.5t-183 -45.5q-151 0 -246.5 100t-95.5 258t94 259.5t242 101.5q105 0 198.5 -56.5t200.5 -185.5q108 129 202.5 186.5t195.5 57.5zM1219 707
q-56 0 -119.5 -39t-161.5 -142q160 -168 287 -168q69 0 113 47t44 125q0 82 -45.5 129.5t-117.5 47.5zM426 705q-67 0 -113.5 -50.5t-46.5 -124.5q0 -76 45 -123t121 -47q61 0 135.5 43.5t145.5 122.5q-100 102 -164.5 140.5t-122.5 38.5z" />
    <glyph glyph-name="integral" unicode="&#x222b;" horiz-adv-x="1228" 
d="M756 1610q88 0 151.5 -42t63.5 -108q0 -41 -30.5 -70.5t-74.5 -29.5q-79 0 -106 90q-15 43 -39 43q-39 0 -39 -61l4 -269l2 -1161q0 -232 -69.5 -336t-219.5 -104q-88 0 -148.5 41t-60.5 106q0 42 28 71.5t71 29.5q19 0 28 -1.5t24.5 -10.5t30 -32.5t29.5 -62.5
q12 -31 31 -31q39 0 39 72l-6 227v1200q0 236 69.5 337.5t221.5 101.5z" />
    <glyph glyph-name="approxequal" unicode="&#x2248;" horiz-adv-x="1228" 
d="M369 905q88 0 272 -71q164 -66 250 -66q101 0 131 135h137q-15 -162 -92 -249t-205 -87q-92 0 -274 72q-185 70 -240 70q-51 0 -87 -38t-46 -104h-139q15 157 91.5 247.5t201.5 90.5zM365 483q97 0 274 -71q168 -66 248 -66q103 0 131 135h137q-15 -163 -91.5 -249.5
t-205.5 -86.5q-99 0 -346 99q-110 43 -168 43q-52 0 -87.5 -37t-45.5 -105h-139q15 156 91.5 247t201.5 91z" />
    <glyph glyph-name="notequal" unicode="&#x2260;" horiz-adv-x="1228" 
d="M838 1116l161 -84l-110 -203h241v-202h-358l-113 -217h471v-203h-579l-156 -287h-2l-160 84l111 203h-246v203h363l110 217h-473v202h584z" />
    <glyph glyph-name="lessequal" unicode="&#x2264;" horiz-adv-x="1228" 
d="M1130 1114v-199l-796 -233l796 -236v-196l-1032 334v196zM98 209h1032v-209h-1032v209z" />
    <glyph glyph-name="greaterequal" unicode="&#x2265;" horiz-adv-x="1228" 
d="M98 1114l1032 -334v-196l-1032 -334v196l799 236l-799 233v199zM98 209h1032v-209h-1032v209z" />
    <glyph glyph-name="lozenge" unicode="&#x25ca;" horiz-adv-x="1214" 
d="M508 1530h194l363 -801l-363 -801h-194l-361 799zM604 1323l-244 -594l244 -596l250 596z" />
    <glyph glyph-name="dotlessj" unicode="&#xe0d6;" horiz-adv-x="493" 
d="M129 1059h233v-1157q0 -163 -75.5 -242.5t-229.5 -79.5q-65 0 -102 8v185q49 -9 80 -9q52 0 73 29.5t21 114.5v1151z" />
    <glyph glyph-name="grave.cap" unicode="&#xe300;" horiz-adv-x="493" 
d="M-59 1896h274l186 -292h-170z" />
    <glyph glyph-name="acute.cap" unicode="&#xe301;" horiz-adv-x="493" 
d="M276 1896h277l-291 -292h-170z" />
    <glyph glyph-name="circumflex.cap" unicode="&#xe302;" horiz-adv-x="493" 
d="M133 1896h227l222 -292h-191l-145 184l-144 -184h-188z" />
    <glyph glyph-name="caron.cap" unicode="&#xe303;" horiz-adv-x="493" 
d="M-88 1896h188l144 -182l145 182h191l-222 -292h-227z" />
    <glyph glyph-name="tilde.cap" unicode="&#xe304;" horiz-adv-x="493" 
d="M494 1872h114q-13 -113 -72.5 -174.5t-152.5 -61.5q-61 0 -150 39q-84 37 -143 37q-73 0 -88 -84h-117q20 102 76.5 167t138.5 65q67 0 154 -37q11 -4 33.5 -13.5t34.5 -14t31.5 -9t37.5 -4.5q79 0 103 90z" />
    <glyph glyph-name="dieresis.cap" unicode="&#xe305;" horiz-adv-x="493" 
d="M-47 1851h233v-221h-233v221zM305 1851h234v-221h-234v221z" />
    <glyph glyph-name="macron.cap" unicode="&#xe306;" horiz-adv-x="493" 
d="M-47 1808h590v-133h-590v133z" />
    <glyph glyph-name="breve.cap" unicode="&#xe307;" horiz-adv-x="493" 
d="M-84 1894h119q14 -74 69 -114.5t150 -40.5q83 0 136.5 40t70.5 115h117q-15 -139 -102.5 -213.5t-237.5 -74.5q-144 0 -227 74.5t-95 213.5z" />
    <glyph glyph-name="ring.cap" unicode="&#xe308;" horiz-adv-x="493" 
d="M248 1960q91 0 152 -59.5t61 -151.5q0 -89 -61 -150t-152 -61q-90 0 -151.5 60t-61.5 151q0 92 62.5 151.5t150.5 59.5zM125 1749q0 -53 35.5 -89t87.5 -36q53 0 88 36t35 89t-34 89t-89 36q-53 0 -88 -35.5t-35 -89.5z" />
    <glyph glyph-name="hungarumlaut.cap" unicode="&#xe309;" horiz-adv-x="493" 
d="M113 1896h278l-295 -292h-168zM520 1896h279l-295 -292h-168z" />
    <glyph glyph-name="dotaccent.cap" unicode="&#xe30a;" horiz-adv-x="493" 
d="M131 1851h234v-221h-234v221z" />
    <glyph glyph-name="caron.alt" unicode="&#xe30b;" horiz-adv-x="493" 
d="M209 1462h256l-166 -293h-156z" />
    <glyph glyph-name="commaaccent" unicode="&#xe30c;" horiz-adv-x="569" 
d="M150 -102h268v-185q0 -162 -238 -170v78q44 6 65 22.5t27 51.5h-122v203z" />
    <glyph glyph-name="commaaccent.alt" unicode="&#xe30d;" horiz-adv-x="569" 
d="M389 1614v-78q-43 -6 -64.5 -23t-27.5 -51h123v-202h-268v188q0 158 237 166z" />
    <glyph glyph-name="uniF8FF" unicode="&#xf8ff;" horiz-adv-x="1048" 
d="M0 1470h1049v-1470h-1049v1470zM102 102h844v1264h-844v-1264zM530 1247q110 0 182 -74.5t72 -193.5q0 -79 -30 -131t-101 -117t-84 -94q-14 -35 -14 -158h-94l-4 39q0 114 32 176q31 52 97 115q43 39 68.5 77t25.5 85q0 70 -47 122t-109 52q-69 0 -112.5 -49t-55.5 -146
l-102 17q13 137 84 208.5t192 71.5zM455 240v137h114v-137h-114z" />
    </font>
</defs>
</svg>
