<svg id="Calendar_Icon" data-name="Calendar Icon" xmlns="http://www.w3.org/2000/svg" xmlns:xlink="http://www.w3.org/1999/xlink" width="24" height="24" viewBox="0 0 24 24">
  <defs>
    <clipPath id="clip-path">
      <rect id="Rectangle_4962" data-name="Rectangle 4962" width="24" height="24" transform="translate(846 20)" fill="none"/>
    </clipPath>
  </defs>
  <g id="Mask_Group_11" data-name="Mask Group 11" transform="translate(-846 -20)" clip-path="url(#clip-path)">
    <path id="Path_4007" data-name="Path 4007" d="M17,3.5h-.75V2.75a.75.75,0,1,0-1.5,0V3.5h-3s-1.5,0-1.5,0h-3V2.75a.75.75,0,1,0-1.5,0V3.5H5a3,3,0,0,0-3,3V17a3,3,0,0,0,3,3H17a3,3,0,0,0,3-3V6.5A3,3,0,0,0,17,3.5ZM5,5h.75v.75a.75.75,0,1,0,1.5,0V5h7.5v.75a.75.75,0,1,0,1.5,0V5H17a1.5,1.5,0,0,1,1.5,1.5V8H3.5V6.5A1.5,1.5,0,0,1,5,5ZM17,18.5H5A1.5,1.5,0,0,1,3.5,17V9.5h15V17A1.5,1.5,0,0,1,17,18.5Z" transform="translate(847 21)" stroke="#000" stroke-width="0.1"/>
  </g>
</svg>
